<svg width="181" height="148" viewBox="0 0 181 148" fill="none" xmlns="http://www.w3.org/2000/svg">
<path d="M93.7262 81.5137C94.0568 75.6186 96.9388 70.4097 101.306 66.7292C105.579 63.111 111.318 60.8965 117.619 60.8965C123.888 60.8965 129.627 63.1079 133.9 66.7292C138.267 70.4097 141.137 75.6186 141.48 81.5137C141.81 87.5647 139.374 93.2103 135.117 97.3899C130.75 101.632 124.574 104.314 117.619 104.314C110.663 104.314 104.456 101.651 100.12 97.3899C95.8472 93.2103 93.4143 87.596 93.7574 81.5449L93.7262 81.5137Z" fill="white"/>
<path d="M56.2971 93.99C56.3377 96.2981 57.0738 100.79 58.1779 104.283C60.4985 111.706 64.4473 118.569 69.9058 124.588C75.5202 130.795 82.4445 135.786 90.4294 139.342C98.8198 143.053 107.928 144.956 117.378 144.956C126.829 144.944 135.937 143.01 144.327 139.248C152.312 135.661 159.237 130.671 164.851 124.432C170.341 118.35 174.271 111.488 176.579 104.065C177.749 100.322 178.488 96.5165 178.784 92.7112C179.074 88.9682 178.953 85.1941 178.419 81.42C177.378 74.0901 174.832 67.1969 170.933 60.9587C167.378 55.1884 162.761 50.1666 157.272 45.9247L157.284 45.9153L102.076 3.49555C102.026 3.45812 101.986 3.41753 101.933 3.38322C98.3145 0.600987 92.2011 0.61036 88.2398 3.39884C84.2162 6.2185 83.7483 10.8847 87.3353 13.8166L87.3197 13.8322L110.37 32.578L40.1901 32.6529H40.0965C34.295 32.6591 28.7118 36.4582 27.6201 41.2928C26.4848 46.1898 30.4273 50.2758 36.4783 50.2758L36.469 50.2977L72.0267 50.229L8.39712 98.887C8.31602 98.9463 8.22868 99.0086 8.15382 99.0679C2.16515 103.653 0.231297 111.295 4.00541 116.098C7.8419 120.995 15.9827 121.026 22.0338 116.126L56.6558 87.7425C56.6558 87.7425 56.1505 91.5789 56.1911 93.8559L56.2971 93.99ZM145.503 106.809C138.361 114.077 128.348 118.225 117.556 118.225C106.733 118.244 96.7206 114.171 89.5779 106.903C86.0845 103.347 83.5269 99.2925 81.9361 94.9569C80.3859 90.6837 79.784 86.1611 80.1832 81.6072C80.5606 77.1469 81.8893 72.8737 84.0197 69.0372C86.1032 65.2631 88.9791 61.8321 92.5036 58.9313C99.4592 53.2858 108.286 50.1978 117.519 50.1978C126.783 50.1853 135.61 53.2202 142.565 58.8689C146.09 61.751 148.959 65.1695 151.049 68.9436C153.179 72.7801 154.511 77.0221 154.886 81.5136C155.279 86.0675 154.677 90.5902 153.126 94.8633C151.542 99.2301 148.978 103.285 145.485 106.841L145.503 106.809Z" fill="white"/>
</svg>
