<svg width="140" height="140" viewBox="0 0 140 140" fill="none" xmlns="http://www.w3.org/2000/svg">
<path d="M86.092 105.521C104.258 103.503 121.385 93.8229 130.815 77.6669C126.349 117.627 82.653 142.885 46.9858 127.378C43.6992 125.953 40.8702 123.582 38.9288 120.534C30.9134 107.948 28.2786 91.9329 32.0644 77.3989C42.881 96.0669 64.8748 107.51 86.092 105.521Z" fill="white"/>
<path d="M31.4012 65.6734C24.0375 82.6899 23.7186 102.614 32.7463 119.01C0.975927 95.1079 1.32263 43.9577 32.358 20.2948C35.2286 18.1077 38.64 16.8095 42.2178 16.612C56.9312 15.8359 71.8804 21.5224 82.364 32.1192C61.0637 32.3308 40.318 45.9755 31.4012 65.6734Z" fill="white"/>
<path d="M92.637 37.3552C81.89 22.3701 65.0686 12.1684 46.6387 11.858C82.264 -4.31244 126.085 21.9045 130.856 60.6654C131.3 64.2635 130.717 67.9322 129.122 71.1775C122.466 84.695 110.124 95.179 95.702 99.059C106.269 79.46 104.965 55.5151 92.637 37.3552Z" fill="white"/>
</svg>
