<svg width="170" height="191" viewBox="0 0 170 191" fill="none" xmlns="http://www.w3.org/2000/svg">
<g clip-path="url(#clip0_34_32)">
<path d="M167.837 143.25C166.503 145.557 164.663 147.572 162.639 148.739L92.3607 189.249C88.3124 191.583 81.6873 191.583 77.639 189.249L7.36072 148.739C5.33693 147.573 3.49631 145.557 2.16248 143.25L35.9349 123.781C45.7463 140.683 64.0657 152.076 85.0004 152.076C105.164 152.076 123.968 141.243 134.075 123.804L121.783 116.702L167.837 143.25ZM109.542 109.646C104.482 118.369 95.0802 123.788 85.0004 123.788C74.533 123.788 65.3738 118.091 60.4681 109.641L85.0004 95.5L109.542 109.646Z" fill="white"/>
<path d="M77.639 1.75049C81.6873 -0.583416 88.3124 -0.583343 92.3607 1.75049L162.639 42.2603C164.663 43.4273 166.504 45.4421 167.838 47.7495L119.686 75.5063L134.073 67.1938C123.966 49.7565 105.162 38.9244 85.0004 38.9243C53.7544 38.9243 28.3336 64.3035 28.3334 95.4995C28.3334 105.795 31.1022 115.457 35.9349 123.782L2.16248 143.25C0.82813 140.943 0.000366211 138.343 0.000366211 136.009V54.9897C0.000400093 50.3224 3.312 44.5939 7.36072 42.2603L77.639 1.75049ZM85.0004 67.2124C95.0796 67.2125 104.484 72.6299 109.543 81.3521L85.0004 95.5005L60.4681 109.64C58.0519 105.478 56.6664 100.647 56.6664 95.4995C56.6666 79.9014 69.3772 67.2124 85.0004 67.2124Z" fill="white"/>
<path d="M167.838 47.7502C169.172 50.057 170 52.6556 170 54.9895V136.01C170 138.344 169.171 140.943 167.837 143.249L85.0002 95.5002L167.838 47.7502ZM129.074 92.3567H122.778V98.6428H129.074V104.929H135.37V98.6428H141.666V92.3567H135.37V86.0706H129.074V92.3567ZM152.686 92.3567H146.389V98.6428H152.686V104.929H158.981V98.6428H165.278V92.3567H158.981V86.0706H152.686V92.3567Z" fill="white"/>
</g>
<defs>
<clipPath id="clip0_34_32">
<rect width="170" height="191" fill="white"/>
</clipPath>
</defs>
</svg>
