<svg width="205" height="205" viewBox="0 0 205 205" fill="none" xmlns="http://www.w3.org/2000/svg">
<path d="M102.4 13.8906C106.398 13.8906 110.325 14.9433 113.786 16.9434L170.715 49.8086C177.762 53.8731 182.1 61.3931 182.101 69.5283V135.266C182.1 139.262 181.048 143.188 179.05 146.649C177.051 150.111 174.176 152.984 170.715 154.982L113.786 187.855C110.325 189.855 106.398 190.908 102.4 190.908C98.403 190.908 94.476 189.855 91.0146 187.855L34.0859 154.982C27.0384 150.919 22.7002 143.398 22.7002 135.266V69.5283C22.7001 65.5312 23.7524 61.6042 25.751 58.1426C27.7496 54.6811 30.6243 51.807 34.0859 49.8086L91.0146 16.9434C94.4758 14.9433 98.4029 13.8906 102.4 13.8906ZM136.556 73.9453C135.046 73.9454 133.598 74.5457 132.53 75.6133C131.463 76.6807 130.863 78.1282 130.863 79.6377V85.3291H119.479V79.6377C119.478 78.1281 118.878 76.6807 117.811 75.6133C116.743 74.5457 115.295 73.9453 113.785 73.9453C112.275 73.9454 110.827 74.5458 109.76 75.6133C108.693 76.6807 108.093 78.1283 108.093 79.6377V85.332H102.398C100.889 85.3321 99.4406 85.9325 98.373 87C97.3057 88.0675 96.7061 89.5158 96.7061 91.0254C96.7062 92.5348 97.3058 93.9824 98.373 95.0498C99.4406 96.1173 100.889 96.7177 102.398 96.7178H108.093V108.103H102.398C100.889 108.103 99.4406 108.703 98.373 109.771C97.3058 110.838 96.7062 112.285 96.7061 113.795C96.7061 115.305 97.3057 116.753 98.373 117.82C99.4406 118.888 100.889 119.488 102.398 119.488H108.096V125.179C108.094 125.927 108.24 126.668 108.525 127.359C108.811 128.051 109.23 128.679 109.759 129.208C110.288 129.737 110.916 130.157 111.607 130.442C112.299 130.728 113.039 130.874 113.787 130.873C114.535 130.875 115.277 130.729 115.969 130.443C116.66 130.158 117.288 129.738 117.817 129.209C118.346 128.68 118.766 128.052 119.052 127.36C119.337 126.669 119.483 125.927 119.481 125.179V119.488H130.866V125.179C130.868 126.688 131.468 128.136 132.534 129.205C133.062 129.735 133.689 130.156 134.38 130.442C135.071 130.729 135.812 130.877 136.56 130.877C137.307 130.877 138.048 130.729 138.738 130.442C139.429 130.156 140.056 129.735 140.584 129.205C141.654 128.139 142.252 126.69 142.252 125.179V119.488H147.946C148.694 119.489 149.435 119.342 150.126 119.057C150.817 118.771 151.446 118.351 151.975 117.822C152.504 117.293 152.923 116.665 153.209 115.974C153.495 115.283 153.641 114.542 153.641 113.794C153.636 112.285 153.031 110.84 151.964 109.773C150.897 108.707 149.451 108.106 147.942 108.103H142.248V96.7178H147.942C148.69 96.7173 149.431 96.569 150.121 96.2822C150.811 95.9955 151.438 95.5759 151.966 95.0469C152.496 94.5191 152.916 93.8917 153.203 93.2012C153.49 92.5105 153.638 91.7694 153.638 91.0215C153.638 90.2737 153.49 89.5333 153.203 88.8428C152.916 88.1521 152.496 87.5249 151.966 86.9971C150.899 85.9273 149.451 85.3291 147.942 85.3291H142.248V79.6377C142.248 78.1282 141.648 76.6807 140.581 75.6133C139.513 74.5457 138.065 73.9453 136.556 73.9453ZM68.2461 73.9443C63.7164 73.9444 59.3719 75.7433 56.1689 78.9463C52.966 82.1493 51.167 86.4938 51.167 91.0234V113.794C51.1671 118.324 52.966 122.668 56.1689 125.871C59.3719 129.074 63.7164 130.873 68.2461 130.873C72.7757 130.873 77.1202 129.074 80.3232 125.871C83.5262 122.668 85.3261 118.324 85.3262 113.794C85.3262 112.284 84.7258 110.836 83.6582 109.769C82.5906 108.701 81.1426 108.102 79.6328 108.102C78.1232 108.102 76.6749 108.701 75.6074 109.769C74.54 110.836 73.9404 112.284 73.9404 113.794C73.9408 114.542 73.7938 115.283 73.5078 115.974C73.2218 116.665 72.8022 117.293 72.2734 117.821C71.7446 118.35 71.1167 118.77 70.4258 119.056C69.7348 119.342 68.9939 119.489 68.2461 119.488C67.498 119.49 66.7568 119.343 66.0654 119.058C65.374 118.772 64.7458 118.352 64.2168 117.823C63.6878 117.294 63.2681 116.666 62.9824 115.975C62.6968 115.283 62.5505 114.542 62.5518 113.794V91.0195L62.5557 91.0234C62.5557 89.5137 63.1551 88.0656 64.2227 86.998C65.2902 85.9305 66.7383 85.3311 68.248 85.3311C69.7578 85.3311 71.2059 85.9305 72.2734 86.998C73.2743 87.9989 73.8638 89.3342 73.9336 90.7412L73.9473 91.3057C74.0171 92.7126 74.6067 94.048 75.6074 95.0488C76.6749 96.1163 78.1232 96.7157 79.6328 96.7158C81.1425 96.7158 82.5907 96.1162 83.6582 95.0488C84.7257 93.9813 85.3261 92.5332 85.3262 91.0234C85.3262 86.4937 83.5263 82.1493 80.3232 78.9463C77.1202 75.7433 72.7758 73.9443 68.2461 73.9443ZM130.866 96.7178V108.103H119.481V96.7178H130.866Z" fill="white"/>
</svg>
