<svg width="205" height="205" viewBox="0 0 205 205" fill="none" xmlns="http://www.w3.org/2000/svg">
<path d="M69.5 196C86.888 196 101 181.888 101 164.5V133H69.5C52.112 133 38 147.112 38 164.5C38 181.888 52.112 196 69.5 196Z" fill="white"/>
<path d="M38 102C38 84.888 52.112 71 69.5 71H101V133H69.5C52.112 133 38 119.112 38 102Z" fill="white"/>
<path d="M38 39.5C38 22.112 52.112 8 69.5 8H101V71H69.5C52.112 71 38 56.888 38 39.5Z" fill="white"/>
<path d="M101 8H133C150.664 8 165 22.112 165 39.5C165 56.888 150.664 71 133 71H101V8Z" fill="white"/>
<path d="M165 102C165 119.112 150.664 133 133 133C115.336 133 101 119.112 101 102C101 84.888 115.336 71 133 71C150.664 71 165 84.888 165 102Z" fill="white"/>
</svg>
