<svg width="173" height="205" viewBox="0 0 173 205" fill="none" xmlns="http://www.w3.org/2000/svg">
<path d="M57.7239 194.774C65.8995 198.064 74.7691 200.017 84.0821 200.342C96.686 200.782 108.671 198.176 119.386 193.226C106.537 188.178 94.9007 180.796 84.9693 171.617C78.5316 181.925 69.0099 190.066 57.7239 194.774Z" fill="white"/>
<path d="M84.9674 171.62C62.2969 150.653 48.544 120.306 49.7063 87.0205C49.7441 85.9396 49.8011 84.8594 49.8678 83.7795C45.8076 82.7294 41.5688 82.0886 37.2066 81.9363C30.9626 81.7182 24.9158 82.4926 19.2071 84.1002C13.1553 94.7012 9.50326 106.865 9.0483 119.893C7.87415 153.517 28.2217 182.896 57.722 194.777C69.008 190.069 78.5294 181.937 84.9674 171.62Z" fill="white"/>
<path d="M84.9685 171.619C90.2393 163.184 93.4351 153.295 93.8071 142.641C94.7858 114.615 75.9451 90.5061 49.869 83.7786C49.8023 84.8585 49.7452 85.9387 49.7075 87.0196C48.5451 120.305 62.298 150.652 84.9685 171.619Z" fill="white"/>
<path d="M90.8909 5C76.0396 16.8978 64.3122 32.586 57.2169 50.6584C53.1547 61.0101 50.602 72.1295 49.8567 83.7854C75.9329 90.5129 94.7736 114.622 93.7949 142.648C93.4228 153.302 90.2177 163.181 84.9563 171.626C94.8874 180.814 106.524 188.187 119.373 193.235C145.163 181.314 163.461 155.661 164.521 125.319C165.207 105.66 157.654 88.1392 146.981 73.35C135.71 57.709 90.8909 5 90.8909 5Z" fill="white"/>
</svg>
