<svg width="151" height="151" viewBox="0 0 151 151" fill="none" xmlns="http://www.w3.org/2000/svg">
<path d="M144.322 69.13L81.8684 6.67984C78.2724 3.08231 72.4395 3.08231 68.8404 6.67984L55.8731 19.6503L72.3227 36.0999C76.146 34.8079 80.5297 35.675 83.5761 38.723C86.6413 41.7897 87.5006 46.2107 86.1758 50.048L102.032 65.903C105.87 64.5798 110.294 65.436 113.357 68.5042C117.638 72.7852 117.638 79.7218 113.357 84.0059C109.073 88.2883 102.137 88.2883 97.8511 84.0059C94.6318 80.7835 93.8348 76.0511 95.4678 72.0846L80.6791 57.2975V96.2104C81.7221 96.7272 82.7075 97.4153 83.5761 98.2839C87.857 102.565 87.857 109.502 83.5761 113.787C79.2952 118.066 72.3539 118.066 68.076 113.787C63.7951 109.5 63.7951 102.563 68.076 98.2839C69.1346 97.2269 70.3597 96.4268 71.6673 95.8913V56.6157C70.3597 56.0802 69.1377 55.2878 68.076 54.223C64.8334 50.982 64.0535 46.2216 65.7161 42.2396L49.4999 26.0203L6.67508 68.8405C3.07754 72.4411 3.07754 78.2741 6.67508 81.8716L69.1315 144.323C72.7275 147.921 78.5589 147.921 82.1595 144.323L144.322 82.1612C147.919 78.5636 147.919 72.7276 144.322 69.13Z" fill="white"/>
</svg>
