<svg width="232" height="227" viewBox="0 0 232 227" fill="none" xmlns="http://www.w3.org/2000/svg">
<path fill-rule="evenodd" clip-rule="evenodd" d="M116 0C51.91 0 0 51.91 0 116C0 167.33 33.205 210.685 79.315 226.055C85.115 227.07 87.29 223.59 87.29 220.545C87.29 217.79 87.145 208.655 87.145 198.94C58 204.305 50.46 191.835 48.14 185.31C46.835 181.975 41.18 171.68 36.25 168.925C32.19 166.75 26.39 161.385 36.105 161.24C45.24 161.095 51.765 169.65 53.94 173.13C64.38 190.675 81.055 185.745 87.725 182.7C88.74 175.16 91.785 170.085 95.12 167.185C69.31 164.285 42.34 154.28 42.34 109.91C42.34 97.295 46.835 86.855 54.23 78.735C53.07 75.835 49.01 63.945 55.39 47.995C55.39 47.995 65.105 44.95 87.29 59.885C96.57 57.275 106.43 55.97 116.29 55.97C126.15 55.97 136.01 57.275 145.29 59.885C167.475 44.805 177.19 47.995 177.19 47.995C183.57 63.945 179.51 75.835 178.35 78.735C185.745 86.855 190.24 97.15 190.24 109.91C190.24 154.425 163.125 164.285 137.315 167.185C141.52 170.81 145.145 177.77 145.145 188.645C145.145 204.16 145 216.63 145 220.545C145 223.59 147.175 227.215 152.975 226.055C198.795 210.685 232 167.185 232 116C232 51.91 180.09 0 116 0Z" fill="white"/>
</svg>
