<svg width="242" height="151" viewBox="0 0 242 151" fill="none" xmlns="http://www.w3.org/2000/svg">
<path d="M24.231 59.7371C23.7889 59.7371 23.6784 59.5155 23.8994 59.1832L26.2204 56.1924C26.4414 55.8601 26.9941 55.6385 27.4361 55.6385H66.8927C67.3348 55.6385 67.4453 55.9708 67.2243 56.3032L65.3454 59.1832C65.1244 59.5155 64.5718 59.8479 64.2402 59.8479L24.231 59.7371Z" fill="white"/>
<path d="M7.54207 69.9281C7.09998 69.9281 6.98945 69.7065 7.2105 69.3742L9.53147 66.3834C9.75252 66.0511 10.3051 65.8295 10.7472 65.8295H61.1456C61.5876 65.8295 61.8087 66.1618 61.6982 66.4942L60.814 69.1527C60.7035 69.5958 60.2614 69.8173 59.8193 69.8173L7.54207 69.9281Z" fill="white"/>
<path d="M34.2885 80.1191C33.8465 80.1191 33.7359 79.7868 33.957 79.4545L35.5043 76.6852C35.7253 76.3529 36.1674 76.0205 36.6095 76.0205H58.7141C59.1561 76.0205 59.3772 76.3529 59.3772 76.7959L59.1561 79.4545C59.1561 79.8976 58.7141 80.2299 58.3825 80.2299L34.2885 80.1191Z" fill="white"/>
<path d="M149.011 57.7432C142.048 59.5155 137.296 60.8448 130.443 62.6171C128.785 63.0602 128.675 63.171 127.238 61.5094C125.58 59.6263 124.365 58.4078 122.044 57.3001C115.081 53.8662 108.339 54.8631 102.039 58.9617C94.5234 63.8356 90.6551 71.0358 90.7656 80.0083C90.8761 88.8701 96.9549 96.181 105.686 97.3995C113.202 98.3964 119.502 95.7379 124.475 90.0886C125.47 88.8701 126.354 87.5408 127.459 85.99C123.48 85.99 118.507 85.99 106.128 85.99C103.807 85.99 103.255 84.55 104.028 82.6668C105.465 79.2329 108.118 73.4728 109.665 70.5927C109.997 69.9281 110.77 68.8204 112.428 68.8204C118.065 68.8204 138.843 68.8204 152.658 68.8204C152.437 71.8112 152.437 74.802 151.995 77.7929C150.779 85.7685 147.795 93.0794 142.932 99.5042C134.975 110.027 124.586 116.563 111.433 118.335C100.602 119.775 90.5446 117.671 81.7028 111.024C73.5241 104.821 68.8821 96.6241 67.6664 86.4331C66.2296 74.359 69.7663 63.5033 77.0608 53.9769C84.9079 43.6752 95.2971 37.1396 108.007 34.8134C118.396 32.9303 128.343 34.1488 137.296 40.2412C143.153 44.1183 147.353 49.4353 150.116 55.8601C150.779 56.857 150.337 57.4109 149.011 57.7432Z" fill="white"/>
<path d="M185.594 119C175.536 118.778 166.363 115.898 158.627 109.252C152.106 103.603 148.016 96.4025 146.69 87.8731C144.701 75.3559 148.127 64.2787 155.642 54.42C163.711 43.7859 173.437 38.2474 186.589 35.9211C197.862 33.9273 208.472 35.035 218.088 41.5705C226.819 47.5522 232.235 55.6385 233.671 66.2726C235.55 81.2268 231.24 93.4117 220.961 103.824C213.667 111.246 204.714 115.898 194.436 118.003C191.452 118.557 188.468 118.668 185.594 119ZM211.898 74.2482C211.788 72.8082 211.788 71.7004 211.567 70.5927C209.577 59.6263 199.52 53.4231 189.02 55.8601C178.742 58.1863 172.11 64.7218 169.679 75.1344C167.689 83.7746 171.889 92.5255 179.847 96.0702C185.926 98.7288 192.004 98.3964 197.862 95.4056C206.593 90.864 211.346 83.7746 211.898 74.2482Z" fill="white"/>
</svg>
