<svg width="162" height="162" viewBox="0 0 162 162" fill="none" xmlns="http://www.w3.org/2000/svg">
<path d="M70.2682 103.874L38.6192 103.484L11.8949 86.863L26.304 12L97.7922 32.4989L70.2682 103.874ZM34.8314 33.1696L29.953 58.5686L61.0645 67.4897L56.6303 78.7587L45.857 78.5903L36.6306 73.0239L38.0433 65.6988L29.1544 63.15L26.215 77.5957L43.1717 87.955L43.3304 88.0005L43.343 87.9564L63.0405 88.1552L63.6544 86.6133L72.5003 63.5548L73.5005 61.2642L40.8016 51.888L42.6473 42.4541L76.9335 52.2855L77.6383 50.4263L79.4353 45.9595L80.2765 43.6244L35.3554 30.7435L34.8314 33.1696Z" fill="white"/>
<g clip-path="url(#clip0_34_65)">
<path d="M132.576 65.0263C135.647 64.4294 138.83 65.0767 141.423 66.8262C144.017 68.5759 145.811 71.2848 146.408 74.3563L155.975 123.576C156.572 126.647 155.924 129.83 154.174 132.424C152.425 135.018 149.717 136.811 146.645 137.408L97.4258 146.975C94.3543 147.572 91.1709 146.924 88.5769 145.174C85.9831 143.425 84.1906 140.716 83.5936 137.645L71.7751 76.8447L132.576 65.0263ZM127.97 108.935C125.178 106.635 119.308 107.904 117.571 111.015C115.67 113.632 116.555 119.006 118.684 121.119C119.631 122.073 121.015 122.788 122.837 123.261C124.117 123.618 126.496 124.053 127.301 124.914C128.379 125.762 128.776 128.416 128.338 129.447C128.111 130.009 127.599 130.367 126.804 130.521C125.047 131.005 123.919 129.178 123.638 126.985L118.601 127.964C119.425 132.959 122.442 136.176 127.579 135.104L127.578 135.103C134.781 134.016 135.24 125.719 131.323 121.106C130.017 119.596 127.053 118.715 124.777 118.304C122.997 117.869 122.152 117.267 121.787 115.471C121.458 113.777 122.002 112.792 123.419 112.516C124.215 112.361 124.807 112.518 125.195 112.986C125.723 113.525 126.152 115.201 126.315 116.26L131.166 115.317C130.787 112.737 129.638 110.077 127.97 108.935ZM144.239 105.773C141.447 103.473 135.577 104.741 133.84 107.852C131.938 110.469 132.824 115.843 134.952 117.956C135.899 118.911 137.283 119.625 139.105 120.099C140.386 120.455 142.765 120.891 143.57 121.752C144.648 122.599 145.044 125.254 144.606 126.285C144.379 126.846 143.867 127.204 143.072 127.359C141.316 127.843 140.188 126.016 139.907 123.823L134.869 124.802C135.692 129.797 138.71 133.014 143.847 131.942L143.847 131.941C151.05 130.854 151.508 122.556 147.592 117.944C146.286 116.434 143.322 115.552 141.046 115.141C139.265 114.707 138.421 114.105 138.056 112.308C137.726 110.614 138.27 109.629 139.688 109.354C140.483 109.199 141.076 109.356 141.463 109.823C141.992 110.362 142.42 112.039 142.583 113.098L147.434 112.155C147.055 109.575 145.906 106.915 144.239 105.773ZM111.475 112.123C108.442 109.949 102.511 111.258 100.424 114.232C99.2405 115.781 98.8864 117.778 99.3611 120.22L101.73 132.408C102.612 137.236 105.988 139.295 110.638 138.396C115.745 137.469 118.048 133.335 116.698 128.334L111.362 129.372C111.597 130.358 111.783 131.748 111.383 132.47C111.112 133.066 110.616 133.435 109.895 133.575C108.348 133.851 107.358 132.878 106.927 130.659L104.87 120.079C104.642 118.908 104.639 117.99 104.858 117.327C105.191 116.118 107.233 115.592 108.221 116.499C108.937 116.966 109.292 118.507 109.451 119.539L114.787 118.502C114.42 115.868 113.291 113.189 111.475 112.123Z" fill="white"/>
</g>
<defs>
<clipPath id="clip0_34_65">
<rect width="73.7359" height="73.7359" fill="white" transform="translate(71.7751 76.8447) rotate(-11)"/>
</clipPath>
</defs>
</svg>
