<svg width="166" height="166" viewBox="0 0 166 166" fill="none" xmlns="http://www.w3.org/2000/svg">
<path d="M81.7896 86.1055C78.3382 80.5411 75.8343 75.9277 72.3656 67.2403C66.5003 52.5666 108.038 39.3074 91.1962 13.8298C98.4968 31.4293 64.9924 42.3092 61.8799 56.9656C59.0337 70.4462 81.7723 86.1055 81.7896 86.1055Z" fill="white"/>
<path d="M82.578 59.7255C81.914 68.4266 90.2866 73.0643 90.5287 79.4207C90.7224 84.5943 85.5245 88.9069 85.5245 88.9069C85.5245 88.9069 94.9589 87.0532 97.9019 79.1613C101.17 70.3979 91.5593 64.3977 92.5484 57.3807C93.4718 50.6785 113.406 38.2112 113.406 38.2112C113.406 38.2112 84.0755 40.1548 82.578 59.7255Z" fill="white"/>
<path d="M110.957 86.6486C117.023 85.286 122.138 89.149 122.138 93.5999C122.138 103.633 108.232 113.115 108.232 113.115C108.232 113.115 129.76 110.549 129.76 94.0771C129.76 83.1834 119.188 80.4617 110.957 86.6486ZM100.738 94.7411C100.738 94.7411 107.45 89.9583 109.238 88.1634C92.7663 91.6598 55.1569 92.1301 55.1569 89.0937C55.1569 86.2959 67.2853 83.4289 67.2853 83.4289C67.2853 83.4289 40.4037 83.0416 40.4037 90.9715C40.4037 99.237 75.5922 99.8283 100.738 94.7411Z" fill="white"/>
<path d="M96.6085 102.266C81.0149 107.45 52.2934 105.794 60.8009 98.8323C56.6579 98.8323 50.5159 102.163 50.5159 105.365C50.5159 111.787 81.5786 116.746 104.57 107.343L96.6085 102.266Z" fill="white"/>
<path d="M64.6225 113.222C58.9646 113.222 55.3022 116.868 55.3022 119.524C55.3022 127.792 89.0556 128.626 102.429 120.232L93.9284 114.588C83.9372 118.981 58.8401 119.586 64.6225 113.222Z" fill="white"/>
<path d="M125.472 126.686C125.472 123.449 121.823 121.924 120.516 121.194C128.221 139.776 43.3364 138.333 43.3364 127.364C43.3364 124.87 49.5856 122.429 55.361 123.584L50.4502 120.682C38.9408 118.877 31.125 123.936 31.125 128.017C31.125 147.048 125.472 146.132 125.472 126.686Z" fill="white"/>
<path d="M134.875 133.506C120.537 147.667 84.1793 152.827 47.6178 144.078C84.1793 159.651 134.702 150.88 134.875 133.506Z" fill="white"/>
</svg>
