<svg width="150" height="150" viewBox="0 0 150 150" fill="none" xmlns="http://www.w3.org/2000/svg">
<path d="M148 2V148H2V2H148ZM113.122 68.2539C100.87 68.254 93.0305 76.0867 93.0303 86.376C93.0303 97.546 99.6068 102.83 109.507 107.048L112.937 108.52C119.193 111.256 122.925 112.923 122.925 117.627C122.925 121.553 119.294 124.394 113.609 124.395C106.843 124.395 103.016 120.865 100.075 116.063L88.9258 122.54C92.9535 130.498 101.185 136.57 113.927 136.57C126.958 136.57 136.661 129.803 136.661 117.451C136.661 105.994 130.079 100.897 118.422 95.8984L114.992 94.4297C109.106 91.8806 106.557 90.2142 106.557 86.0986C106.557 82.7685 109.104 80.2188 113.122 80.2188C117.062 80.2188 119.6 81.8809 121.952 86.0986L132.635 79.2383C128.116 71.2897 121.845 68.2539 113.122 68.2539ZM67.79 69.0371V115.688C67.79 122.545 64.9469 124.309 60.4395 124.309C55.7258 124.309 53.7655 121.076 51.6104 117.252L40.4424 124.013C43.6776 130.86 50.0387 136.545 61.0234 136.545C73.1808 136.545 81.5098 130.079 81.5098 115.873V69.0371H67.79Z" fill="white"/>
</svg>
