<svg width="241" height="193" viewBox="0 0 241 193" fill="none" xmlns="http://www.w3.org/2000/svg">
<path d="M114.5 0C151.2 0 161.6 0.400391 176 1.90039C195.2 3.80039 211.4 10.9997 222.7 22.5996C234.2 34.3996 240.3 50.3004 240.3 68.4004V72C240.3 102.9 219.7 128.7 190.9 135.8C188.8 140.9 186.1 145.9 182.9 150.9C172.8 166.7 148.9 193 103.3 193H96L96.0996 192.9C61.0998 192.9 32.6003 177.2 15.9004 148.8C1.20039 123.9 0 96.8998 0 66.7998C2.37249e-05 36.7001 5.40008 33.3001 15.5 21.7002C24.8999 11.1003 38.0999 4.20044 52.7998 2.40039C70.2998 0.100391 92 0 114.5 0ZM114.6 15.2002C77.7999 15.2002 70.8998 15.4 54.7998 17.5C33.3999 20.2001 15.2003 36.6 15.2002 66.7998C15.2002 96.9996 16.7998 120.5 29.0996 141.1C42.9996 164.7 66.2002 177.7 96.2002 177.7H103.5C140.3 177.7 160.3 158.1 170.3 142.7C174.6 135.9 177.8 129.1 179.8 122.2C205.9 119.9 225.3 98.3 225.3 72V68.4004C225.3 40.0004 206.7 20.2 174.6 17C161 15.6 151.399 15.2002 114.6 15.2002Z" fill="white"/>
<path d="M114.6 32.2998C151.399 32.2998 159.1 32.8004 172.1 33.9004C195 36.6004 208.2 47.8004 208.2 68.9004V72.2998C208.2 91.0998 192.5 105.9 174.3 105.9H166.1L164.7 111.6C162.9 120.5 159.5 127.5 155.6 133.9C147.7 146.4 133.399 160.7 103.8 160.7H96.7998C74.2999 160.7 54.4996 152.9 43.5996 132.7C34.2996 115.747 32.3197 97.4799 32.2051 69.7168L32.2998 67.0996C32.2999 47.9999 39.8003 37.2996 58.7002 34.5996C72.0999 32.4997 77.8002 32.2998 114.6 32.2998ZM121.6 53.7998C105.9 53.7999 105.9 58.6002 101.1 65.2002C96.7997 58.6003 90.2002 53.7999 80.9004 53.7998C65.0005 53.7998 54.5001 66.7999 54.5 81.2998C54.5 94.6998 62 106.3 71.5 115.4C77.9 121.5 87.9003 127.9 94.7002 132C96.7 133.1 98.7998 133.8 101.1 133.8C103.4 133.8 106.1 133.1 107.9 132C114.7 127.9 124.7 121.5 130.9 115.4C140.7 106.3 148.2 94.6998 148.2 81.2998C148.2 67.8999 137.3 53.7998 121.6 53.7998ZM171.9 52.2998C166.201 52.2998 166.2 54.2998 166.2 57.0996V82.7002C166.2 85.4001 168.2 87.5 171.9 87.5C183.5 87.4998 189.9 80.8999 189.9 70C189.9 59.1002 183.5 52.3 171.9 52.2998Z" fill="white"/>
</svg>
