<svg width="112" height="132" viewBox="0 0 112 132" fill="none" xmlns="http://www.w3.org/2000/svg">
<path d="M54.1744 33.5412C54.1744 33.9643 53.7534 33.9643 53.7534 33.9643H53.3323C52.9113 33.9643 52.9113 33.5412 52.4902 33.1181C52.4902 33.1181 52.0692 32.695 52.0692 32.272C52.0692 31.8489 52.0692 31.8489 52.4902 31.8489L53.3323 32.272C53.7534 32.695 54.1744 33.1181 54.1744 33.5412ZM46.5955 29.3104C46.5955 27.195 45.7534 25.9258 44.4902 25.9258C44.4902 25.9258 44.4902 26.3489 44.0692 26.3489V27.195H45.3323C45.3323 28.0412 45.7534 28.4643 45.7534 29.3104H46.5955ZM61.3323 27.195C62.1744 27.195 62.5955 28.0412 63.0165 29.3104H63.8586C63.4376 28.8873 63.4376 28.4643 63.4376 28.0412C63.4376 27.6181 63.4376 27.195 63.0165 26.772C62.5955 26.3489 62.1744 25.9258 61.7534 25.9258C61.7534 25.9258 61.3323 26.3489 60.9113 26.3489C60.9113 26.772 61.3323 26.772 61.3323 27.195ZM48.7007 33.9643C48.2797 33.9643 48.2797 33.9643 48.2797 33.5412C48.2797 33.1181 48.2797 32.695 48.7007 32.272C49.5428 32.272 49.9639 31.8489 49.9639 31.8489C50.3849 31.8489 50.3849 32.272 50.3849 32.272C50.3849 32.695 49.9639 33.1181 49.1218 33.9643H48.7007ZM44.0692 33.5412C42.3849 32.695 41.9639 31.4258 41.9639 29.3104C41.9639 28.0412 41.9639 27.195 42.806 26.3489C43.2271 25.5027 44.0692 25.0797 44.9113 25.0797C45.7534 25.0797 46.1744 25.5027 47.0165 26.3489C47.4376 27.6181 47.8586 28.8873 47.8586 30.1566V31.0027H48.2797V30.5797C48.7007 30.5797 48.7007 29.7335 48.7007 28.0412C48.7007 26.772 48.7007 25.5027 47.8586 24.2335C47.0165 22.9643 46.1744 22.1181 44.4902 22.1181C43.2271 22.1181 41.9639 22.9643 41.5428 24.2335C40.7007 25.9258 40.5323 27.195 40.5323 29.3104C40.5323 31.0027 41.1218 32.695 42.806 34.3873C43.2271 33.9643 43.6481 33.9643 44.0692 33.5412ZM96.7007 93.195C97.1218 93.195 97.1218 93.0258 97.1218 92.645C97.1218 91.7143 96.7007 90.6143 95.4376 89.3873C94.1744 88.1181 92.0692 87.3143 89.5428 86.9758C89.1218 86.9335 88.7007 86.9335 88.7007 86.9335C88.2797 86.8489 88.2797 86.8489 87.8586 86.8489C87.4376 86.8066 86.5955 86.722 86.1744 86.6373C87.4376 82.7027 87.8586 79.2335 87.8586 76.1873C87.8586 71.9566 87.0165 68.995 85.3323 66.4566C83.6481 63.9181 81.9639 62.6489 79.8586 62.2258C79.4376 62.6489 79.4376 62.6489 79.4376 63.072C81.5428 63.9181 83.6481 65.6104 84.9113 68.1489C86.1744 71.1104 86.5955 73.6489 86.5955 76.6104C86.5955 78.9797 86.1744 82.4912 84.4902 86.9758C82.806 87.6527 81.1218 89.2181 79.8586 91.672C79.8586 92.0527 79.8586 92.2643 80.2797 92.2643C80.2797 92.2643 80.7007 91.8835 81.1218 91.1643C81.9639 90.445 82.3849 89.7258 83.2271 89.0066C84.4902 88.2874 85.3323 87.9066 86.5955 87.9066C88.7007 87.9066 90.806 88.2027 92.0692 88.795C93.7534 89.345 94.5955 89.9374 95.0165 90.6143C95.4376 91.2489 95.8586 91.8412 96.2797 92.3912C96.2797 92.9412 96.7007 93.195 96.7007 93.195ZM57.9639 31.8489C57.5428 31.4258 57.5428 30.5797 57.5428 29.7335C57.5428 28.0412 57.5428 27.195 58.3849 25.9258C59.227 25.0797 60.0692 24.6566 60.9113 24.6566C62.1744 24.6566 63.0165 25.5027 63.8586 26.3489C64.2797 27.6181 64.7007 28.4643 64.7007 29.7335C64.7007 31.8489 63.8586 33.1181 62.1744 33.5412C62.1744 33.5412 62.5955 33.9643 63.0165 33.9643C63.8586 33.9643 64.2797 34.3873 65.1218 34.8104C65.5428 32.272 65.9639 30.5797 65.9639 28.4643C65.9639 25.9258 65.5428 24.2335 64.7007 22.9643C63.4376 21.695 62.1744 21.272 60.4902 21.272C59.227 21.272 57.9639 21.695 56.7007 22.5412C55.8586 23.8104 55.4376 24.6566 55.4376 25.9258C55.4376 28.0412 55.8586 29.7335 56.7007 31.4258C57.1218 31.4258 57.5428 31.8489 57.9639 31.8489ZM63.0165 38.6181C57.5428 42.4258 53.3323 44.1181 49.9639 44.1181C47.0165 44.1181 44.0692 42.8489 41.5428 40.7335C41.9639 41.5797 42.3849 42.4258 42.806 42.8489L45.3323 45.3873C47.0165 47.0797 49.1218 47.9258 51.2271 47.9258C54.1744 47.9258 57.5428 46.2335 61.7534 43.272L65.5428 40.7335C66.3849 39.8873 67.227 39.0412 67.227 37.772C67.227 37.3489 67.227 36.9258 66.806 36.9258C66.3849 36.0797 64.2797 34.8104 60.0692 33.5412C56.2797 31.8489 53.3323 31.0027 51.6481 31.0027C50.3849 31.0027 48.2797 31.8489 45.3323 33.5412C42.806 35.2335 41.1218 36.9258 41.1218 38.6181C41.1218 38.6181 41.5428 39.0412 41.9639 39.8873C44.4902 42.0027 47.0165 43.272 49.5428 43.272C52.9113 43.272 57.1218 41.5797 62.5955 37.3489V38.195C63.0165 38.195 63.0165 38.6181 63.0165 38.6181ZM72.7007 124.08C74.3849 127.261 77.3323 128.86 80.7007 128.86C81.5428 128.86 82.3849 128.733 83.2271 128.48C84.0692 128.31 84.9113 128.014 85.3323 127.676C85.7534 127.38 86.1744 127.084 86.5955 126.745C87.4376 126.449 87.4376 126.237 87.8586 126.026L95.0165 119.807C96.7007 118.457 98.3849 117.277 100.49 116.253C102.174 115.237 103.859 114.56 104.701 114.18C105.964 113.841 106.806 113.333 107.648 112.657C108.069 112.022 108.49 111.218 108.49 110.203C108.49 108.976 107.648 108.045 106.806 107.368C105.964 106.691 105.122 106.226 104.28 105.93C103.438 105.634 102.595 104.957 101.332 103.814C100.49 102.714 99.6481 101.191 99.2271 99.2027L98.806 96.7489C98.3849 95.6066 98.3849 94.7604 97.9639 94.295C97.9639 94.1681 97.9639 94.1258 97.5428 94.1258C97.1218 94.1258 96.2797 94.5066 95.8586 95.2258C95.0165 95.945 94.1744 96.7489 93.3323 97.595C92.9113 98.4412 91.6481 99.2027 90.806 99.922C89.5428 100.641 88.2797 101.022 87.4376 101.022C84.0692 101.022 82.3849 100.091 81.1218 98.272C80.2797 96.9181 79.8586 95.3527 79.4376 93.5758C78.5955 92.8566 78.1744 92.4758 77.3323 92.4758C75.2271 92.4758 74.3849 94.6758 74.3849 99.1181V112.276C74.3849 112.657 73.9639 113.503 73.9639 114.814C73.5428 116.126 73.5428 117.615 73.5428 119.299L72.7007 123.995V124.067M11.6481 121.829C15.5639 122.404 20.0692 123.635 25.1639 125.514C30.2586 127.375 33.3744 128.348 34.5113 128.348C37.4586 128.348 39.9007 127.037 41.9218 124.503C42.3428 123.682 42.3428 122.717 42.3428 121.609C42.3428 117.611 39.9428 112.555 35.1428 106.42L32.2797 102.57C31.6902 101.767 30.9744 100.54 30.0481 98.8897C29.1639 97.2397 28.3639 95.9704 27.7323 95.082C27.1849 94.1089 26.3007 93.1358 25.1639 92.1627C24.0692 91.1897 22.806 90.555 21.4165 90.2166C19.6481 90.555 18.427 91.1473 17.8376 91.9512C17.2481 92.755 16.9113 93.6435 16.827 94.5743C16.7007 95.4627 16.4481 96.055 16.027 96.3512C15.606 96.605 14.8902 96.8166 13.9218 97.0281C13.7113 97.0281 13.3323 97.0281 12.7849 97.0704H11.6481C9.41652 97.0704 7.90073 97.3243 7.10073 97.7474C6.0481 98.9743 5.50073 100.37 5.50073 101.851C5.50073 102.528 5.66915 103.67 6.00599 105.278C6.34284 106.844 6.51126 108.113 6.51126 109.001C6.51126 110.736 6.00599 112.47 4.95336 114.205C3.90073 116.024 3.35336 117.378 3.35336 118.343C3.77442 119.984 6.55336 121.139 11.6481 121.816M25.6692 83.3585C25.6692 80.4393 26.4271 77.2239 27.9849 73.4162C29.5007 69.6085 31.0165 67.07 32.4902 65.3777C32.406 64.9547 32.1955 64.9547 31.8586 64.9547L31.4376 64.5316C30.2165 65.8008 28.7428 68.7623 26.9744 72.9931C25.206 76.8008 24.2797 80.3124 24.2797 82.8931C24.2797 84.797 24.7428 86.447 25.5849 87.8854C26.5113 89.2816 28.7428 91.3124 32.2797 93.8931L36.7428 96.8123C41.5007 100.959 44.0271 103.835 44.0271 105.528C44.0271 106.416 43.606 107.305 42.3428 108.278C41.5007 109.293 40.3639 109.801 39.3955 109.801C39.3113 109.801 39.2692 109.885 39.2692 110.097C39.2692 110.139 39.6902 110.985 40.5744 112.635C42.3428 115.047 46.1323 116.232 51.1849 116.232C60.4481 116.232 67.606 112.424 73.0797 104.809C73.0797 102.693 73.0797 101.382 72.6586 100.832V99.2662C72.6586 96.5162 73.0797 94.4431 73.9218 93.0893C74.7639 91.7354 75.606 91.1008 76.8692 91.1008C77.7113 91.1008 78.5534 91.397 79.3955 92.0316C79.8165 88.7739 79.8165 85.9393 79.8165 83.4008C79.8165 79.5508 79.8165 76.3777 78.9744 73.4162C78.5534 70.8777 77.7113 68.7623 76.8692 67.07L74.3428 63.2623C73.5007 61.9931 73.0797 60.7239 72.2376 59.4547C71.8165 57.7623 71.3955 56.4931 71.3955 54.3777C70.1323 52.2623 69.2902 50.147 68.027 48.0316C67.1849 45.9162 66.3428 43.8008 65.5007 42.1085L61.7113 45.07C57.5007 48.0316 54.1323 49.3008 51.1849 49.3008C48.6586 49.3008 46.5534 48.8777 45.2902 47.1854L42.7639 45.07C42.7639 46.3393 42.3428 48.0316 41.5007 49.7239L38.8481 54.8008C37.6692 57.7623 37.0376 59.4547 36.9113 60.7239C36.7428 61.57 36.6165 62.4162 36.5323 62.4162L33.3744 68.7623C29.9639 75.1085 28.2376 80.9893 28.2376 85.8547C28.2376 86.8277 28.3218 87.8431 28.4902 88.8585C26.5955 87.547 25.6692 85.7277 25.6692 83.3585ZM55.8165 123.382C50.3428 123.382 46.1323 124.126 43.1849 125.603V125.476C41.0797 128.014 38.7218 129.326 35.4376 129.326C33.3744 129.326 30.1323 128.522 25.7534 126.914C21.3323 125.391 17.4165 124.223 14.006 123.453C13.6692 123.356 12.9113 123.212 11.6902 123.018C10.5113 122.827 9.41652 122.633 8.4481 122.438C7.56389 122.248 6.55336 121.96 5.45863 121.571C4.40599 121.237 3.56389 120.801 2.93231 120.272C2.35126 119.739 2.06494 119.138 2.06494 118.465C2.06494 117.789 2.2081 117.065 2.49442 116.295C2.76389 115.83 3.05863 115.364 3.35336 114.941C3.6481 114.476 3.90073 114.053 4.06915 113.63C4.32178 113.249 4.4902 112.868 4.65863 112.445C4.82705 112.064 4.99547 111.683 5.07968 111.218C5.16389 110.795 5.2481 110.372 5.2481 109.949C5.2481 109.526 5.07968 108.257 4.74284 106.014C4.40599 103.814 4.23757 102.418 4.23757 101.826C4.23757 99.9643 4.65863 98.4835 5.58494 97.4258C6.51126 96.3681 7.39547 95.8181 8.32178 95.8181H13.1639C13.5428 95.8181 14.1323 95.6066 15.0165 95.0989C15.3113 94.422 15.5639 93.872 15.7323 93.3643C15.9428 92.8566 16.027 92.4758 16.1113 92.3066C16.1955 92.0527 16.2797 91.7989 16.3639 91.5873C16.5323 91.2912 16.7428 90.9527 17.0376 90.6143C16.7007 90.1912 16.5323 89.6412 16.5323 88.9643C16.5323 88.4989 16.5323 88.0758 16.6165 87.822C16.6165 86.2989 17.3323 84.1412 18.8481 81.3066L20.3218 78.6412C21.5428 76.3566 22.4692 74.6643 23.1428 72.972C23.8586 71.2797 24.6165 68.7412 25.4586 65.3566C26.1323 62.395 27.7323 59.4335 30.2586 56.472L33.4165 52.6643C35.606 50.1258 37.0376 48.0104 37.8376 46.3181C38.6376 44.6258 39.0586 42.5104 39.0586 40.8181C39.0586 39.972 38.8481 37.4335 38.3849 33.2027C37.9639 28.972 37.7534 24.7412 37.7534 20.9335C37.7534 17.972 38.006 15.8566 38.5534 13.7412C39.1007 11.6258 40.0692 9.51042 41.5007 7.81812C42.7639 6.12581 44.4481 4.4335 46.9744 3.58735C49.5007 2.74119 52.4481 2.31812 55.8165 2.31812C57.0797 2.31812 58.3428 2.31812 59.606 2.74119C60.8692 2.74119 62.5534 3.16427 64.6586 4.01042C66.3428 4.85658 68.027 5.70273 69.2902 6.97196C70.9744 8.24119 72.2376 10.3566 73.5007 12.472C74.3428 15.0104 75.1849 17.5489 75.606 20.9335C76.027 23.0489 76.027 25.1643 76.4481 28.1258C76.4481 30.6643 76.8692 32.3566 76.8692 33.6258C77.2902 34.895 77.2902 36.5873 77.7113 38.7027C78.1323 40.395 78.5534 42.0873 79.3955 43.3566C80.2376 45.0489 81.0797 46.7412 82.3428 48.4335C83.606 50.5489 85.2902 52.6643 86.9744 55.2027C90.7639 59.4335 93.7113 64.0873 95.3955 68.7412C97.5007 72.972 98.7639 78.472 98.7639 84.3527C98.7639 87.272 98.3428 90.1066 97.5007 92.8566C98.3428 92.8566 98.7639 93.195 99.1849 93.7874C99.606 94.3797 100.027 95.6489 100.448 97.6373L100.869 100.768C101.29 101.699 101.711 102.587 102.974 103.349C103.817 104.11 104.659 104.745 105.922 105.253C106.764 105.676 108.027 106.268 108.869 107.03C109.711 107.876 110.132 108.764 110.132 109.695C110.132 111.134 109.711 112.191 108.869 112.953C108.027 113.799 107.185 114.391 105.922 114.772C105.08 115.195 103.395 116.041 100.869 117.234C98.7639 118.487 96.6586 120.005 94.5534 121.803L90.3428 125.404C88.6586 127.054 86.9744 128.238 85.7113 128.958C84.4481 129.719 82.7639 130.1 81.0797 130.1L78.1323 129.762C74.7639 128.873 72.6586 127.181 71.3955 124.6C64.6586 123.779 59.1849 123.373 55.8165 123.373" fill="white"/>
</svg>
