<svg width="140" height="140" viewBox="0 0 140 140" fill="none" xmlns="http://www.w3.org/2000/svg">
<g clip-path="url(#clip0_34_118)">
<path d="M65.4154 0.0376745C65.1144 0.065041 64.1564 0.160824 63.2942 0.22924C43.4096 2.02174 24.784 12.7494 12.9873 29.2377C6.41838 38.4054 2.21701 48.8047 0.629521 59.8197C0.0684262 63.6647 0 64.8004 0 70.0137C0 75.227 0.0684262 76.3627 0.629521 80.2077C4.43402 106.493 23.1417 128.578 48.5142 136.76C53.0577 138.225 57.8475 139.223 63.2942 139.826C65.4154 140.058 74.5846 140.058 76.7058 139.826C86.1075 138.786 94.0723 136.459 101.928 132.45C103.132 131.835 103.365 131.67 103.2 131.534C103.091 131.451 97.9589 124.569 91.8006 116.249L80.6061 101.129L66.5787 80.3719C58.8602 68.9601 52.5103 59.6281 52.4555 59.6281C52.4008 59.6145 52.346 68.8369 52.3187 80.0982C52.2776 99.8158 52.2639 100.609 52.0176 101.075C51.6618 101.745 51.3881 102.019 50.8133 102.32C50.3754 102.539 49.9922 102.58 47.9257 102.58H45.5582L44.9286 102.183C44.5181 101.923 44.217 101.581 44.0117 101.184L43.7243 100.568L43.7517 73.1335L43.7928 45.6849L44.217 45.1513C44.436 44.8639 44.9013 44.4945 45.2297 44.3166C45.7908 44.0429 46.0098 44.0156 48.3773 44.0156C51.1691 44.0156 51.6344 44.125 52.3597 44.9187C52.565 45.1376 60.1603 56.5768 69.2473 70.3558C78.3343 84.1348 90.7605 102.949 96.8641 112.185L107.949 128.975L108.51 128.605C113.478 125.376 118.733 120.778 122.893 115.989C131.748 105.823 137.455 93.4257 139.37 80.2077C139.932 76.3627 140 75.227 140 70.0137C140 64.8004 139.932 63.6647 139.37 59.8197C135.566 33.5342 116.858 11.4495 91.4858 3.26692C87.0107 1.81649 82.2483 0.817619 76.911 0.215556C75.5973 0.0787242 66.5513 -0.0717913 65.4154 0.0376745ZM94.0723 42.3736C94.7292 42.702 95.263 43.3314 95.4545 43.9882C95.564 44.344 95.5914 51.9518 95.564 69.0969L95.523 93.6994L91.1847 87.0493L86.8328 80.3993V62.5153C86.8328 50.953 86.8876 44.4534 86.9697 44.1387C87.1887 43.3725 87.6676 42.7704 88.3245 42.4146C88.8856 42.1273 89.0909 42.0999 91.2395 42.0999C93.2649 42.0999 93.6207 42.1273 94.0723 42.3736Z" fill="white"/>
</g>
<defs>
<clipPath id="clip0_34_118">
<rect width="140" height="140" fill="white"/>
</clipPath>
</defs>
</svg>
