<svg width="146" height="165" viewBox="0 0 146 165" fill="none" xmlns="http://www.w3.org/2000/svg">
<g clip-path="url(#clip0_34_197)">
<path d="M73 164.694C70.7329 164.694 68.617 164.089 66.6522 163.029L46.5507 151.077C43.528 149.412 45.0393 148.807 45.9462 148.504C50.0269 147.143 50.7826 146.84 55.0145 144.419C55.4679 144.117 56.0725 144.268 56.5259 144.57L71.942 153.8C72.5466 154.103 73.3023 154.103 73.7557 153.8L134.06 118.849C134.665 118.546 134.967 117.941 134.967 117.185V47.4336C134.967 46.6771 134.665 46.0719 134.06 45.7693L73.7557 10.9695C73.1511 10.6669 72.3954 10.6669 71.942 10.9695L11.6377 45.7693C11.0331 46.0719 10.7308 46.8284 10.7308 47.4336V117.185C10.7308 117.79 11.0331 118.546 11.6377 118.849L28.1118 128.381C37.029 132.92 42.6211 127.624 42.6211 122.329V53.4858C42.6211 52.578 43.3768 51.6701 44.4348 51.6701H52.1429C53.0497 51.6701 53.9565 52.4267 53.9565 53.4858V122.329C53.9565 134.282 47.4576 141.242 36.1222 141.242C32.646 141.242 29.9255 141.242 22.2174 137.459L6.34783 128.381C2.41822 126.111 0 121.875 0 117.336V47.5849C0 43.0458 2.41822 38.8093 6.34783 36.5398L66.6522 1.58869C70.4306 -0.529562 75.5694 -0.529562 79.3478 1.58869L139.652 36.5398C143.582 38.8093 146 43.0458 146 47.5849V117.336C146 121.875 143.582 126.111 139.652 128.381L79.3478 163.332C77.383 164.24 75.1159 164.694 73 164.694ZM91.5901 116.731C65.1408 116.731 59.6998 104.626 59.6998 94.3377C59.6998 93.4299 60.4555 92.5221 61.5135 92.5221H69.3727C70.2795 92.5221 71.0352 93.1273 71.0352 94.0351C72.2443 102.054 75.7205 105.988 91.7412 105.988C104.437 105.988 109.878 103.113 109.878 96.3047C109.878 92.3708 108.366 89.496 88.5673 87.5291C72.0932 85.8647 61.8157 82.2334 61.8157 69.07C61.8157 56.8145 72.0932 49.5519 89.323 49.5519C108.669 49.5519 118.19 56.2092 119.4 70.7344C119.4 71.1883 119.248 71.6422 118.946 72.0961C118.644 72.3987 118.19 72.7013 117.737 72.7013H109.878C109.122 72.7013 108.366 72.0961 108.215 71.3396C106.402 63.0179 101.716 60.2944 89.323 60.2944C75.4182 60.2944 73.7557 65.1361 73.7557 68.7674C73.7557 73.1552 75.7205 74.517 94.4617 76.9378C113.052 79.3587 121.818 82.8387 121.818 95.8508C121.667 109.165 110.785 116.731 91.5901 116.731Z" fill="white"/>
</g>
<defs>
<clipPath id="clip0_34_197">
<rect width="146" height="165" fill="white"/>
</clipPath>
</defs>
</svg>
