<svg width="255" height="256" viewBox="0 0 255 256" fill="none" xmlns="http://www.w3.org/2000/svg">
<g clip-path="url(#clip0_19_13)">
<path d="M128 0C198.7 0 256 57.3 256 128C256 198.7 198.7 256 128 256C57.3 256 0 198.7 0 128C0 57.3 57.3 0 128 0ZM108.9 186.3H150.7C186 186.3 207.5 160.2 207.5 132.7C207.5 107.4 190.1 79.0996 150.5 79.0996H108.9V186.3ZM70.9004 186.2H86.2998V79.0996H70.9004V186.2ZM148 93C178 93 191.7 111.2 191.7 132.7C191.7 145.9 183.7 172.4 148.8 172.4H124.3V93H148ZM78.5996 46.7002C72.9999 46.7004 68.5001 51.2 68.5 56.7998C68.5 62.2997 72.9998 66.9002 78.5996 66.9004C84.1996 66.9004 88.7002 62.2998 88.7002 56.7998C88.7001 51.2999 84.1995 46.7002 78.5996 46.7002Z" fill="white"/>
</g>
<defs>
<clipPath id="clip0_19_13">
<rect width="255" height="256" fill="white"/>
</clipPath>
</defs>
</svg>
