<svg width="140" height="140" viewBox="0 0 140 140" fill="none" xmlns="http://www.w3.org/2000/svg">
<path d="M68.8116 6.19563C63.5759 6.21998 58.576 6.66691 54.1766 7.44609C41.2163 9.73779 38.8633 14.5345 38.8633 23.3805V35.0633H69.4898V38.9576H38.8633H27.3694C18.4685 38.9576 10.6746 44.3124 8.23672 54.499C5.42471 66.1752 5.29998 73.4613 8.23672 85.6532C10.4138 94.7283 15.6128 101.195 24.5138 101.195H35.0439V87.1895C35.0439 77.0716 43.7902 68.1468 54.1766 68.1468H84.7674C93.2828 68.1468 100.081 61.1292 100.081 52.5697V23.3805C100.081 15.0731 93.0787 8.83256 84.7674 7.44609C79.5062 6.56951 74.0473 6.17128 68.8116 6.19563ZM52.249 15.5919C55.4125 15.5919 57.996 18.2199 57.996 21.4512C57.9959 24.671 55.4125 27.2748 52.249 27.2748C49.0742 27.2748 46.5021 24.671 46.5021 21.4512C46.5021 18.2199 49.0742 15.5919 52.249 15.5919Z" fill="white"/>
<path d="M103.985 39.1946V52.7031C103.985 63.1761 95.0644 71.9909 84.8916 71.9909H54.3629C46.0005 71.9909 39.0807 79.1143 39.0807 87.4494V116.417C39.0807 124.661 46.2834 129.51 54.3629 131.875C64.0378 134.707 73.3156 135.218 84.8916 131.875C92.5863 129.658 100.174 125.195 100.174 116.417V104.823H69.645V100.958H100.174H115.456C124.339 100.958 127.649 94.7911 130.738 85.5348C133.929 76.0057 133.793 66.8419 130.738 54.6177C128.543 45.8163 124.35 39.1946 115.456 39.1946H103.985ZM86.8152 112.552C89.9836 112.552 92.5505 115.136 92.5505 118.331C92.5505 121.538 89.9836 124.146 86.8152 124.146C83.6581 124.146 81.0799 121.538 81.0799 118.331C81.0799 115.136 83.6581 112.552 86.8152 112.552Z" fill="white"/>
</svg>
