<svg width="187" height="166" viewBox="0 0 187 166" fill="none" xmlns="http://www.w3.org/2000/svg">
<g clip-path="url(#clip0_34_58)">
<path d="M93.5 68.5C101.8 68.5 108.5 75.0072 108.5 83C108.5 90.9928 101.8 97.5 93.5 97.5C85.2001 97.5 78.5 90.9928 78.5 83C78.5 75.0072 85.2001 68.5 93.5 68.5Z" fill="white" stroke="white"/>
<path d="M93.5 114C138.511 114 175 100.121 175 83C175 65.8792 138.511 52 93.5 52C48.4888 52 12 65.8792 12 83C12 100.121 48.4888 114 93.5 114Z" stroke="white" stroke-width="8"/>
<path d="M66.5508 98.5238C89.0564 137.416 119.366 161.995 134.25 153.421C149.134 144.848 142.955 106.369 120.449 67.4761C97.9435 28.5836 67.6336 4.00519 52.75 12.5788C37.8663 21.1524 44.0452 59.6312 66.5508 98.5238Z" stroke="white" stroke-width="8"/>
<path d="M66.5509 67.4763C44.0453 106.369 37.8664 144.848 52.75 153.421C67.6336 161.995 97.9436 137.416 120.449 98.5239C142.955 59.6314 149.134 21.1525 134.25 12.5789C119.366 4.00536 89.0565 28.5837 66.5509 67.4763Z" stroke="white" stroke-width="8"/>
</g>
<defs>
<clipPath id="clip0_34_58">
<rect width="187" height="166" fill="white"/>
</clipPath>
</defs>
</svg>
