<svg width="232" height="232" viewBox="0 0 232 232" fill="none" xmlns="http://www.w3.org/2000/svg">
<g clip-path="url(#clip0_15_4)">
<path d="M115.79 0C54.769 0 4.75453 46.9926 0 106.704L62.2817 132.403C67.5616 128.81 73.9447 126.686 80.8007 126.686C81.4049 126.686 82.0353 126.686 82.6395 126.739L110.326 86.6689V86.092C110.326 61.9663 129.975 42.3511 154.141 42.3511C178.308 42.3511 197.957 61.9663 197.957 86.092C197.957 110.218 178.308 129.833 154.141 129.833C153.8 129.833 153.485 129.833 153.143 129.833L113.636 157.971C113.636 158.469 113.662 158.994 113.662 159.518C113.662 177.639 98.8995 192.35 80.7745 192.35C64.856 192.35 51.538 180.995 48.5172 165.969L3.99275 147.613C17.7835 196.31 62.5969 232 115.79 232C179.963 232 232 180.051 232 115.987C232 51.9227 179.963 0 115.79 0Z" fill="white"/>
<path d="M72.8153 176.013L58.5518 170.112C61.0735 175.357 65.4603 179.763 71.2655 182.201C83.8217 187.42 98.3217 181.467 103.549 168.932C106.097 162.875 106.097 156.161 103.575 150.078C101.054 143.994 96.3253 139.247 90.2574 136.704C84.2157 134.186 77.7538 134.291 72.0536 136.441L86.79 142.525C96.0626 146.38 100.423 157.001 96.5617 166.258C92.7003 175.514 82.0617 179.894 72.7891 176.013" fill="white"/>
<path d="M183.351 86.1181C183.351 70.0431 170.244 56.9575 154.141 56.9575C138.039 56.9575 124.931 70.0431 124.931 86.1181C124.931 102.193 138.039 115.253 154.141 115.253C170.244 115.253 183.351 102.167 183.351 86.1181ZM132.26 86.0657C132.26 73.9766 142.084 64.169 154.194 64.169C166.303 64.169 176.128 73.9766 176.128 86.0657C176.128 98.1548 166.303 107.962 154.194 107.962C142.084 107.962 132.26 98.1548 132.26 86.0657Z" fill="white"/>
</g>
<defs>
<clipPath id="clip0_15_4">
<rect width="232" height="232" fill="white"/>
</clipPath>
</defs>
</svg>
