<svg width="205" height="205" viewBox="0 0 205 205" fill="none" xmlns="http://www.w3.org/2000/svg">
<path d="M136.252 9.39087C138.456 9.39087 140.662 9.39113 142.866 9.40356C144.724 9.41506 146.58 9.43622 148.438 9.48657C152.484 9.59599 156.564 9.83315 160.567 10.554C164.625 11.2832 168.403 12.4754 172.09 14.3518C175.715 16.1969 179.032 18.6069 181.907 21.4827C184.783 24.3584 187.194 27.6751 189.038 31.2991C190.917 34.9893 192.11 38.767 192.839 42.8293C193.558 46.8293 193.796 50.9092 193.904 54.9524C193.956 56.8111 193.977 58.6671 193.987 60.5237C194.001 62.7285 194 64.9345 194 67.1389V136.251C194 138.458 194.001 140.662 193.986 142.868C193.975 144.725 193.955 146.58 193.904 148.436C193.796 152.481 193.557 156.562 192.838 160.561C192.109 164.622 190.917 168.403 189.038 172.092C187.194 175.717 184.783 179.033 181.907 181.907C179.032 184.784 175.715 187.194 172.09 189.04C168.403 190.917 164.625 192.108 160.567 192.837C156.564 193.557 152.484 193.796 148.438 193.905C146.58 193.954 144.724 193.976 142.866 193.987C140.662 194.002 138.456 194 136.252 194H67.1388C64.9328 194 62.7293 194.002 60.5255 193.987C58.6676 193.976 56.8093 193.954 54.9542 193.905C50.9087 193.796 46.8251 193.557 42.8253 192.837C38.7659 192.108 34.9882 190.917 31.3009 189.04C27.6752 187.194 24.3577 184.784 21.4835 181.907C18.607 179.033 16.1959 175.717 14.3517 172.092C12.473 168.403 11.2827 164.622 10.5529 160.561C9.83452 156.563 9.59622 152.481 9.48743 148.436C9.43646 146.58 9.41557 144.725 9.40344 142.868C9.38914 140.662 9.39075 138.458 9.39075 136.251V67.1389C9.39075 64.9345 9.38945 62.7288 9.40344 60.5237C9.41557 58.667 9.43645 56.8112 9.48743 54.9524C9.59622 50.9092 9.83489 46.8293 10.5529 42.8293C11.2827 38.7671 12.4731 34.9893 14.3517 31.2991C16.1959 27.675 18.607 24.3585 21.4835 21.4827C22.2022 20.7637 22.949 20.0736 23.7208 19.4143C26.0361 17.4369 28.5819 15.7356 31.3009 14.3518C32.2228 13.8828 33.1502 13.4562 34.0861 13.0696C36.8942 11.9086 39.7813 11.101 42.8253 10.554C45.8254 10.0135 48.8729 9.74461 51.9152 9.5979C52.9293 9.54911 53.9429 9.51392 54.9542 9.48657C56.8092 9.43622 58.6677 9.41507 60.5255 9.40356C62.7292 9.39082 64.9329 9.39087 67.1388 9.39087H136.252ZM113.57 35.6116C127.438 54.4107 133.57 77.1811 128.122 97.094C127.636 98.87 127.052 100.575 126.406 102.232C125.706 101.771 124.823 101.249 123.638 100.595C123.638 100.595 92.1593 81.1586 58.0421 46.7815C57.1485 45.8814 76.2358 74.0647 97.8976 96.9504C87.6916 91.2227 59.2485 70.5284 41.2423 54.0481C43.4545 57.7374 46.0854 61.2901 48.9777 64.7102C64.0144 83.7798 83.6249 107.309 107.118 125.376C90.6116 135.478 67.2866 136.263 44.0636 125.386C38.3199 122.694 32.9204 119.446 27.922 115.756C37.7522 131.48 52.8917 145.046 71.3185 152.966C93.2931 162.41 115.146 161.77 131.421 153.121L131.408 153.14C131.483 153.093 131.576 153.041 131.653 152.993C132.322 152.634 132.985 152.268 133.634 151.882C141.454 147.823 156.899 143.706 165.19 159.836C167.22 163.784 171.535 142.863 155.673 123.346C155.669 123.34 155.665 123.336 155.66 123.331C155.864 122.636 156.075 121.945 156.254 121.233C163.916 90.7057 145.215 54.6145 113.57 35.6116Z" fill="white"/>
</svg>
