<svg width="205" height="205" viewBox="0 0 205 205" fill="none" xmlns="http://www.w3.org/2000/svg">
<mask id="mask0_193_29" style="mask-type:luminance" maskUnits="userSpaceOnUse" x="14" y="49" width="176" height="106">
<path d="M14 49.3999H190V155H14V49.3999Z" fill="white"/>
</mask>
<g mask="url(#mask0_193_29)">
<path fill-rule="evenodd" clip-rule="evenodd" d="M102 49.3999C78.5333 49.3999 63.8667 61.1332 58 84.5999C66.8 72.8666 77.0667 68.4666 88.8 71.3999C95.4945 73.0719 100.279 77.9315 105.575 83.306C114.203 92.0636 124.189 102.2 146 102.2C169.467 102.2 184.133 90.4666 190 66.9999C181.2 78.7332 170.933 83.1332 159.2 80.1999C152.505 78.5279 147.721 73.6683 142.425 68.2938C133.797 59.5362 123.811 49.3999 102 49.3999ZM58 102.2C34.5333 102.2 19.8667 113.933 14 137.4C22.8 125.667 33.0667 121.267 44.8 124.2C51.4945 125.875 56.2791 130.731 61.5754 136.106C70.2027 144.864 80.189 155 102 155C125.467 155 140.133 143.267 146 119.8C137.2 131.533 126.933 135.933 115.2 133C108.505 131.328 103.721 126.468 98.4246 121.094C89.7973 112.336 79.811 102.2 58 102.2Z" fill="white"/>
</g>
</svg>
