<svg width="150" height="150" viewBox="0 0 150 150" fill="none" xmlns="http://www.w3.org/2000/svg">
<g clip-path="url(#clip0_34_100)">
<path d="M135.352 0C143.442 0 150 6.55833 150 14.6484V135.352C150 143.442 143.442 150 135.352 150H14.6484C6.55833 150 0 143.442 0 135.352V14.6484C0 6.55833 6.55833 0 14.6484 0H135.352ZM118.393 69.7266C114.908 69.7266 111.606 70.1011 108.488 70.8496C105.371 71.5981 102.627 72.7667 100.258 74.3555C97.8889 75.9445 96.0171 77.969 94.6416 80.4287C93.2662 82.8881 92.5781 85.8289 92.5781 89.251C92.5781 93.6203 93.8395 97.3485 96.3613 100.435C98.8829 103.52 102.712 106.133 107.847 108.271C109.864 109.096 111.744 109.906 113.486 110.7C115.228 111.495 116.734 112.319 118.002 113.175C119.27 114.03 120.272 114.962 121.006 115.971C121.739 116.979 122.106 118.125 122.106 119.408C122.106 120.355 121.876 121.234 121.418 122.044C120.959 122.854 120.264 123.557 119.332 124.152C118.4 124.748 117.238 125.214 115.848 125.55C114.457 125.886 112.829 126.054 110.964 126.054C107.785 126.054 104.636 125.496 101.519 124.381C98.401 123.266 95.5127 121.593 92.8535 119.362V134.028C95.2376 135.251 98.0571 136.167 101.312 136.778C104.568 137.389 107.999 137.695 111.606 137.695C115.122 137.695 118.46 137.359 121.624 136.687C124.788 136.014 127.562 134.907 129.946 133.364C132.33 131.821 134.219 129.805 135.609 127.314C137 124.824 137.695 121.746 137.695 118.079C137.695 115.421 137.298 113.091 136.503 111.09C135.708 109.089 134.562 107.309 133.064 105.751C131.567 104.193 129.771 102.794 127.677 101.557C125.583 100.319 123.222 99.1506 120.593 98.0508C118.667 97.2563 116.94 96.4848 115.412 95.7363C113.884 94.9875 112.585 94.2233 111.515 93.4443C110.445 92.6651 109.619 91.8404 109.038 90.9697C108.458 90.0989 108.167 89.1136 108.167 88.0137C108.167 87.0056 108.428 86.0959 108.947 85.2861C109.467 84.4766 110.2 83.7817 111.147 83.2012C112.095 82.6208 113.256 82.1694 114.632 81.8486C116.008 81.5278 117.536 81.3682 119.218 81.3682C120.44 81.3682 121.732 81.4595 123.092 81.6426C124.452 81.826 125.82 82.1086 127.195 82.4902C128.571 82.8723 129.909 83.3542 131.208 83.9346C132.507 84.5152 133.706 85.1872 134.807 85.9512V72.2471C132.575 71.3916 130.137 70.7582 127.493 70.3457C124.849 69.9333 121.816 69.7266 118.393 69.7266ZM34.5703 83.2275H53.293V136.816H68.1973V83.2275H87.0117V71.1914H34.5703V83.2275Z" fill="white"/>
</g>
<defs>
<clipPath id="clip0_34_100">
<rect width="150" height="150" fill="white"/>
</clipPath>
</defs>
</svg>
