<svg width="174" height="174" viewBox="0 0 174 174" fill="none" xmlns="http://www.w3.org/2000/svg">
<path d="M157.843 119.052V44.2643L93.2675 6.87061V35.5836L118.565 50.274C119.564 50.9418 119.564 52.2773 118.565 52.6111L88.6074 69.9725C87.6088 70.6403 86.6103 70.3064 85.9445 69.9725L55.9869 52.6111C54.9883 52.2773 54.9883 50.6079 55.9869 50.274L81.2844 35.5836V6.87061L16.3762 44.2643V119.052L41.0081 104.695V75.3145C41.0081 74.3129 42.3395 73.6451 43.0052 73.979L72.9629 91.3404C73.9615 92.0081 74.2943 92.6759 74.2943 93.6775V128.4C74.2943 129.402 72.9629 130.07 72.2972 129.736L46.9996 115.045L22.3677 129.402L86.9431 167.129L151.518 129.736L126.887 115.379L101.589 130.07C100.59 130.737 99.5919 130.07 99.5919 128.734V94.0113C99.5919 93.0097 100.258 92.0081 100.923 91.6742L130.881 74.3129C131.88 73.6451 132.878 74.3129 132.878 75.6484V105.029L157.843 119.052Z" fill="white"/>
<path d="M86.9431 167.129L151.518 129.736L126.887 115.379L101.589 130.069C100.59 130.737 99.5919 130.069 99.5919 128.734V94.0112C99.5919 93.0096 100.258 92.0079 100.923 91.6741L130.881 74.3127C131.88 73.645 132.878 74.3127 132.878 75.6482V105.029L157.51 119.385V44.2642L86.9431 85.3305V167.129Z" fill="white"/>
<path d="M93.2675 6.87061V35.5836L118.565 50.274C119.564 50.9418 119.564 52.2773 118.565 52.6111L88.6074 69.9725C87.6089 70.6403 86.6103 70.3064 85.9445 69.9725L55.9869 52.6111C54.9883 52.2773 54.9883 50.6079 55.9869 50.274L81.2845 35.5836V6.87061L16.3762 44.2643L86.9431 85.3307L157.51 44.2643L93.2675 6.87061Z" fill="white"/>
<path d="M72.63 130.069L47.3325 115.379L22.7006 129.736L87.276 167.129V85.3305L16.3762 44.2642V119.052L41.0081 104.695V75.3143C41.0081 74.3127 42.3395 73.645 43.0052 73.9788L72.9629 91.3402C73.9615 92.0079 74.2943 92.6757 74.2943 93.6773V128.4C74.6272 129.736 73.6286 130.737 72.63 130.069Z" fill="white"/>
</svg>
