<svg width="174" height="174" viewBox="0 0 174 174" fill="none" xmlns="http://www.w3.org/2000/svg">
<path fill-rule="evenodd" clip-rule="evenodd" d="M136.108 99.5277C134.679 106.36 128.319 123.883 108.048 133.375L99.9127 124.306L86.1851 137.99C78.3689 137.886 70.6828 135.992 63.7274 132.457C56.7721 128.921 50.7359 123.84 46.0905 117.61C47.5509 118.06 49.0592 118.341 50.585 118.446C52.8322 118.487 55.2676 117.671 55.2676 113.912V77.0065C55.3012 76.0568 55.1095 75.1126 54.7081 74.2496C54.3066 73.3867 53.7064 72.629 52.9558 72.0376C52.2052 71.4462 51.3252 71.0375 50.3862 70.8443C49.4473 70.6511 48.4758 70.6789 47.5497 70.9253C41.1943 72.3662 36.11 88.0908 36.11 88.0908C36.0393 80.8294 37.5655 73.6398 40.5824 67.022C43.5993 60.4042 48.0344 54.5169 53.5796 49.7695C63.0465 41.8191 72.2948 39.0682 79.3213 37.99C72.3813 41.9098 68.4765 48.3084 68.4765 53.6792C68.4765 62.2897 73.7235 61.2719 75.2793 60.0023V109.841C75.5423 110.467 75.8839 111.058 76.2962 111.599C76.9912 112.552 77.9066 113.325 78.9655 113.855C80.0244 114.384 81.196 114.654 82.3821 114.643C87.6392 114.643 94.4572 108.697 94.4572 108.697V68.3407C94.4572 64.2345 91.3355 59.2717 88.2086 57.5789C88.2086 57.5789 93.9946 56.5712 98.4687 59.9519C99.3078 58.9336 100.2 57.9598 101.143 57.0347C111.545 46.9078 121.363 44.0359 129.539 42.595C129.539 42.595 114.657 54.1831 114.657 69.701C114.657 81.2538 114.957 109.423 114.957 109.423C120.494 114.693 128.695 107.085 136.108 99.5277Z" fill="white"/>
<path fill-rule="evenodd" clip-rule="evenodd" d="M86.6026 4.98999C70.2857 4.99099 54.3354 9.83051 40.7689 18.8966C27.2024 27.9626 16.629 40.848 10.3857 55.9233C4.1424 70.9986 2.50964 87.5867 5.69391 103.59C8.87817 119.593 16.7364 134.293 28.275 145.83C39.8135 157.367 54.5141 165.223 70.5177 168.406C86.5213 171.588 103.109 169.953 118.184 163.708C133.258 157.463 146.142 146.888 155.207 133.32C164.271 119.753 169.109 103.802 169.108 87.4849C169.108 76.6507 166.974 65.9225 162.827 55.9131C158.681 45.9037 152.603 36.8091 144.942 29.1486C137.28 21.4881 128.185 15.4118 118.175 11.2666C108.165 7.12148 97.4369 4.98866 86.6026 4.98999ZM86.6026 166.686C70.9379 166.687 55.6246 162.043 42.5993 153.341C29.574 144.639 19.4218 132.27 13.4265 117.797C7.43112 103.325 5.86195 87.4005 8.91739 72.0366C11.9728 56.6727 19.5156 42.5599 30.5919 31.4829C41.6682 20.4058 55.7806 12.8621 71.1443 9.80572C86.508 6.7493 102.433 8.31746 116.905 14.3119C131.378 20.3063 143.748 30.4577 152.451 43.4824C161.154 56.5072 165.799 71.8201 165.799 87.4849C165.799 108.49 157.455 128.634 142.603 143.487C127.751 158.34 107.607 166.685 86.6026 166.686Z" fill="white"/>
</svg>
