<?xml version="1.0" standalone="no"?>
<!DOCTYPE svg PUBLIC "-//W3C//DTD SVG 20010904//EN"
 "http://www.w3.org/TR/2001/REC-SVG-20010904/DTD/svg10.dtd">
<svg version="1.0" xmlns="http://www.w3.org/2000/svg"
 width="820.000000pt" height="820.000000pt" viewBox="0 0 820.000000 820.000000"
 preserveAspectRatio="xMidYMid meet">
<metadata>
Created by potrace 1.14, written by Peter Selinger 2001-2017
</metadata>
<g transform="translate(0.000000,820.000000) scale(0.100000,-0.100000)"
fill="#000000" stroke="none">
<path d="M1363 8189 c-184 -18 -335 -61 -510 -144 -153 -73 -278 -161 -399
-280 -107 -106 -228 -261 -220 -282 3 -7 0 -12 -6 -10 -17 3 -113 -193 -147
-302 -40 -124 -58 -215 -71 -348 -13 -135 -13 -803 -1 -803 5 0 11 4 13 9 3
10 32 14 96 12 33 -1 42 -5 41 -18 0 -11 -3 -13 -6 -5 -7 18 -27 15 -48 -8
-13 -14 -31 -20 -62 -20 l-44 0 3 -62 3 -61 72 2 c80 3 113 -11 113 -46 0 -20
4 -22 32 -16 25 5 30 3 24 -8 -4 -8 1 -4 11 9 24 29 55 34 98 16 19 -8 37 -14
40 -14 16 -1 34 -13 29 -21 -3 -5 4 -9 15 -9 11 0 26 10 32 23 16 29 14 28 33
21 25 -10 19 -33 -11 -40 l-26 -7 36 -19 c21 -10 37 -25 37 -33 0 -18 5 -18
30 -5 13 7 21 7 25 0 3 -5 20 -10 36 -10 25 0 29 3 24 19 -3 11 0 23 7 27 6 4
14 2 16 -4 6 -18 22 -4 22 19 0 16 6 20 28 17 21 -2 28 -9 30 -30 3 -23 -1
-28 -20 -29 -13 -1 -27 -1 -31 0 -5 1 -6 -2 -3 -7 3 -5 33 -8 68 -7 35 1 221
3 415 3 342 2 353 2 363 22 8 14 18 19 36 16 14 -3 22 -1 19 5 -4 5 3 9 14 9
12 0 21 5 21 10 0 6 17 10 39 10 36 0 54 -10 63 -35 1 -5 8 -8 13 -6 6 2 31 6
57 9 39 4 49 1 54 -13 10 -24 -32 -58 -62 -51 -33 9 -48 -18 -49 -90 -1 -53 2
-65 17 -70 10 -3 21 -17 24 -32 3 -15 8 -36 12 -47 4 -11 6 -41 4 -66 -2 -38
-7 -48 -27 -57 -26 -12 -25 -42 1 -42 8 0 16 -16 20 -39 6 -35 10 -40 40 -46
38 -7 54 -1 54 20 0 18 31 35 64 35 16 0 32 -9 42 -25 14 -22 22 -25 53 -20
77 13 81 15 81 39 0 13 7 29 15 36 8 7 13 16 10 20 -7 11 56 60 68 53 6 -3 7
-1 3 5 -5 9 -13 9 -26 2 -10 -5 -34 -10 -54 -10 -38 0 -49 17 -34 58 4 13 4
22 -2 22 -6 0 -10 7 -10 15 0 8 4 15 9 15 5 0 19 16 31 35 25 40 44 44 61 13
16 -32 16 -32 32 -17 8 7 12 21 10 30 -3 10 12 35 36 60 23 24 53 65 68 91 18
34 34 49 54 53 17 4 31 15 35 28 4 12 6 22 4 22 -2 0 2 10 9 23 15 28 28 27
65 -3 l30 -24 -44 -48 c-24 -26 -49 -50 -55 -52 -21 -7 -125 -122 -125 -138 0
-9 -8 -35 -19 -57 -19 -41 -71 -224 -71 -249 0 -8 -11 -30 -23 -49 -29 -41
-37 -74 -41 -151 -3 -62 -38 -147 -67 -165 -13 -9 -15 -6 -11 14 2 14 1 24 -4
22 -11 -4 -14 5 -13 40 1 22 2 23 6 5 2 -12 10 -26 17 -33 19 -15 34 134 15
156 -6 8 -9 17 -5 21 3 3 6 1 6 -5 0 -26 18 -10 22 20 4 23 0 36 -10 44 -17
12 -45 7 -37 -6 7 -11 -5 -40 -16 -40 -5 0 -9 5 -9 10 0 6 -8 20 -19 31 l-18
20 -41 -21 c-54 -28 -92 -31 -112 -10 -13 16 -25 17 -95 10 -239 -25 -814 -41
-1113 -31 -143 5 -142 4 -143 103 0 67 -11 109 -22 91 -11 -18 -142 -10 -142
8 0 8 12 15 30 17 17 1 53 5 82 8 l51 5 1 94 0 93 -74 7 c-41 3 -145 3 -232
-1 -87 -5 -173 -8 -190 -9 -30 0 -33 -3 -33 -29 0 -23 3 -27 20 -23 17 4 20 0
20 -29 0 -19 3 -35 8 -35 4 -1 28 -2 54 -3 57 -2 78 -18 61 -45 -10 -16 -8
-22 8 -37 19 -17 19 -17 -1 -31 -15 -11 -24 -11 -41 -3 -11 6 -28 9 -37 5 -16
-6 -15 -8 1 -20 18 -13 17 -14 -4 -17 -23 -3 -34 -28 -44 -96 -3 -28 0 -35 21
-44 23 -11 24 -13 7 -19 -29 -12 -40 -10 -59 8 -16 16 -16 4 -12 -210 4 -199
6 -229 22 -246 20 -21 15 -56 -9 -65 -12 -4 -14 -61 -14 -361 l0 -355 82 0
c76 1 162 12 172 22 2 2 0 20 -5 39 -5 18 -12 69 -16 112 -5 68 -8 77 -25 77
-26 0 -37 30 -16 45 21 15 21 22 2 41 -21 21 -19 35 5 41 11 3 21 10 21 17 1
8 0 288 -1 339 0 5 -9 6 -19 2 -25 -8 -32 5 -36 70 -3 47 -1 55 14 55 9 0 22
-5 28 -11 14 -14 22 26 20 106 -2 59 -3 60 -32 63 -16 2 -35 8 -42 14 -11 9
-14 48 -3 48 3 0 32 5 65 10 93 15 92 16 94 -102 2 -81 5 -104 19 -114 13 -10
14 -17 5 -48 -6 -20 -7 -38 -3 -41 5 -3 2 -18 -6 -33 -10 -20 -14 -68 -14
-186 0 -135 3 -162 17 -178 20 -23 24 -97 6 -119 -11 -13 -13 -55 -10 -200 5
-214 5 -188 4 -286 -1 -43 0 -168 1 -278 1 -110 1 -213 0 -230 0 -16 2 -78 7
-137 l7 -107 -38 -16 c-22 -9 -41 -12 -46 -7 -7 7 -22 314 -19 382 20 395 20
389 8 393 -9 3 -9 10 0 28 7 13 14 40 15 59 l3 35 -120 -3 c-66 -1 -126 -5
-133 -7 -9 -3 -12 -62 -12 -249 0 -235 1 -244 20 -249 19 -5 20 -14 20 -195 0
-186 -1 -191 -22 -207 -16 -12 -19 -19 -10 -22 7 -3 22 -14 32 -26 17 -18 20
-18 26 -4 8 21 40 22 60 2 26 -25 114 -15 134 16 3 4 28 16 56 27 l50 20 54
-25 c45 -21 72 -26 145 -28 57 -1 97 3 108 11 21 13 68 5 75 -14 2 -8 -11 -12
-40 -12 -23 0 -59 -4 -78 -10 -77 -21 -105 -24 -233 -28 -42 -1 -57 -6 -54
-14 2 -7 15 -12 28 -11 13 1 60 5 104 8 44 4 104 11 134 16 30 5 80 9 110 9
51 0 153 9 321 29 38 5 76 4 93 -1 18 -7 32 -7 40 0 6 5 73 15 147 22 l136 13
2 86 c4 131 -4 178 -34 185 -19 5 -24 13 -24 39 0 45 15 57 72 57 54 0 69 -16
50 -53 -7 -12 -12 -35 -12 -52 0 -16 -1 -80 -2 -141 l-3 -111 55 4 c115 7 288
24 366 35 61 8 90 8 114 -1 26 -9 37 -8 49 2 9 8 41 14 72 15 31 1 78 9 105
17 27 8 81 15 121 15 99 0 173 18 173 42 0 10 -9 27 -20 38 -11 11 -17 20 -13
20 5 0 0 5 -9 11 -14 8 -15 14 -7 33 8 17 7 38 -6 82 -9 32 -22 84 -30 114 -7
30 -25 98 -38 150 -14 52 -28 113 -31 135 -10 63 -11 249 -1 265 6 10 4 12 -9
7 -10 -4 -19 -7 -22 -7 -2 0 2 -12 8 -26 10 -21 9 -27 -3 -35 -22 -14 -57 -10
-67 7 -13 24 10 114 29 114 5 0 9 7 9 16 0 12 7 15 29 12 24 -4 31 1 49 36 55
106 81 261 57 340 -8 27 -15 62 -15 78 l0 28 25 -22 c14 -12 25 -28 25 -35 0
-7 10 -14 23 -14 12 -1 29 -2 39 -3 9 -1 20 -4 24 -8 4 -4 13 -3 21 3 7 6 13
8 13 3 0 -5 11 15 25 44 14 30 22 58 19 63 -3 5 9 26 26 47 l31 37 -31 27
c-17 16 -39 28 -50 28 -11 0 -20 4 -20 8 0 12 -60 6 -73 -7 -6 -6 -19 -11 -28
-11 -24 0 -69 -56 -69 -86 0 -54 -36 -18 -56 58 -34 130 -13 163 104 163 65 0
77 3 80 17 2 10 -8 28 -22 40 -50 45 -94 78 -105 78 -17 0 -17 40 -1 100 27
101 53 189 66 220 7 19 15 49 18 65 6 45 30 115 38 115 5 0 8 15 8 34 0 19 7
42 16 51 9 8 17 26 18 39 0 13 6 22 12 19 7 -2 13 12 17 36 6 45 43 100 68
100 9 1 20 12 23 26 7 26 20 32 31 15 3 -5 14 -2 25 7 10 9 29 18 42 20 13 2
36 13 51 24 16 11 34 18 42 15 7 -2 19 2 26 10 7 8 19 12 27 9 8 -3 21 0 29 6
10 9 23 9 51 1 20 -6 60 -8 87 -5 73 8 106 8 143 -1 25 -6 32 -4 32 8 0 21 18
30 34 17 7 -6 20 -9 28 -6 8 3 21 -2 29 -11 13 -16 12 -17 -8 -12 -16 4 -23 2
-23 -8 0 -11 17 -14 70 -14 40 0 70 4 70 10 0 20 48 9 73 -16 14 -14 30 -23
36 -20 5 4 12 2 16 -4 3 -5 17 -10 31 -10 13 0 24 -6 25 -12 2 -20 9 -92 11
-105 2 -20 19 -15 25 6 4 14 12 17 41 15 20 -1 39 1 42 5 6 9 83 32 88 26 2
-2 1 -9 -3 -15 -4 -7 -8 -43 -8 -81 0 -48 -4 -69 -13 -73 -8 -3 -14 -20 -14
-41 0 -24 4 -34 11 -29 6 3 15 1 19 -6 7 -11 13 -10 34 3 14 10 27 13 31 7 3
-5 -1 -48 -10 -95 -19 -98 -14 -143 24 -260 30 -92 50 -124 79 -130 11 -2 42
-15 68 -29 27 -14 52 -26 57 -26 11 0 147 -135 147 -146 1 -12 57 -74 68 -74
5 0 28 -24 51 -52 33 -41 39 -54 27 -56 -17 -4 -23 -32 -6 -32 6 0 10 -9 10
-19 0 -21 46 -81 62 -81 6 0 31 -15 57 -34 43 -32 51 -34 108 -30 51 3 74 10
127 43 36 21 80 44 99 50 19 7 49 25 67 41 18 16 42 32 52 36 10 3 18 11 18
18 0 8 7 19 15 26 11 9 12 16 5 25 -8 10 -8 15 1 20 6 4 15 2 19 -5 4 -7 15
-10 24 -7 24 9 28 -8 6 -28 -18 -16 -28 -45 -15 -45 19 0 55 27 55 41 0 12 5
16 15 13 8 -3 29 -1 47 5 31 11 35 10 61 -21 52 -62 61 -80 66 -146 4 -39 11
-67 19 -70 9 -3 12 19 12 87 0 96 -7 119 -50 157 -20 17 -22 26 -14 43 9 22
10 22 57 -16 30 -24 57 -58 74 -93 23 -48 26 -68 26 -148 0 -83 -4 -104 -34
-180 -41 -103 -97 -166 -142 -159 -15 2 -30 0 -33 -5 -3 -4 -22 -8 -43 -8 -21
0 -40 -3 -44 -6 -9 -9 17 -55 42 -76 20 -17 20 -17 0 -57 -18 -38 -82 -100
-95 -93 -7 4 -24 -18 -24 -32 0 -5 16 -6 35 -3 30 5 36 3 41 -17 3 -13 4 -38
2 -56 -2 -19 2 -35 9 -37 8 -3 14 16 19 57 7 68 27 77 32 16 3 -29 -2 -44 -19
-62 -21 -23 -34 -68 -44 -164 -4 -36 -3 -41 5 -25 6 11 23 26 37 33 37 17 51
1 35 -40 -10 -26 -9 -38 8 -75 10 -23 23 -43 27 -43 12 0 33 -60 33 -93 0 -25
3 -27 26 -21 25 6 26 5 22 -20 -6 -29 11 -89 30 -108 7 -7 12 -20 12 -29 0
-10 6 -24 14 -31 8 -8 26 -39 41 -69 34 -69 67 -103 123 -131 41 -19 45 -20
54 -5 11 20 39 22 57 4 11 -10 15 -9 19 3 14 39 118 114 149 108 13 -2 8 -12
-20 -43 -20 -22 -37 -43 -37 -46 0 -3 8 -15 18 -25 17 -19 52 -28 52 -14 0 5
9 11 20 15 11 3 40 33 65 66 26 32 52 59 58 59 7 0 30 23 52 50 22 27 49 52
60 56 11 3 26 12 34 18 8 6 24 11 35 11 17 0 20 5 18 28 -1 15 1 27 6 27 5 0
29 19 53 42 24 24 55 51 69 61 14 10 19 15 11 11 -9 -4 -12 -3 -8 4 8 12 -2
42 -13 42 -5 0 -21 -10 -37 -23 -30 -24 -63 -25 -63 -1 0 8 -4 14 -9 14 -5 0
-12 7 -15 16 -6 16 62 92 120 132 27 19 33 30 39 79 7 55 6 58 -22 80 -29 23
-77 31 -88 13 -3 -5 -14 -1 -25 10 -11 11 -30 20 -43 20 -13 0 -27 4 -32 9 -6
5 -19 11 -30 14 -19 5 -19 5 1 12 14 4 24 18 28 36 3 16 16 40 29 53 17 17 21
28 15 42 -6 13 -3 33 7 58 l16 39 49 -6 c26 -3 51 -3 54 1 4 3 32 6 64 7 71 1
79 6 84 52 4 30 -1 41 -25 65 -18 16 -46 31 -68 34 -57 9 -72 24 -74 75 0 24
-7 55 -14 68 -9 16 -12 43 -8 78 5 49 -4 76 -18 53 -3 -5 -15 -10 -27 -10 -18
0 -19 4 -13 38 4 20 13 41 22 45 13 8 12 10 -2 20 -8 7 -16 28 -17 49 -1 35
-4 37 -40 43 -28 5 -43 15 -55 36 -10 16 -23 27 -30 24 -9 -3 -12 2 -8 18 2
12 6 51 7 87 3 55 0 65 -14 68 -13 3 -18 -3 -18 -21 0 -20 -6 -25 -37 -31 -21
-3 -44 -6 -50 -6 -23 0 -14 19 15 32 18 9 28 22 30 40 2 19 8 25 18 21 9 -3
14 1 14 12 0 21 38 54 63 55 10 0 22 -11 27 -24 18 -47 36 -183 28 -212 -5
-17 -3 -40 3 -56 10 -24 17 -28 49 -28 29 0 39 -4 43 -20 4 -14 14 -20 35 -20
17 0 34 -5 37 -10 7 -12 48 35 52 59 4 29 -62 131 -86 131 -31 0 -16 56 44
173 20 39 18 77 -5 107 -11 14 -20 33 -20 43 0 10 -11 29 -25 43 -14 14 -25
31 -25 39 0 17 -12 19 -26 5 -7 -7 -23 -5 -49 6 -21 9 -58 16 -81 17 -26 0
-45 5 -48 14 -3 7 -14 13 -24 13 -14 0 -21 9 -26 30 -5 27 -9 30 -46 30 -23 0
-50 -5 -62 -11 -33 -18 -34 0 0 31 26 23 32 37 32 70 0 34 4 42 26 50 24 9 26
14 20 48 -8 45 -26 92 -35 92 -4 0 -5 21 -3 48 11 111 1 192 -28 211 -12 8
-20 24 -20 42 0 21 -11 39 -40 65 -23 21 -39 42 -37 48 5 15 -23 42 -31 30
-10 -14 -42 -16 -42 -3 0 8 -12 9 -36 4 -45 -8 -71 -22 -100 -54 -20 -23 -24
-24 -62 -13 -38 12 -41 15 -36 40 6 29 2 35 -83 114 -33 30 -51 55 -51 70 0
13 -1 60 -2 106 -2 77 2 103 15 91 2 -3 6 -16 8 -29 2 -13 12 -27 23 -31 17
-7 17 -8 2 -8 -10 -1 -18 -8 -18 -16 0 -11 8 -13 30 -8 19 3 30 1 30 -6 0 -8
6 -8 21 1 17 11 22 10 33 -4 7 -10 23 -18 35 -18 17 0 21 6 21 33 0 46 17 61
43 36 26 -24 46 -24 54 -1 13 32 31 42 83 43 40 2 55 -2 62 -14 5 -10 13 -17
18 -17 15 0 12 21 -5 40 -13 14 -13 19 -1 36 12 15 18 17 33 8 10 -6 17 -15
16 -20 -6 -32 72 -60 114 -41 15 7 30 5 53 -6 17 -9 37 -14 44 -11 20 8 41
-51 29 -79 -6 -13 -9 -42 -7 -65 3 -32 0 -44 -12 -49 -9 -3 -20 0 -24 7 -5 8
-20 10 -48 5 -24 -4 -49 -2 -61 4 -13 7 -22 8 -26 1 -9 -15 -41 -12 -55 5 -7
8 -16 12 -21 9 -5 -3 -9 6 -9 20 0 31 -64 96 -94 96 -12 0 -30 3 -42 6 -30 8
-57 -21 -44 -47 6 -10 21 -19 33 -19 27 -1 73 -25 69 -37 -2 -4 5 -9 15 -11
10 -2 28 -8 40 -14 l22 -11 -24 -19 c-14 -11 -25 -25 -25 -33 0 -15 27 -28 41
-19 5 3 9 0 9 -5 0 -6 13 -11 29 -11 24 0 36 -9 62 -45 19 -27 40 -45 52 -45
10 0 33 -7 50 -16 18 -9 39 -20 47 -24 8 -4 16 -16 18 -26 2 -10 8 -29 14 -41
12 -25 5 -88 -13 -110 -8 -9 -23 -13 -40 -9 -18 3 -29 0 -32 -8 -8 -20 2 -26
44 -26 70 0 54 -37 -21 -47 -91 -12 -48 -53 55 -52 39 1 81 -2 95 -6 21 -5 27
-1 36 24 l12 29 -34 -5 c-26 -4 -39 0 -59 18 -13 13 -25 34 -25 45 0 36 29 37
81 5 55 -34 69 -27 69 32 0 35 2 37 15 23 11 -11 22 -13 39 -6 15 5 27 5 35
-3 14 -14 19 -8 27 31 6 29 4 32 -19 32 -37 0 -72 55 -42 66 27 11 64 -5 71
-30 9 -36 44 -31 44 6 0 31 20 37 40 13 15 -18 6 -45 -14 -45 -7 0 -16 -6 -19
-12 -3 -10 12 -13 59 -13 35 0 64 4 64 8 0 5 4 5 10 2 6 -4 10 13 11 42 0 42
1 45 10 23 6 -14 8 -37 5 -52 -3 -15 -1 -30 5 -34 6 -3 9 -17 7 -29 -3 -13 1
-33 7 -45 11 -20 13 -17 18 31 4 29 3 57 -2 63 -12 16 -23 99 -12 92 5 -4 11
-1 13 5 2 5 11 7 21 3 10 -4 16 -13 13 -21 -3 -7 2 -28 12 -46 21 -39 74 -50
99 -20 8 10 12 12 8 6 -6 -13 7 -18 18 -7 7 7 -28 80 -43 89 -12 7 -14 45 -2
46 10 1 39 5 104 13 68 9 103 -5 95 -36 -8 -27 13 -58 38 -58 21 0 45 -17 45
-32 0 -5 -10 -12 -21 -17 -20 -7 -20 -8 10 -20 25 -11 31 -19 31 -43 0 -47 17
-23 25 35 4 28 11 57 16 63 7 9 82 10 156 2 20 -2 4 -18 -18 -18 -11 0 -22 -7
-26 -15 -7 -20 -2 -24 30 -27 22 -2 24 -5 15 -21 -11 -21 -9 -24 12 -27 43 -6
80 1 80 16 0 8 -4 12 -10 9 -6 -4 -10 14 -10 47 0 33 4 48 9 40 4 -8 18 -12
30 -10 20 3 20 5 7 30 -8 16 -16 45 -18 65 -2 30 -9 41 -31 51 -34 16 -28 28
19 36 45 9 68 -8 61 -43 -3 -15 1 -35 9 -46 14 -19 15 -18 9 16 -8 42 4 55 35
39 22 -12 27 -45 9 -56 -8 -5 -8 -9 1 -14 17 -10 -16 -41 -36 -33 -16 6 -34
-12 -34 -33 0 -7 11 -15 25 -18 14 -4 32 -17 41 -31 16 -25 44 -34 44 -14 0 5
-4 7 -10 4 -17 -10 -35 42 -21 59 16 19 61 2 62 -23 0 -10 2 -12 6 -3 5 14
128 17 137 4 12 -20 -39 -47 -88 -46 -49 1 -49 1 -26 -18 12 -10 33 -18 45
-18 13 0 30 -3 39 -6 10 -4 16 -1 16 9 0 9 6 20 13 24 21 14 47 61 47 88 0 14
3 25 8 25 10 0 42 -38 42 -50 0 -6 5 -10 10 -10 6 0 10 3 10 8 0 20 21 139 27
152 7 16 9 25 12 75 l3 30 10 -27 c5 -16 14 -28 19 -28 16 0 10 -32 -8 -45
-15 -11 -15 -17 -5 -39 7 -16 9 -44 5 -71 -5 -36 -3 -45 9 -45 9 0 18 10 21
21 4 16 11 20 23 15 17 -7 17 -6 0 13 -12 14 -14 21 -6 26 18 11 31 -16 26
-51 -6 -42 23 -68 59 -54 14 5 25 7 25 4 0 -4 7 0 16 7 12 10 15 25 11 56 -4
43 13 73 41 73 7 0 12 5 12 10 0 6 -3 9 -7 9 -27 -4 -42 4 -47 27 -4 15 -3 31
3 37 7 7 7 16 0 29 -5 10 -8 59 -6 110 3 84 5 93 30 114 l27 23 0 243 c0 441
-31 616 -155 875 -182 382 -525 674 -924 788 -223 64 18 59 -2966 61 -1490 1
-2747 -2 -2792 -7z m1961 -1456 c3 -4 49 -8 102 -9 55 -2 101 -8 110 -15 11
-9 17 -9 29 1 13 10 15 9 15 -9 0 -15 6 -21 22 -21 12 0 41 -9 65 -21 30 -14
47 -18 56 -11 16 13 68 12 73 -2 3 -7 22 -10 49 -8 26 2 45 0 45 -6 0 -16 -30
-23 -120 -29 -47 -2 -101 -10 -120 -15 -19 -6 -71 -12 -115 -13 -51 0 -88 -6
-103 -16 -18 -11 -24 -11 -30 -2 -5 7 -21 15 -38 17 -16 2 -33 5 -39 7 -5 2
-12 0 -15 -6 -3 -5 6 -11 20 -13 14 -2 32 -5 40 -8 13 -4 13 -6 0 -14 -8 -6
-27 -10 -42 -10 -15 0 -33 -8 -40 -17 -7 -10 -29 -27 -49 -38 -51 -28 -109
-81 -109 -100 0 -19 -16 -20 -24 0 -3 8 -15 15 -26 15 -18 0 -19 2 -8 13 24
25 58 39 58 26 0 -7 2 -10 4 -8 2 2 4 8 4 12 0 14 55 67 69 67 7 0 13 5 13 11
0 6 12 8 29 6 20 -3 31 0 35 9 4 10 -2 14 -19 14 -15 0 -25 6 -25 14 0 8 -14
26 -31 41 -17 14 -28 29 -24 33 4 4 10 1 12 -5 7 -21 54 16 53 41 -3 33 10 64
29 69 26 7 37 7 45 0z m-104 -83 c0 -5 -4 -10 -10 -10 -5 0 -10 5 -10 10 0 6
5 10 10 10 6 0 10 -4 10 -10z m845 -29 c28 -5 76 -16 109 -25 40 -11 79 -15
121 -11 39 4 66 2 70 -5 3 -5 21 -10 38 -9 27 0 29 2 12 9 -18 8 -17 9 6 9 15
1 45 8 69 16 37 13 45 13 72 -1 16 -8 36 -13 43 -11 7 3 18 0 24 -6 8 -8 11
-8 11 1 0 7 5 12 10 12 6 0 9 -5 8 -11 -4 -17 54 -32 64 -17 5 9 21 9 68 0 34
-7 99 -16 146 -19 46 -3 84 -9 84 -12 0 -3 -44 -6 -97 -5 -54 1 -127 -3 -163
-10 -74 -13 -400 -9 -400 4 0 5 12 11 28 13 15 2 7 2 -18 -1 -79 -10 -193 -4
-260 14 -36 9 -85 18 -110 21 -58 5 -89 21 -83 42 4 18 53 18 148 2z m1183
-70 c16 -10 13 -43 -5 -48 -14 -5 -37 33 -28 47 7 12 16 12 33 1z m280 -38
c12 -24 4 -43 -17 -43 -28 0 -41 20 -28 41 15 24 34 24 45 2z m2074 -23 c-6
-16 -11 -20 -16 -11 -4 6 -2 19 5 27 16 20 21 12 11 -16z m-2502 10 c12 -8 12
-10 -4 -16 -11 -4 -24 0 -34 10 -15 15 -15 16 3 16 11 0 27 -4 35 -10z m-1003
-16 c-3 -3 -12 -4 -19 -1 -8 3 -5 6 6 6 11 1 17 -2 13 -5z m1038 -4 c3 -5 1
-10 -4 -10 -6 0 -11 5 -11 10 0 6 2 10 4 10 3 0 8 -4 11 -10z m-805 -26 c165
-11 160 -22 -9 -21 -107 2 -156 6 -158 14 -4 12 23 22 47 17 8 -1 62 -6 120
-10z m3630 -4 c0 -5 -5 -10 -11 -10 -5 0 -7 5 -4 10 3 6 8 10 11 10 2 0 4 -4
4 -10z m203 -17 c-3 -6 -11 -9 -20 -6 -8 3 -19 0 -25 -8 -7 -11 -11 -11 -15
-1 -2 6 -11 12 -19 12 -9 0 -13 4 -10 9 9 14 94 8 89 -6z m-6886 1 c-3 -3 -12
-4 -19 -1 -8 3 -5 6 6 6 11 1 17 -2 13 -5z m6460 0 c-3 -3 -12 -4 -19 -1 -8 3
-5 6 6 6 11 1 17 -2 13 -5z m23 -18 c0 -8 -7 -16 -15 -20 -13 -4 -14 -2 -5 14
13 23 20 26 20 6z m80 -6 c0 -5 -4 -10 -10 -10 -5 0 -10 5 -10 10 0 6 5 10 10
10 6 0 10 -4 10 -10z m104 -15 c3 -8 13 -15 22 -15 10 0 14 -5 10 -15 -6 -16
9 -21 18 -6 8 12 58 1 75 -17 12 -11 12 -18 2 -34 -8 -13 -9 -24 -3 -30 6 -6
12 -6 16 1 4 6 16 11 27 11 13 0 18 -4 13 -11 -4 -7 4 -20 17 -30 21 -16 22
-19 5 -19 -10 0 -27 -11 -38 -25 -16 -21 -26 -24 -63 -20 -49 4 -69 -10 -63
-47 2 -19 8 -22 31 -20 22 3 27 -1 27 -17 0 -16 -6 -21 -24 -21 -14 0 -28 -5
-32 -11 -4 -6 -19 -9 -36 -5 -39 8 -68 -12 -68 -46 0 -18 -7 -29 -21 -33 -34
-11 -53 31 -25 54 8 7 17 28 21 48 4 21 13 42 21 48 22 16 2 40 -24 26 -15 -8
-21 -8 -24 0 -4 13 -180 21 -188 9 -3 -4 -19 -10 -36 -14 -23 -5 -36 -2 -54
14 -25 22 -56 25 -110 10 -64 -17 -235 -27 -515 -31 -55 -1 -105 -6 -112 -11
-9 -7 -21 -3 -39 11 -26 21 -84 29 -84 12 0 -18 -63 -22 -82 -5 -22 21 -24 36
-3 28 8 -4 15 -2 15 4 0 6 -6 13 -12 15 -14 6 23 10 57 8 11 -1 30 7 42 19 27
25 42 25 58 3 12 -16 17 -16 49 -5 20 8 50 11 66 7 21 -5 34 -1 49 14 26 26
48 18 57 -22 l7 -31 15 38 c13 32 13 39 1 47 -11 7 -11 9 4 9 9 0 25 -8 36
-19 11 -11 24 -15 32 -11 22 12 79 0 79 -17 0 -11 14 -13 70 -9 39 3 81 11 93
18 l22 12 -25 7 c-23 7 -23 7 7 8 17 1 34 -5 37 -11 5 -10 7 -10 12 1 5 10 8
10 14 1 5 -8 18 -10 39 -5 18 4 30 9 27 13 -13 12 17 32 41 26 18 -5 28 -1 40
16 13 19 22 22 59 17 34 -3 41 -2 37 10 -7 19 44 15 69 -5 14 -12 19 -11 36 6
26 26 113 38 125 17 11 -20 48 -20 41 0 -8 21 2 45 20 45 7 0 16 -7 20 -15z
m215 -32 c-1 -27 -4 -38 -6 -25 -4 19 -11 22 -49 22 -32 0 -44 4 -44 14 0 8 5
18 10 21 6 3 10 2 10 -4 0 -12 63 -2 68 11 8 19 12 5 11 -39z m-5413 15 l7
-23 10 23 c12 26 27 29 27 5 0 -15 9 -18 56 -18 42 0 58 -4 65 -17 15 -26 26
-22 33 12 3 17 12 30 20 30 18 0 34 -22 19 -27 -6 -2 -9 -13 -6 -23 3 -11 0
-20 -6 -20 -6 0 -11 -9 -11 -20 0 -27 -63 -58 -126 -61 -28 -1 -55 0 -61 4 -6
4 -22 -2 -34 -14 -18 -15 -19 -19 -6 -15 9 3 17 1 17 -4 0 -9 -18 -16 -64 -24
-16 -3 -36 -12 -46 -21 -9 -8 -22 -15 -28 -15 -7 0 -12 -5 -12 -10 0 -6 -10
-24 -22 -41 -20 -26 -21 -34 -11 -72 7 -25 8 -46 2 -53 -5 -6 -6 -14 -2 -17 3
-4 -13 -7 -36 -7 -43 0 -72 11 -103 37 -9 8 -41 16 -70 19 -29 2 -75 5 -101 8
-42 4 -49 2 -63 -20 -20 -30 -29 -30 -67 2 l-31 26 -7 -26 c-4 -15 -4 -40 1
-56 5 -18 5 -30 -1 -30 -5 0 -9 9 -9 20 0 11 -4 20 -10 20 -14 0 -12 -32 4
-53 7 -9 11 -28 8 -42 -4 -21 -1 -25 20 -25 26 0 48 -17 48 -37 0 -7 -14 -26
-31 -43 -19 -17 -26 -30 -18 -30 8 0 0 -12 -17 -28 -17 -15 -34 -35 -37 -44
-7 -19 -42 -24 -65 -9 -7 4 -20 26 -27 47 -8 21 -14 33 -15 25 0 -11 -3 -11
-15 -1 -18 15 -15 35 5 35 10 0 13 47 14 220 l1 220 42 14 c36 13 44 13 59 1
9 -8 22 -15 28 -16 6 0 17 -2 24 -2 6 -1 12 -7 12 -14 0 -9 -3 -9 -12 0 -17
17 -31 15 -24 -4 3 -8 1 -24 -4 -35 -8 -13 -7 -31 1 -60 10 -32 17 -39 33 -37
23 3 35 49 19 71 -5 7 -8 18 -7 25 1 6 2 19 3 28 1 11 7 15 21 11 17 -4 20 0
20 30 0 28 3 34 16 29 9 -3 23 -6 32 -7 10 -1 7 -4 -8 -9 -15 -5 -18 -8 -9 -9
9 -1 20 -8 23 -17 3 -8 10 -12 16 -9 5 3 10 1 10 -4 0 -11 63 21 92 46 9 8 21
12 27 8 6 -3 19 -2 28 4 15 8 16 10 3 15 -43 13 -44 14 -23 15 12 1 25 -3 28
-9 10 -16 35 -12 29 4 -3 8 0 25 7 37 10 20 13 21 23 7 6 -8 31 -18 56 -22 24
-4 50 -12 57 -17 6 -6 17 -7 24 -3 8 4 4 11 -12 20 -13 7 -19 14 -14 15 6 0
17 2 25 3 51 7 79 20 84 39 6 23 -4 40 -11 20 -6 -18 -23 -16 -23 2 0 10 14
17 40 21 22 4 40 10 40 15 0 18 19 8 26 -13z m5304 7 c0 -8 -4 -15 -10 -15 -5
0 -7 7 -4 15 4 8 8 15 10 15 2 0 4 -7 4 -15z m-3946 -9 l27 -14 -26 -6 c-31
-8 -46 -1 -38 19 6 18 5 18 37 1z m-3739 -17 c4 -6 5 -13 2 -16 -8 -7 -47 7
-47 18 0 13 37 11 45 -2z m1255 -4 c0 -12 -19 -12 -23 0 -4 9 -1 12 9 8 7 -3
14 -7 14 -8z m360 -11 c0 -15 -5 -24 -12 -22 -16 6 -18 48 -1 48 7 0 13 -11
13 -26z m627 -6 c-3 -8 -6 -5 -6 6 -1 11 2 17 5 13 3 -3 4 -12 1 -19z m4863
12 c0 -5 -2 -10 -4 -10 -3 0 -8 5 -11 10 -3 6 -1 10 4 10 6 0 11 -4 11 -10z
m-5530 -20 c0 -5 -4 -10 -10 -10 -5 0 -10 -10 -11 -22 0 -15 -2 -18 -6 -8 -3
8 -13 19 -21 24 -12 7 -12 10 -1 17 19 12 49 11 49 -1z m-183 -22 c-3 -8 -6
-5 -6 6 -1 11 2 17 5 13 3 -3 4 -12 1 -19z m2723 2 c-36 -11 -52 -11 -45 0 3
6 21 10 38 9 31 -1 31 -1 7 -9z m-2636 -15 c-4 -8 -1 -15 5 -15 6 0 11 -4 11
-10 0 -5 -7 -10 -15 -10 -8 0 -15 -3 -15 -7 0 -5 -3 -19 -7 -32 -4 -16 -3 -22
5 -17 15 9 35 -31 28 -58 -7 -28 8 -55 17 -31 4 9 3 13 -3 10 -15 -9 -12 11 4
24 12 10 15 6 21 -21 3 -18 11 -46 17 -61 8 -21 8 -31 -1 -40 -6 -6 -11 -19
-11 -29 0 -20 -1 -21 -24 -12 -9 3 -17 16 -17 28 -1 16 -2 17 -6 4 -5 -22 -7
-22 -43 -3 -17 9 -30 12 -30 7 0 -4 -16 -6 -36 -4 -20 3 -46 0 -57 -6 -51 -23
-79 -32 -102 -32 -13 0 -26 -6 -29 -12 -3 -7 -3 4 1 25 l6 39 -26 -26 c-43
-43 -124 -21 -114 31 6 30 -1 30 -13 -1 -11 -30 -49 -38 -98 -20 -30 11 -32
13 -13 14 13 0 21 3 18 7 -4 3 2 17 14 29 18 19 24 21 41 11 16 -10 21 -9 29
5 6 11 16 15 27 11 13 -4 13 -2 -3 10 -19 14 -21 14 -29 -6 -8 -20 -10 -20
-13 -4 -3 10 -2 25 1 34 6 14 8 14 25 -1 16 -14 22 -15 50 -3 18 8 41 27 52
43 l19 29 0 -27 c0 -19 -5 -28 -16 -28 -25 0 -10 -25 17 -29 13 -1 27 -8 30
-13 4 -7 9 -6 13 1 4 6 0 14 -8 17 -27 10 -20 44 9 44 16 0 25 6 25 15 0 9 -9
15 -25 15 -14 0 -25 5 -25 11 0 7 10 9 26 5 26 -7 26 -6 23 38 -2 24 -1 42 4
39 4 -2 7 -21 7 -41 l0 -37 20 25 c24 31 25 50 3 51 -11 0 -8 4 10 11 36 13
55 5 67 -28 9 -22 13 -24 25 -14 9 7 18 10 22 7 11 -11 32 14 27 31 -3 11 1 9
12 -5 19 -26 39 -31 30 -7 -7 17 0 34 14 34 5 0 7 -7 4 -15z m706 5 c0 -5 -4
-10 -10 -10 -5 0 -10 5 -10 10 0 6 5 10 10 10 6 0 10 -4 10 -10z m4654 -5 c3
-8 1 -15 -4 -15 -6 0 -10 7 -10 15 0 8 2 15 4 15 2 0 6 -7 10 -15z m-2784 -5
c0 -5 -6 -10 -14 -10 -8 0 -18 5 -21 10 -3 6 3 10 14 10 12 0 21 -4 21 -10z
m-2088 -18 c11 -11 8 -12 -12 -7 -14 3 -54 10 -90 15 l-65 9 77 -2 c48 -2 82
-7 90 -15z m-847 -56 c2 -46 -18 -71 -43 -55 -25 16 -25 46 0 53 17 4 19 8 10
19 -14 16 -5 29 17 25 9 -2 15 -17 16 -42z m762 12 c-3 -8 -6 -5 -6 6 -1 11 2
17 5 13 3 -3 4 -12 1 -19z m-347 -17 c0 -10 -7 -22 -16 -25 -25 -10 -28 0 -7
22 23 26 23 26 23 3z m-500 -37 c0 -9 -5 -14 -12 -12 -18 6 -21 28 -4 28 9 0
16 -7 16 -16z m-40 -14 c0 -11 -7 -20 -15 -20 -18 0 -19 12 -3 28 16 16 18 15
18 -8z m5117 4 c-3 -3 -12 -4 -19 -1 -8 3 -5 6 6 6 11 1 17 -2 13 -5z m-59
-19 c-4 -12 -107 -18 -128 -8 -8 4 13 10 50 13 78 8 82 7 78 -5z m149 9 c-3
-3 -12 -4 -19 -1 -8 3 -5 6 6 6 11 1 17 -2 13 -5z m1128 -28 c28 -21 12 -46
-30 -46 -36 0 -42 10 -29 44 8 20 34 21 59 2z m-7330 -6 c8 -13 -15 -13 -35 0
-12 8 -11 10 7 10 12 0 25 -4 28 -10z m-101 -75 c4 -20 4 -25 -3 -16 -7 11
-10 8 -14 -15 -2 -16 -5 -2 -5 31 -1 60 9 60 22 0z m4006 45 c0 -5 6 -10 13
-10 10 0 52 -60 45 -64 -2 -1 -20 17 -42 41 -21 24 -34 43 -27 43 6 0 11 -4
11 -10z m-3630 -10 c0 -5 -9 -10 -20 -10 -11 0 -20 5 -20 10 0 6 9 10 20 10
11 0 20 -4 20 -10z m3370 -10 c6 -11 9 -20 7 -20 -2 0 -12 9 -22 20 -10 11
-13 20 -7 20 6 0 16 -9 22 -20z m-3179 -10 c10 0 19 -6 19 -14 0 -11 -18 -15
-71 -18 -74 -3 -102 4 -84 21 10 10 80 20 103 14 8 -2 22 -3 33 -3z m-518 -37
c-5 -33 -23 -47 -23 -18 0 14 22 57 26 52 1 -1 -1 -17 -3 -34z m822 16 c0 -10
-12 -13 -47 -12 -26 1 -67 -4 -90 -13 -39 -14 -46 -13 -80 3 -21 10 -38 21
-38 25 0 10 71 16 170 14 67 -2 85 -5 85 -17z m-605 0 c0 -5 10 -9 22 -7 11 2
23 -3 25 -9 7 -21 -26 -27 -46 -9 -10 9 -32 16 -49 16 -17 0 -34 5 -37 10 -4
6 12 10 39 10 26 0 46 -5 46 -11z m6898 -46 c4 -26 -31 -48 -56 -37 -9 4 -24
8 -32 8 -25 2 -18 39 10 47 44 13 75 6 78 -18z m-2042 -28 c17 -19 26 -35 19
-35 -7 0 -25 16 -39 35 -15 19 -24 35 -20 35 4 0 22 -16 40 -35z m2710 -12
c17 -23 17 -48 1 -62 -11 -8 -18 -6 -32 9 -10 11 -24 20 -32 20 -13 0 -18 31
-6 43 13 13 56 7 69 -10z m-426 -13 c13 -9 13 -11 0 -20 -22 -15 -30 -12 -30
10 0 22 8 25 30 10z m-7377 -12 c6 -19 -11 -48 -29 -48 -20 0 -29 27 -14 45
15 18 37 19 43 3z m6447 -17 c16 -31 12 -50 -10 -48 -16 1 -20 8 -20 34 0 37
14 43 30 14z m-520 -17 c0 -9 -7 -14 -17 -12 -25 5 -28 28 -4 28 12 0 21 -6
21 -16z m368 -10 c25 -7 30 -45 8 -63 -18 -15 -86 -10 -86 7 0 6 4 12 9 12 5
0 12 11 15 25 7 26 15 29 54 19z m547 -4 c-3 -5 -10 -10 -16 -10 -5 0 -9 5 -9
10 0 6 7 10 16 10 8 0 12 -4 9 -10z m-4587 -22 c-17 -10 -48 -10 -48 0 0 5 14
9 30 9 20 0 26 -3 18 -9z m4617 2 c3 -5 1 -10 -4 -10 -6 0 -11 5 -11 10 0 6 2
10 4 10 3 0 8 -4 11 -10z m-797 -19 c7 -4 15 -17 17 -27 2 -10 4 -19 5 -19 1
0 3 -8 5 -17 2 -10 0 -18 -4 -18 -8 0 -43 -27 -72 -55 -9 -9 -32 -18 -52 -22
l-35 -5 5 43 c11 80 86 149 131 120z m302 -3 c0 -22 -17 -41 -29 -34 -19 12
-13 46 9 46 11 0 20 -6 20 -12z m-4270 -12 c0 -15 -27 -25 -47 -19 -26 9 -13
33 17 33 19 0 30 -5 30 -14z m4979 0 c8 -10 9 -16 1 -21 -13 -8 -30 3 -30 21
0 18 14 18 29 0z m-6751 -40 c2 -10 -1 -23 -6 -28 -14 -14 -62 -1 -62 15 0 37
62 49 68 13z m646 -21 c4 -10 -1 -15 -14 -15 -11 0 -20 7 -20 15 0 8 6 15 14
15 8 0 16 -7 20 -15z m96 6 c0 -5 10 -12 23 -14 13 -3 8 -5 -15 -6 -28 -1 -38
3 -38 14 0 8 7 15 15 15 8 0 15 -4 15 -9z m4545 -91 c4 -6 -5 -10 -19 -10 -14
0 -26 5 -26 10 0 6 9 10 19 10 11 0 23 -4 26 -10z m-1197 -25 c-3 -3 -9 2 -12
12 -6 14 -5 15 5 6 7 -7 10 -15 7 -18z m-2508 -17 c0 -5 -4 -8 -10 -8 -5 0
-10 10 -10 23 0 18 2 19 10 7 5 -8 10 -18 10 -22z m3285 13 c38 -9 36 -9 -24
-8 -45 2 -66 6 -69 16 -5 14 5 14 93 -8z m752 13 c-3 -3 -12 -4 -19 -1 -8 3
-5 6 6 6 11 1 17 -2 13 -5z m-250 -20 c-3 -3 -12 -4 -19 -1 -8 3 -5 6 6 6 11
1 17 -2 13 -5z m-679 -50 c34 -9 26 -24 -12 -24 -36 0 -56 14 -34 23 18 7 20
7 46 1z m-1096 -55 c-15 -53 -25 -59 -65 -48 -29 8 -37 15 -37 33 0 26 32 52
71 58 29 4 40 -11 31 -43z m1188 41 c0 -5 -9 -10 -21 -10 -11 0 -17 5 -14 10
3 6 13 10 21 10 8 0 14 -4 14 -10z m-1021 -187 c1 -68 -23 -55 -38 20 -11 58
-9 117 6 157 7 18 31 -116 32 -177z m276 147 c12 -19 -12 -10 -31 11 -19 22
-19 22 3 10 12 -6 25 -16 28 -21z m1195 -35 c0 -21 -28 -31 -43 -16 -9 9 -8
14 3 21 22 14 40 12 40 -5z m-1333 -26 c10 -26 9 -33 -7 -49 -18 -18 -18 -17
-23 18 -7 65 11 83 30 31z m1211 3 c2 -7 -3 -12 -12 -12 -9 0 -16 7 -16 16 0
17 22 14 28 -4z m-970 -29 c5 -18 -16 -16 -35 3 -15 14 -14 16 7 12 13 -1 25
-9 28 -15z m977 -75 c19 -75 -17 -148 -71 -148 -25 0 -27 4 -24 61 1 21 -3 40
-9 44 -6 3 -11 1 -11 -4 0 -6 -5 -11 -11 -11 -6 0 -9 10 -7 23 2 17 11 23 36
25 17 2 32 7 32 12 0 7 9 11 52 19 4 0 10 -9 13 -21z m-3327 -126 l-4 -37 -12
30 c-7 16 -10 41 -7 54 6 23 8 24 16 8 6 -9 9 -34 7 -55z m-38 -78 c0 -31 -23
-28 -28 4 -2 15 2 22 12 22 11 0 16 -9 16 -26z m3640 -63 c0 -6 14 -11 30 -11
23 0 33 -6 42 -25 15 -34 6 -40 -34 -22 -18 9 -48 18 -65 22 -37 7 -43 28 -17
56 14 15 18 16 30 4 8 -7 14 -18 14 -24z m-876 0 c7 -10 -22 -37 -30 -28 -9 8
3 37 15 37 5 0 12 -4 15 -9z m126 -55 c0 -3 -4 -8 -10 -11 -5 -3 -10 -1 -10 4
0 6 5 11 10 11 6 0 10 -2 10 -4z m144 -10 c-6 -16 -47 -46 -63 -46 -13 0 -10
43 4 52 5 4 22 8 37 8 20 0 26 -4 22 -14z m784 -68 c-2 -15 -18 -30 -46 -45
-24 -12 -48 -26 -55 -31 -7 -5 -22 -13 -34 -16 -38 -12 -28 20 15 45 20 13 48
34 62 46 33 30 62 31 58 1z m-287 -37 c-17 -14 -31 -32 -31 -38 0 -7 -9 -13
-19 -13 -52 0 -29 64 28 78 51 13 59 3 22 -27z m393 8 c29 -35 33 -75 13 -151
-17 -63 -33 -80 -53 -54 -8 11 -14 28 -14 39 0 10 -5 27 -10 37 -7 13 -7 21 1
25 7 5 8 29 4 71 -7 60 -6 64 13 64 11 0 32 -14 46 -31z m-4235 -108 c12 -8
13 -16 3 -48 -17 -59 -22 -134 -10 -175 10 -34 14 -37 37 -32 36 9 33 9 58 1
12 -5 23 -17 25 -27 3 -19 5 -19 32 -5 39 21 40 20 62 -22 10 -21 24 -42 29
-46 6 -4 -2 -5 -16 -2 -20 5 -32 1 -47 -15 -13 -15 -25 -19 -34 -14 -20 13
-31 11 -48 -6 -15 -15 -81 -25 -150 -22 -19 0 -73 -4 -119 -10 -78 -10 -85 -9
-98 8 -13 17 -15 17 -42 1 -21 -12 -62 -18 -152 -22 -68 -3 -158 -8 -199 -9
-41 -2 -82 -7 -91 -10 -19 -8 -69 10 -84 30 -10 14 -16 13 -49 -10 -42 -28
-71 -32 -111 -14 -22 10 -29 8 -50 -12 -19 -18 -30 -21 -57 -15 -18 3 -44 6
-58 7 -59 0 -272 -10 -350 -17 -97 -8 -98 -7 -120 64 -13 39 -12 46 6 79 16
31 26 38 64 44 25 5 57 4 72 -1 18 -7 30 -6 34 1 4 6 20 7 38 4 50 -11 145 -6
229 10 60 12 81 13 92 4 7 -6 26 -10 42 -8 15 2 33 -2 38 -9 7 -9 25 -4 70 18
62 30 101 31 111 4 5 -12 11 -11 36 7 26 18 35 19 62 11 32 -11 196 -10 276 2
78 10 105 9 153 -10 9 -4 17 -3 17 3 0 5 16 17 36 27 27 13 42 15 59 7 28 -13
42 -4 50 31 4 15 14 27 24 28 10 0 11 2 4 6 -17 6 -16 23 3 44 16 18 49 15 38
-3 -4 -6 -1 -9 7 -6 9 3 16 25 19 59 7 76 22 93 59 70z m3469 -49 c19 -25 15
-41 -10 -35 -29 7 -58 32 -58 50 0 18 50 7 68 -15z m-3658 -3 c0 -11 -5 -29
-11 -41 -12 -23 -10 -26 19 -31 30 -4 39 -16 22 -27 -9 -5 -19 -5 -27 2 -10 8
-13 6 -13 -6 0 -9 -12 -18 -27 -22 -16 -4 -30 -10 -33 -14 -3 -4 -15 -10 -27
-14 -19 -6 -23 -4 -23 13 0 15 7 21 23 21 15 1 10 5 -18 15 -22 8 -41 15 -42
15 -2 0 -3 9 -3 21 l0 20 -29 -20 c-40 -29 -58 -19 -56 27 3 37 3 37 45 35 26
-1 48 4 57 13 10 9 36 14 79 14 58 0 64 -2 64 -21z m-1210 -20 c4 -6 5 -19 3
-29 -3 -10 0 -28 7 -39 17 -32 4 -61 -28 -61 -15 0 -43 -5 -62 -10 -40 -12
-85 2 -95 27 -5 14 -7 14 -18 -2 -15 -19 -48 -17 -55 3 -2 7 24 40 58 72 l61
60 61 -5 c34 -2 65 -9 68 -16z m500 -12 c11 -24 20 -31 38 -29 37 5 40 -27 6
-55 -36 -29 -57 -29 -77 0 l-16 22 -16 -22 c-20 -28 -70 -31 -84 -5 -5 9 -11
33 -13 52 -3 35 -3 35 32 31 19 -1 43 -8 54 -13 19 -10 40 7 30 24 -3 4 -2 13
1 18 12 19 30 10 45 -23z m-286 7 c13 -8 27 -26 30 -40 4 -14 12 -24 19 -23
27 3 37 -2 37 -21 0 -15 -7 -20 -29 -20 -17 0 -33 5 -36 10 -3 6 -1 10 6 10 9
0 9 4 -1 15 -9 11 -15 12 -25 2 -7 -7 -9 -13 -4 -15 5 -2 1 -15 -8 -28 -22
-34 -54 -28 -75 14 -9 19 -19 29 -23 23 -11 -18 -55 -13 -56 7 0 9 -2 26 -3
37 -2 16 4 20 28 22 16 1 37 -4 46 -12 15 -14 18 -13 28 10 13 29 33 32 66 9z
m506 -19 c0 -24 -6 -37 -21 -45 -33 -18 -49 -5 -49 40 0 39 1 40 35 40 33 0
35 -2 35 -35z m4270 5 c0 -5 -4 -10 -10 -10 -5 0 -10 5 -10 10 0 6 5 10 10 10
6 0 10 -4 10 -10z m-4066 -16 c24 -9 19 -41 -9 -60 -46 -30 -74 4 -38 46 19
22 23 23 47 14z m-1456 -65 c-2 -23 -9 -35 -20 -37 -20 -4 -26 32 -7 43 6 4 8
13 5 20 -6 17 5 28 17 16 4 -4 7 -24 5 -42z m1132 20 c0 -5 -4 -9 -10 -9 -5 0
-10 7 -10 16 0 8 5 12 10 9 6 -3 10 -10 10 -16z m890 -48 c0 -28 -40 -39 -56
-16 -18 24 -9 35 27 35 22 0 29 -5 29 -19z m2561 -32 c34 -24 38 -57 9 -82
-28 -23 -39 -21 -50 9 -8 19 -16 25 -30 21 -27 -7 -37 29 -14 54 22 25 49 24
85 -2z m1054 -149 c-9 -28 -18 -18 -21 22 -2 27 -1 29 13 15 10 -9 13 -23 8
-37z m-3179 -76 c-3 -9 -12 -14 -19 -12 -15 5 -21 33 -12 55 5 14 8 13 21 -6
9 -12 13 -29 10 -37z m-196 4 c0 -19 -2 -20 -10 -8 -13 19 -13 30 0 30 6 0 10
-10 10 -22z m-250 -28 c12 -7 12 -12 2 -22 -6 -6 -12 -20 -12 -31 0 -30 -25
-47 -69 -47 -41 0 -41 0 -41 39 0 63 6 71 59 71 25 0 53 -5 61 -10z m-180 -20
c12 -8 13 -13 3 -29 -7 -11 -10 -27 -7 -36 13 -33 -12 -13 -28 23 -21 49 -8
67 32 42z m-90 -27 c0 -25 -1 -26 -16 -11 -9 9 -13 21 -10 27 13 20 26 11 26
-16z m-905 -37 c13 -13 27 -37 31 -52 11 -44 -20 -62 -103 -60 -75 2 -93 8
-93 35 0 25 20 40 57 43 22 1 36 10 48 30 20 34 29 35 60 4z m607 7 c56 -65 3
-102 -104 -72 -28 7 -38 15 -38 31 0 16 4 19 24 14 19 -5 29 0 43 19 21 29 54
32 75 8z m-914 -34 c1 -19 8 -44 14 -56 22 -44 -32 -72 -66 -34 -16 17 -16 24
-5 55 7 20 17 36 21 36 4 0 8 9 8 21 0 35 25 15 28 -22z m98 -20 c2 -29 -1
-38 -16 -42 -16 -4 -22 3 -30 31 -14 52 -13 54 17 50 23 -3 27 -8 29 -39z
m-618 -30 c3 -46 -11 -66 -35 -51 -16 11 -23 78 -10 91 24 24 42 7 45 -40z
m5789 19 c-3 -7 -5 -2 -5 12 0 14 2 19 5 13 2 -7 2 -19 0 -25z m-4657 -13 c0
-8 -9 -15 -20 -15 -11 0 -20 7 -20 15 0 8 9 15 20 15 11 0 20 -7 20 -15z
m4310 -225 c0 -5 -5 -10 -11 -10 -5 0 -7 5 -4 10 3 6 8 10 11 10 2 0 4 -4 4
-10z m-3426 -107 c4 -3 5 -18 2 -34 -3 -16 -1 -29 4 -29 12 0 14 -30 3 -30 -5
-1 -36 -3 -70 -6 l-62 -4 -7 35 c-3 19 -3 47 0 61 7 26 8 26 64 19 31 -4 61
-9 66 -12z m130 -7 c15 -59 -41 -105 -65 -53 -15 34 4 77 35 77 17 0 26 -7 30
-24z m3954 -5 c-6 -11 -18 -17 -25 -14 -11 4 -10 9 4 23 22 22 37 15 21 -9z
m-4363 -6 c16 -80 16 -94 -3 -104 -27 -15 -72 7 -72 36 0 14 -9 24 -30 32 -62
21 -26 61 53 58 39 -2 48 -6 52 -22z m-287 -24 c2 -13 -2 -27 -9 -32 -7 -4
-13 -20 -14 -35 0 -26 -2 -27 -60 -28 l-59 -1 -7 34 c-5 24 -3 42 8 57 17 27
34 33 93 31 39 -2 45 -5 48 -26z m392 10 c0 -11 3 -26 6 -34 3 -10 -3 -20 -17
-27 -19 -11 -24 -10 -35 5 -7 9 -11 23 -8 31 2 8 6 21 9 29 7 23 45 19 45 -4z
m-695 -56 l0 -60 -50 -11 c-27 -7 -62 -13 -76 -13 -25 -1 -27 2 -32 56 -4 34
-2 62 4 70 6 6 36 14 67 16 92 6 87 9 87 -58z m403 38 c3 -22 -30 -53 -56 -53
-13 0 -12 46 3 70 12 19 50 7 53 -17z m4492 11 c0 -16 -31 -72 -48 -87 -20
-18 -21 -18 -31 2 -16 28 -14 35 16 68 17 19 34 28 45 25 10 -2 18 -6 18 -8z
m-5210 -63 c0 -20 -7 -44 -15 -55 -13 -17 -14 -15 -20 18 -4 20 -11 36 -16 36
-15 0 -10 22 8 35 27 20 43 7 43 -34z m115 5 c-3 -12 -7 -28 -9 -36 -2 -8 -11
-15 -22 -15 -27 0 -34 81 -7 87 26 6 45 -12 38 -36z m-595 -6 c0 -23 -24 -43
-47 -38 -23 5 -20 48 4 65 20 15 43 0 43 -27z m5324 25 c-4 -8 -8 -15 -10 -15
-2 0 -4 7 -4 15 0 8 4 15 10 15 5 0 7 -7 4 -15z m-4424 -25 c0 -11 -22 -18
-38 -12 -9 3 -10 8 -2 18 12 13 40 9 40 -6z m-600 -82 c0 -15 -26 -8 -43 12
-22 26 -22 58 1 62 12 2 21 -7 29 -32 7 -19 13 -38 13 -42z m-660 22 c0 -16
-4 -30 -10 -30 -5 0 -8 10 -6 23 3 12 5 25 5 30 2 21 11 3 11 -23z m393 -16
c10 -3 17 -15 17 -29 0 -30 -34 -43 -58 -22 -9 7 -25 17 -34 20 -18 6 -24 28
-11 41 6 6 42 2 86 -10z m5589 -69 c0 -5 -5 -11 -11 -13 -6 -2 -11 4 -11 13 0
9 5 15 11 13 6 -2 11 -8 11 -13z m-422 -57 c0 -7 -12 -21 -25 -31 -23 -17 -25
-17 -35 2 -17 32 -12 41 25 41 22 0 35 -5 35 -12z m-3455 -128 c3 -5 1 -10 -4
-10 -6 0 -11 5 -11 10 0 6 2 10 4 10 3 0 8 -4 11 -10z m-208 -19 c14 14 45 7
35 -7 -4 -6 -24 -14 -44 -18 -34 -6 -38 -5 -38 14 0 17 3 19 18 11 13 -7 22
-7 29 0z m-879 -50 c8 -4 12 -19 10 -32 -2 -18 -10 -25 -30 -27 -24 -3 -28 0
-28 20 0 22 16 48 30 48 3 0 11 -4 18 -9z m-84 -7 c28 -11 18 -34 -14 -34 -32
0 -37 9 -18 28 14 14 12 14 32 6z m332 -21 c-10 -10 -19 5 -10 18 6 11 8 11
12 0 2 -7 1 -15 -2 -18z m690 -75 c-13 -65 -56 -76 -56 -14 0 39 6 46 38 46
22 0 24 -3 18 -32z m-1914 5 c16 -15 17 -18 3 -33 -12 -13 -13 -23 -6 -43 12
-30 3 -133 -13 -145 -6 -5 -25 -14 -43 -20 -42 -14 -49 -4 -58 80 -7 70 4 103
34 103 9 0 15 11 15 28 2 44 36 59 68 30z m-95 -25 c-3 -8 -6 -5 -6 6 -1 11 2
17 5 13 3 -3 4 -12 1 -19z m1118 5 c-4 -10 -10 -37 -12 -60 -6 -43 -24 -70
-41 -59 -13 8 -24 88 -17 109 6 14 24 22 64 26 9 1 11 -5 6 -16z m-107 -15
c-5 -15 -33 -22 -54 -14 -24 9 -6 26 27 26 20 0 29 -4 27 -12z m1321 8 c-12
-10 -59 -15 -59 -6 0 5 14 10 32 10 17 0 29 -2 27 -4z m-1931 -32 c4 -27 -19
-46 -60 -47 -42 -2 -51 28 -17 55 31 24 73 20 77 -8z m1272 -54 c19 -19 25
-35 20 -55 -1 -5 -2 -33 -1 -62 1 -30 -3 -54 -10 -58 -15 -10 -28 12 -22 35 4
13 -2 19 -19 22 -15 2 -24 11 -26 26 -2 12 -7 22 -11 22 -11 0 -22 56 -15 75
9 22 60 19 84 -5z m725 -130 c0 -7 -6 -15 -12 -17 -8 -3 -13 4 -13 17 0 13 5
20 13 18 6 -3 12 -11 12 -18z m-2329 -33 c2 -7 0 -24 -5 -38 -5 -13 -10 -19
-10 -12 -1 18 -31 3 -31 -16 -1 -14 -3 -13 -15 3 -16 21 -20 58 -8 69 12 12
63 7 69 -6z m2317 -8 c-8 -8 -16 -8 -30 0 -16 9 -14 10 12 11 21 0 26 -3 18
-11z m-673 -19 c0 -5 -4 -10 -10 -10 -5 0 -10 5 -10 10 0 6 5 10 10 10 6 0 10
-4 10 -10z m-57 -17 c-7 -2 -19 -2 -25 0 -7 3 -2 5 12 5 14 0 19 -2 13 -5z"/>
<path d="M7910 6345 c-13 -16 -6 -50 9 -41 11 7 21 56 11 56 -4 0 -13 -7 -20
-15z"/>
<path d="M7970 6325 c0 -8 5 -15 10 -15 6 0 10 7 10 15 0 8 -4 15 -10 15 -5 0
-10 -7 -10 -15z"/>
<path d="M2720 6322 c0 -15 -6 -22 -19 -22 -25 0 -32 -22 -12 -37 14 -11 13
-13 -8 -20 -23 -6 -23 -7 -6 -13 22 -8 45 10 45 34 0 9 6 13 15 10 12 -5 13
-1 3 27 -14 43 -18 48 -18 21z"/>
<path d="M2450 6255 c0 -9 -9 -19 -20 -23 -13 -5 -17 -11 -11 -21 10 -16 31
-6 31 16 0 9 6 13 15 9 13 -4 14 -2 5 14 -13 24 -20 26 -20 5z"/>
<path d="M2050 5740 c0 -5 5 -10 11 -10 5 0 7 -6 3 -12 -5 -10 -4 -10 6 -1 7
6 9 16 6 22 -9 14 -26 14 -26 1z"/>
<path d="M1790 6099 c-7 -11 -9 -27 -6 -35 9 -23 56 4 56 33 0 30 -35 32 -50
2z"/>
<path d="M1530 6092 c0 -4 6 -16 13 -26 11 -16 15 -16 19 -4 4 8 -2 20 -13 26
-10 7 -19 8 -19 4z"/>
<path d="M1920 4620 c0 -5 9 -10 20 -10 11 0 20 5 20 10 0 6 -9 10 -20 10 -11
0 -20 -4 -20 -10z"/>
<path d="M5954 6149 c-9 -15 11 -32 32 -26 16 4 15 5 -3 6 -16 1 -21 6 -17 16
7 17 -2 20 -12 4z"/>
<path d="M8170 6111 c0 -6 5 -13 10 -16 6 -3 10 1 10 9 0 9 -4 16 -10 16 -5 0
-10 -4 -10 -9z"/>
<path d="M5706 6035 c-22 -39 -18 -48 22 -50 52 -3 71 40 30 69 -30 21 -31 21
-52 -19z"/>
<path d="M8170 5970 c0 -5 5 -10 11 -10 5 0 7 5 4 10 -3 6 -8 10 -11 10 -2 0
-4 -4 -4 -10z"/>
<path d="M5610 5879 c0 -5 5 -7 10 -4 6 3 10 8 10 11 0 2 -4 4 -10 4 -5 0 -10
-5 -10 -11z"/>
<path d="M6086 5805 l-28 -26 17 -38 c13 -30 21 -37 36 -34 22 6 24 14 8 30
-8 8 -6 18 5 35 13 20 14 27 3 42 -12 16 -15 16 -41 -9z"/>
<path d="M7006 5762 c-3 -5 -20 -12 -38 -16 l-33 -7 23 -17 c28 -22 127 -23
127 -2 0 7 -8 14 -18 16 -10 1 -27 10 -37 19 -10 9 -21 12 -24 7z"/>
<path d="M246 5753 c-13 -13 -5 -43 12 -44 93 -7 152 -7 152 1 0 5 -11 12 -25
16 -13 3 -29 12 -35 19 -8 9 -20 11 -39 5 -15 -4 -35 -4 -43 1 -8 5 -18 6 -22
2z"/>
<path d="M7635 5720 c-3 -6 1 -7 9 -4 18 7 21 14 7 14 -6 0 -13 -4 -16 -10z"/>
<path d="M7987 5705 c3 -8 9 -12 14 -9 12 7 11 11 -5 17 -10 4 -13 1 -9 -8z"/>
<path d="M438 5703 c7 -3 16 -2 19 1 4 3 -2 6 -13 5 -11 0 -14 -3 -6 -6z"/>
<path d="M8099 5659 c-6 -12 -8 -34 -5 -50 5 -24 2 -29 -14 -29 -23 0 -24 4
-9 31 5 11 7 30 3 42 l-7 22 -8 -21 c-6 -18 -19 -22 -86 -28 -43 -4 -100 -7
-127 -6 -28 0 -64 -6 -85 -16 -20 -10 -62 -20 -94 -22 -57 -4 -57 -4 -68 28
-9 23 -14 28 -20 18 -7 -10 -9 -10 -9 0 0 8 -5 10 -12 5 -7 -4 -35 -13 -63
-18 -48 -10 -50 -12 -47 -41 4 -36 -18 -50 -50 -33 -14 8 -19 18 -15 34 3 21
1 23 -14 15 -27 -15 -60 -12 -81 6 -14 13 -21 14 -32 5 -11 -9 -25 -9 -55 -1
-23 6 -47 8 -54 3 -6 -4 -47 -6 -89 -4 -78 3 -78 3 -78 -23 0 -19 -6 -27 -25
-32 -14 -3 -31 -2 -38 4 -6 5 -19 10 -27 11 -8 0 -35 3 -60 5 -25 2 -59 6 -77
8 -39 5 -79 -22 -70 -46 4 -9 12 -16 19 -15 29 3 36 -3 42 -36 5 -25 12 -35
26 -35 32 0 51 -12 61 -36 11 -31 27 -30 35 1 3 14 9 25 13 26 23 3 348 4 359
1 6 -2 12 -19 12 -38 0 -18 5 -45 12 -59 11 -24 12 -24 30 -9 11 10 18 12 18
6 0 -19 28 -14 43 8 7 10 22 19 33 19 90 2 159 -1 166 -5 16 -10 48 8 48 27 0
15 7 19 39 19 29 0 41 -5 44 -17 3 -13 5 -12 6 5 l1 23 138 -5 c75 -3 149 -5
163 -5 20 -1 28 -7 33 -26 7 -27 25 -31 56 -15 14 7 28 6 54 -6 63 -30 66 -23
66 145 0 144 -1 151 -22 165 -31 22 -65 20 -79 -5z m-976 -102 c4 3 7 -3 7
-15 0 -17 -6 -22 -26 -22 -14 0 -23 4 -19 9 3 5 0 13 -6 17 -8 5 -7 9 2 15 7
4 18 4 25 -1 6 -6 14 -7 17 -3z m187 -32 c35 -13 34 -13 -37 -14 -40 -1 -73 3
-73 8 0 23 59 26 110 6z m-400 -19 c0 -3 -4 -8 -10 -11 -5 -3 -10 -1 -10 4 0
6 5 11 10 11 6 0 10 -2 10 -4z"/>
<path d="M6811 5634 c6 -8 18 -14 26 -14 20 0 8 16 -17 23 -17 4 -19 3 -9 -9z"/>
<path d="M6550 5611 c0 -5 5 -13 10 -16 6 -3 10 -2 10 4 0 5 -4 13 -10 16 -5
3 -10 2 -10 -4z"/>
<path d="M6460 5523 c0 -5 5 -15 10 -23 8 -12 10 -11 10 8 0 12 -4 22 -10 22
-5 0 -10 -3 -10 -7z"/>
<path d="M6349 5456 c-2 -2 -58 -6 -124 -10 -66 -3 -121 -6 -122 -6 -9 -1 -1
-40 7 -40 6 0 10 -7 10 -16 0 -12 8 -15 34 -13 20 2 44 -4 62 -15 19 -13 29
-15 32 -8 2 7 8 12 14 12 6 0 8 -6 5 -14 -3 -8 -1 -31 4 -51 7 -25 7 -41 1
-47 -7 -7 -4 -23 10 -47 34 -62 68 -90 68 -58 0 8 9 22 20 32 11 10 20 29 20
42 0 15 4 22 11 17 23 -14 -15 42 -60 88 -27 29 -55 48 -68 48 -12 0 -24 4
-27 9 -3 4 11 7 32 7 20 -1 68 -3 105 -4 65 -2 68 -3 66 -24 -4 -26 7 -48 22
-48 6 0 8 3 5 8 -8 14 48 39 69 31 20 -7 20 -8 0 -8 -16 -1 -17 -3 -5 -11 9
-5 19 -5 27 2 17 13 17 35 1 41 -7 2 7 3 32 3 30 -1 44 -5 43 -13 -2 -8 7 -13
25 -12 16 1 20 3 10 6 -10 2 -18 8 -18 13 0 5 7 7 15 4 12 -5 15 3 15 35 0 34
-3 41 -19 41 -10 0 -21 -7 -25 -15 -7 -19 -40 -19 -102 0 -44 14 -186 29 -195
21z"/>
<path d="M55 5350 c-3 -5 1 -10 10 -10 9 0 13 5 10 10 -3 6 -8 10 -10 10 -2 0
-7 -4 -10 -10z"/>
<path d="M3873 5353 c-7 -3 -13 -11 -13 -19 0 -8 -4 -14 -9 -14 -15 0 -19 -39
-5 -51 21 -17 7 -29 -36 -29 -32 0 -39 4 -42 23 -3 20 -5 19 -23 -13 -21 -35
-65 -160 -65 -182 0 -7 9 5 20 27 11 22 20 44 20 49 0 5 9 20 20 32 19 19 24
20 57 9 38 -13 71 -7 107 20 17 13 17 15 -8 48 -23 30 -25 37 -15 66 12 35 11
41 -8 34z"/>
<path d="M6066 5285 c-8 -21 -8 -70 0 -77 3 -3 14 -4 25 -1 25 7 26 54 0 77
-17 15 -19 15 -25 1z"/>
<path d="M6475 5290 c-3 -6 1 -17 9 -26 11 -11 13 -21 7 -33 -14 -24 -2 -101
15 -101 8 0 14 7 14 15 0 8 -5 15 -11 15 -7 0 -9 12 -5 33 15 80 14 107 -5
107 -10 0 -21 -5 -24 -10z"/>
<path d="M7968 5291 c-71 -6 -88 -15 -70 -33 8 -8 -2 -16 -41 -29 -45 -15 -54
-16 -68 -3 -8 8 -19 12 -22 9 -4 -3 -3 1 3 7 20 24 11 38 -27 38 l-38 0 -1
-50 c0 -47 1 -50 25 -50 75 -1 182 -13 226 -25 28 -7 85 -16 128 -19 l77 -6 0
54 c0 29 -7 67 -16 84 -17 35 -25 36 -176 23z"/>
<path d="M3626 5174 c-4 -14 -5 -29 -2 -31 3 -3 8 7 12 21 3 15 4 29 1 32 -2
3 -8 -7 -11 -22z"/>
<path d="M6151 5180 c2 -14 -1 -31 -5 -39 -7 -11 -5 -13 8 -8 10 4 20 7 22 7
9 0 2 26 -12 45 -15 20 -16 19 -13 -5z"/>
<path d="M6526 5118 c-9 -36 -8 -40 22 -36 19 2 27 8 26 21 -1 9 2 17 7 17 5
0 9 5 9 10 0 6 -13 10 -29 10 -21 0 -30 -6 -35 -22z"/>
<path d="M3611 5094 c0 -11 3 -14 6 -6 3 7 2 16 -1 19 -3 4 -6 -2 -5 -13z"/>
<path d="M3606 5045 c4 -8 8 -15 10 -15 2 0 4 7 4 15 0 8 -4 15 -10 15 -5 0
-7 -7 -4 -15z"/>
<path d="M3664 5042 c-6 -4 -14 -16 -18 -27 -6 -16 -9 -17 -16 -5 -8 12 -10 9
-10 -11 0 -42 22 -77 54 -83 38 -8 40 -4 15 25 -16 19 -20 33 -16 67 2 23 4
42 3 42 0 0 -6 -4 -12 -8z"/>
<path d="M3265 4990 c-22 -4 -43 -6 -48 -3 -7 4 -69 -13 -99 -28 -10 -5 -23
-9 -29 -9 -9 0 -74 -27 -87 -36 -2 -1 0 -13 3 -27 8 -31 72 -48 90 -24 7 10
30 15 71 16 34 0 74 5 88 11 15 5 61 10 102 10 59 0 79 4 95 19 17 16 18 19 5
24 -9 4 -16 16 -16 27 0 24 2 23 -57 8 -40 -10 -47 -9 -55 5 -5 10 -12 16 -16
16 -4 -1 -25 -5 -47 -9z"/>
<path d="M7285 4911 c-3 -2 -5 -37 -5 -77 0 -56 3 -73 16 -78 26 -10 62 -7 71
7 10 17 3 129 -9 145 -10 11 -63 14 -73 3z"/>
<path d="M7511 4897 c-8 -11 -9 -33 -4 -78 8 -61 9 -64 41 -73 53 -15 66 5 55
90 l-8 69 -36 3 c-22 2 -40 -2 -48 -11z"/>
<path d="M7751 4896 c-7 -9 -11 -41 -9 -82 l3 -69 38 -6 c56 -9 68 7 61 84 -7
66 -21 87 -60 87 -12 0 -27 -6 -33 -14z"/>
<path d="M7980 4826 c0 -41 5 -78 10 -81 6 -4 26 -9 45 -11 45 -5 53 12 47 99
l-4 67 -49 0 -49 0 0 -74z"/>
<path d="M6543 4863 c-22 -22 -27 -40 -23 -78 l1 -20 9 20 c5 11 11 33 15 49
4 19 9 26 14 18 5 -9 13 -6 29 10 l21 23 -22 0 c-12 0 -32 -10 -44 -22z"/>
<path d="M3224 4729 c-40 -11 -62 -37 -79 -92 -11 -37 -11 -49 0 -70 20 -39
28 -84 16 -92 -16 -9 -13 -51 4 -69 27 -27 84 -37 121 -21 42 17 43 29 4 47
-49 21 -53 78 -6 78 12 0 44 7 69 16 54 18 74 57 43 80 -43 31 75 38 120 7 31
-20 116 -43 164 -43 50 0 24 26 -38 39 -66 14 -264 76 -293 92 -11 5 -17 14
-14 20 4 5 -6 9 -22 10 -15 0 -35 2 -43 3 -8 2 -29 -1 -46 -5z"/>
<path d="M7279 4538 c0 -2 -3 -47 -5 -100 l-5 -98 31 0 c16 0 30 4 30 9 0 4
11 24 24 44 25 37 29 52 27 99 -1 21 -7 29 -26 33 -14 3 -36 7 -50 10 -14 3
-25 4 -26 3z"/>
<path d="M7514 4529 c-3 -6 -8 -41 -10 -77 -2 -37 -6 -77 -9 -89 -3 -14 1 -25
11 -31 11 -6 14 -16 9 -31 -7 -24 -45 -28 -92 -10 -20 7 -29 7 -31 -1 -3 -7
-11 -5 -23 6 -13 12 -22 14 -31 6 -8 -6 -69 -11 -144 -11 -137 -2 -261 -21
-275 -43 -13 -20 -11 -50 2 -42 16 9 91 11 104 3 6 -4 134 -10 285 -13 502
-12 635 -16 672 -22 20 -3 77 -6 127 -8 l91 -2 0 43 0 44 -72 0 c-40 0 -89 1
-108 4 -19 2 -72 5 -118 6 -45 1 -85 5 -88 10 -2 5 -43 6 -89 4 -100 -4 -110
2 -100 68 4 27 3 47 -3 51 -6 4 -8 22 -5 41 9 54 -3 85 -33 85 -14 0 -34 5
-44 10 -13 7 -21 7 -26 -1z m66 -128 c0 -6 -4 -13 -10 -16 -5 -3 -10 1 -10 9
0 9 5 16 10 16 6 0 10 -4 10 -9z"/>
<path d="M7749 4528 c-1 -2 -3 -23 -5 -48 -2 -25 -7 -69 -12 -98 -7 -41 -5
-55 6 -65 18 -15 95 -14 100 2 2 6 15 11 28 11 14 0 22 4 19 10 -3 6 -15 10
-25 10 -10 0 -22 9 -25 20 -4 13 -15 20 -30 20 -13 0 -27 6 -32 13 -12 18 -10
86 4 91 15 6 23 -3 23 -26 0 -14 6 -19 23 -16 17 2 22 10 22 33 0 28 -3 30
-36 31 -20 1 -41 4 -48 8 -6 4 -12 6 -12 4z"/>
<path d="M7981 4463 c-1 -37 -4 -70 -7 -74 -2 -4 -1 -21 2 -38 l7 -32 61 3 61
3 -4 75 c-4 91 -13 110 -51 110 -16 0 -32 5 -35 10 -3 6 -12 10 -19 10 -9 0
-14 -20 -15 -67z"/>
<path d="M5178 4473 c-21 -5 -24 -33 -4 -33 7 0 16 9 19 20 3 11 4 19 4 19 -1
-1 -10 -3 -19 -6z"/>
<path d="M5220 4460 c0 -5 5 -10 10 -10 6 0 10 5 10 10 0 6 -4 10 -10 10 -5 0
-10 -4 -10 -10z"/>
<path d="M5066 4383 c-15 -15 -3 -43 28 -67 19 -14 41 -32 49 -40 12 -12 14
-9 12 22 -2 29 -10 40 -43 63 -22 15 -43 25 -46 22z"/>
<path d="M5183 4300 c-1 -11 4 -20 13 -20 16 0 16 2 8 24 -8 22 -19 20 -21 -4z"/>
<path d="M6880 4233 c0 -21 -66 -46 -108 -41 -22 3 -45 1 -51 -5 -6 -6 -27
-10 -46 -9 -25 1 -35 -2 -32 -11 3 -9 32 -11 101 -9 59 1 105 -2 118 -9 27
-14 70 -17 323 -23 110 -3 214 -9 230 -14 17 -5 39 -7 50 -4 11 3 74 5 140 5
97 0 130 -4 175 -21 46 -17 58 -18 80 -7 24 12 88 12 283 2 49 -2 57 0 57 15
0 10 -3 18 -7 19 -25 2 -507 22 -599 24 -62 2 -146 8 -188 14 -41 6 -169 13
-283 16 -251 7 -257 8 -242 36 6 11 8 23 5 27 -3 3 -6 1 -6 -5z"/>
<path d="M6567 4166 c-21 -22 -21 -23 2 -35 22 -12 32 3 22 33 -7 17 -8 17
-24 2z"/>
<path d="M2528 4096 c-11 -8 -20 -32 -23 -62 -5 -42 -4 -46 6 -26 7 12 16 22
21 22 5 0 6 5 3 10 -4 6 -1 17 5 25 6 8 10 21 8 29 -2 12 -6 12 -20 2z"/>
<path d="M5275 4090 c-3 -5 1 -10 10 -10 9 0 13 5 10 10 -3 6 -8 10 -10 10 -2
0 -7 -4 -10 -10z"/>
<path d="M6591 4044 c0 -11 3 -14 6 -6 3 7 2 16 -1 19 -3 4 -6 -2 -5 -13z"/>
<path d="M6780 4030 c20 -13 40 -13 40 0 0 6 -12 10 -27 10 -22 0 -25 -2 -13
-10z"/>
<path d="M6945 3920 c-23 -6 -25 -8 -8 -9 43 -2 30 -76 -16 -88 -14 -3 -38 -6
-53 -6 -30 0 -34 -15 -29 -99 2 -28 -3 -39 -18 -47 -31 -17 -66 -13 -86 9 -18
20 -45 27 -45 11 0 -4 -26 -11 -57 -15 -41 -5 -61 -12 -71 -27 -12 -17 -23
-20 -57 -17 -31 2 -41 0 -38 -9 3 -7 11 -13 18 -13 7 0 18 -7 25 -15 9 -11 9
-15 1 -15 -7 0 -9 -4 -6 -10 3 -5 17 -10 31 -10 13 0 24 -4 24 -9 0 -20 -13
-41 -21 -35 -5 3 -9 -4 -9 -15 0 -15 6 -21 24 -21 13 0 26 -6 29 -14 3 -8 19
-17 36 -21 17 -4 31 -13 31 -21 0 -8 5 -14 10 -14 6 0 10 7 10 15 0 17 30 35
61 35 31 0 99 22 99 32 0 4 -13 8 -29 8 -17 0 -32 4 -35 9 -3 4 31 11 76 15
44 4 90 11 100 17 11 6 34 8 52 4 17 -3 58 -7 91 -8 l60 -2 9 -37 c7 -28 15
-38 29 -38 20 0 20 0 1 -21 -17 -19 -19 -19 -22 -4 -3 12 -11 16 -28 12 -17
-3 -28 1 -35 14 -5 11 -16 19 -24 19 -47 0 -32 -138 20 -185 6 -5 15 -28 20
-50 8 -30 16 -41 32 -43 20 -3 22 0 17 26 -7 34 9 50 31 32 8 -7 20 -10 26 -8
7 2 -3 15 -22 28 -43 30 -49 39 -49 73 0 21 5 27 23 27 23 0 97 -60 97 -79 0
-6 11 -11 25 -11 18 0 25 5 25 20 0 11 7 20 15 20 23 0 55 -37 55 -65 0 -39
39 -32 91 17 24 22 35 37 24 33 -31 -13 -67 -9 -77 9 -5 9 -23 23 -40 32 -27
14 -30 19 -25 49 5 28 2 35 -14 40 -28 9 -23 38 11 63 28 21 29 24 16 45 -11
18 -12 32 -3 74 6 29 9 54 6 57 -14 14 -59 -9 -70 -35 -19 -46 -56 -61 -83
-33 -17 17 -13 57 9 84 19 25 7 44 -44 68 -59 26 -116 29 -129 5 -12 -20 -42
-11 -42 13 0 9 9 18 20 21 24 6 23 4 8 57 -19 68 -31 74 -103 56z m80 -29 c6
-11 -29 -34 -38 -25 -3 3 -3 12 0 20 6 16 29 19 38 5z m-102 -230 c4 -1 7 -8
7 -16 0 -15 -50 -22 -63 -8 -11 10 12 31 31 28 9 -2 20 -4 25 -4z m352 -131
c-3 -10 -1 -21 5 -25 5 -3 10 -15 10 -25 0 -21 -39 -37 -65 -26 -21 8 -19 23
9 51 13 13 22 26 19 29 -3 2 -2 10 2 15 10 17 27 2 20 -19z m-175 -156 c0 -8
-7 -14 -15 -14 -17 0 -18 2 -9 24 7 18 24 12 24 -10z"/>
<path d="M2777 3883 c-54 -22 -41 -37 34 -41 86 -4 149 6 149 23 0 36 -113 47
-183 18z"/>
<path d="M6905 3880 c-3 -5 1 -10 9 -10 9 0 16 5 16 10 0 6 -4 10 -9 10 -6 0
-13 -4 -16 -10z"/>
<path d="M2539 3748 c-1 -18 -2 -52 -3 -75 -1 -29 3 -43 12 -43 6 0 12 7 12
16 0 25 44 13 48 -13 2 -13 -1 -23 -5 -23 -5 0 -10 -22 -10 -50 -1 -56 12 -64
43 -27 13 15 19 38 20 75 0 28 -3 52 -8 52 -5 0 -8 10 -7 23 5 50 -1 63 -36
80 -53 25 -65 22 -66 -15z"/>
<path d="M6525 3750 c3 -5 11 -10 16 -10 6 0 7 5 4 10 -3 6 -11 10 -16 10 -6
0 -7 -4 -4 -10z"/>
<path d="M2752 3637 c-7 -16 -12 -38 -12 -50 0 -19 1 -20 16 -6 10 11 14 28
12 50 l-4 34 -12 -28z"/>
<path d="M7750 3547 c0 -7 6 -19 13 -26 10 -11 9 -12 -1 -6 -11 6 -12 3 -3
-14 9 -17 8 -24 -9 -41 -30 -30 -74 -24 -78 11 -3 26 -6 27 -62 28 -65 1 -93
-17 -73 -47 7 -12 24 -17 59 -17 37 0 58 -7 84 -27 19 -14 44 -28 55 -30 15
-2 20 -12 22 -36 1 -25 -2 -32 -13 -28 -15 6 -20 -9 -6 -18 13 -8 52 5 46 15
-3 5 0 9 5 9 6 0 11 9 11 19 0 11 6 21 13 24 9 3 8 9 -4 23 -19 24 -14 50 12
57 30 8 26 53 -6 61 -18 5 -25 13 -25 31 0 18 -5 25 -20 25 -11 0 -20 -6 -20
-13z"/>
<path d="M6507 3490 c-3 -11 -1 -20 4 -20 5 0 9 9 9 20 0 11 -2 20 -4 20 -2 0
-6 -9 -9 -20z"/>
<path d="M3228 3482 c-39 -3 -48 -7 -48 -21 0 -16 11 -20 65 -26 43 -4 68 -12
74 -22 8 -14 10 -14 18 3 5 10 9 25 9 33 -1 20 -62 37 -118 33z"/>
<path d="M2913 3457 c-16 -4 -59 -12 -98 -18 -38 -5 -87 -12 -108 -16 -30 -4
-41 -11 -48 -32 -6 -14 -20 -36 -31 -48 -20 -21 -20 -24 -4 -48 19 -29 24 -30
47 -9 17 15 20 15 43 1 24 -16 25 -15 55 19 17 19 31 43 31 53 0 37 81 62 212
66 110 4 153 14 127 31 -17 11 -189 12 -226 1z"/>
<path d="M6860 3439 c0 -5 -4 -7 -10 -4 -5 3 -10 -1 -10 -9 0 -9 -4 -16 -9
-16 -5 0 -11 -11 -13 -25 -4 -21 -1 -25 17 -25 17 0 24 8 32 45 6 25 6 45 2
45 -5 0 -9 -5 -9 -11z"/>
<path d="M6934 3434 c3 -8 6 -20 6 -25 0 -6 5 -7 10 -4 15 10 12 32 -6 39 -12
5 -15 2 -10 -10z"/>
<path d="M7460 3415 c0 -22 39 -57 57 -51 8 3 19 6 25 6 6 0 6 6 -2 15 -7 8
-18 15 -25 15 -7 0 -18 7 -25 15 -7 8 -16 15 -21 15 -5 0 -9 -7 -9 -15z"/>
<path d="M7620 3366 c-13 -8 -32 -12 -42 -11 -15 3 -17 -1 -12 -23 9 -36 13
-39 57 -47 29 -6 37 -4 37 8 0 8 7 20 15 27 8 7 15 18 15 24 0 6 -4 5 -9 -3
-7 -11 -10 -9 -13 9 -4 29 -16 33 -48 16z"/>
<path d="M6917 3334 c-7 -8 11 -27 41 -43 27 -14 29 -41 3 -41 -19 0 -31 -18
-31 -46 0 -9 5 -12 10 -9 6 4 8 11 5 16 -4 5 -2 9 3 9 14 0 52 36 52 49 0 6 4
11 9 11 5 0 11 11 13 25 6 29 3 30 -33 11 -23 -12 -27 -11 -38 5 -11 20 -23
24 -34 13z"/>
<path d="M6413 3282 c-8 -5 -9 -13 -3 -22 7 -12 10 -12 16 3 8 21 3 29 -13 19z"/>
<path d="M7218 3215 c2 -14 9 -25 16 -25 6 0 11 11 11 25 0 16 -6 25 -16 25
-12 0 -15 -7 -11 -25z"/>
<path d="M7328 3216 c-22 -16 -22 -22 -3 -30 23 -8 45 4 45 25 0 22 -17 24
-42 5z"/>
<path d="M6940 3098 c-10 -123 -9 -139 8 -136 13 3 16 13 14 46 -3 41 9 55 25
29 12 -19 81 -57 104 -57 29 0 20 34 -9 38 -13 2 -26 10 -29 19 -3 8 -27 24
-52 36 -25 12 -49 23 -53 25 -5 2 -8 2 -8 0z"/>
<path d="M6594 3037 c-10 -6 -32 -10 -47 -8 -15 1 -34 -3 -42 -9 -8 -7 -22
-10 -30 -6 -8 3 -15 1 -15 -4 0 -6 3 -10 8 -11 4 0 15 -2 25 -4 9 -2 15 1 11
6 -7 13 3 11 26 -3 16 -10 24 -10 41 0 12 7 24 11 27 8 3 -3 -1 -7 -9 -8 -8
-1 11 -4 41 -7 55 -6 95 2 85 19 -3 5 0 10 7 13 7 2 0 3 -15 1 -16 -2 -43 2
-61 10 -24 10 -38 11 -52 3z"/>
<path d="M6845 3020 c-7 -11 12 -50 24 -50 16 0 19 13 9 36 -12 25 -23 30 -33
14z"/>
<path d="M2834 2925 c-8 -20 2 -45 19 -45 15 0 39 44 30 54 -12 12 -44 6 -49
-9z"/>
<path d="M7026 2891 c-12 -5 -15 -10 -9 -14 6 -4 16 0 23 8 14 17 13 17 -14 6z"/>
<path d="M6240 2833 c-47 -23 -97 -43 -112 -43 -25 0 -78 -17 -133 -41 -11 -5
-40 -14 -65 -20 -25 -5 -55 -13 -67 -16 -16 -4 -23 -13 -23 -29 0 -26 23 -50
85 -90 55 -34 60 -63 29 -168 -23 -77 -180 -410 -206 -437 -16 -17 -106 -148
-132 -192 -10 -18 -22 -34 -27 -35 -16 -6 -118 -110 -113 -115 3 -3 -16 -15
-41 -27 -26 -12 -50 -33 -55 -45 -5 -13 -21 -26 -37 -29 -15 -4 -37 -15 -48
-25 -11 -10 -47 -28 -79 -41 -32 -13 -70 -36 -84 -52 -14 -15 -30 -28 -35 -28
-6 0 -30 -17 -55 -37 -25 -21 -64 -47 -86 -58 -49 -24 -57 -42 -20 -47 27 -3
27 -4 9 -21 -15 -15 -16 -20 -5 -27 11 -7 11 -12 2 -23 -7 -7 -9 -16 -6 -20 3
-3 1 -14 -5 -24 -9 -16 -11 -16 -12 7 -1 14 0 34 0 46 2 17 -4 21 -33 22 -22
1 -41 -5 -48 -14 -7 -9 -28 -32 -46 -52 -19 -21 -32 -45 -30 -57 1 -11 -5 -31
-15 -45 -17 -24 -17 -25 10 -32 20 -6 31 -4 39 7 15 20 27 19 41 -4 11 -17 17
-18 45 -9 18 6 41 15 50 19 10 5 25 9 33 9 15 0 19 15 15 59 -1 16 2 21 12 17
7 -3 21 -9 31 -12 18 -7 23 -34 7 -50 -6 -6 -6 -15 0 -24 7 -12 11 -7 16 19
l7 33 48 -5 c39 -5 49 -3 49 8 0 11 13 15 50 15 28 0 50 4 50 10 0 16 41 33
52 22 7 -7 16 -7 29 1 22 14 25 11 34 -28 4 -19 3 -25 -2 -17 -6 7 -17 10 -26
6 -10 -3 -24 0 -33 7 -14 11 -18 11 -28 -2 -6 -8 -19 -18 -29 -22 -13 -5 -17
-15 -15 -34 3 -26 6 -28 41 -25 32 3 40 -1 44 -17 3 -11 11 -22 19 -25 8 -3
14 -17 14 -30 0 -18 4 -24 15 -20 8 3 19 3 25 -1 19 -12 -8 -42 -45 -49 -53
-10 -46 -36 9 -36 36 0 46 4 51 21 5 15 10 17 19 10 7 -6 16 -8 19 -5 3 3 2
-7 -2 -22 -5 -21 -17 -32 -42 -40 -38 -13 -55 -54 -23 -54 16 0 16 -2 -2 -23
-11 -12 -33 -51 -49 -87 -17 -36 -33 -66 -37 -68 -5 -2 -8 -12 -8 -23 0 -11
-7 -22 -16 -26 -9 -3 -12 -8 -5 -12 5 -4 -11 -6 -37 -6 -26 0 -50 5 -54 10 -5
6 -8 3 -8 -6 0 -9 7 -22 15 -29 19 -16 15 -51 -16 -126 -19 -46 -21 -57 -9
-64 11 -7 11 -11 1 -24 -7 -9 -17 -14 -21 -11 -12 7 -33 -23 -27 -39 4 -9 0
-12 -13 -9 -14 4 -19 -1 -22 -24 -2 -16 3 -33 12 -40 13 -10 11 -12 -12 -18
-21 -5 -31 -18 -44 -53 -10 -26 -22 -53 -27 -59 -7 -10 -1 -13 25 -13 33 0 33
0 30 40 -3 25 0 40 7 40 6 0 11 -17 11 -40 l0 -40 685 0 c683 0 686 0 675 20
-8 14 -8 26 0 41 7 11 9 27 6 35 -3 8 6 31 20 51 15 22 21 40 15 46 -5 5 -4
19 5 35 7 15 15 35 18 44 7 23 26 23 26 1 0 -15 1 -15 19 1 10 9 25 14 34 10
14 -5 14 -9 -5 -35 -19 -25 -20 -32 -8 -53 16 -31 38 -40 58 -24 9 7 13 8 9 2
-4 -6 -7 -36 -8 -65 -1 -30 -4 -48 -7 -41 -2 7 -14 17 -26 22 -13 4 -23 15
-23 24 0 8 4 13 9 10 13 -8 9 21 -4 34 -17 17 -38 15 -38 -4 0 -9 -7 -22 -15
-28 -11 -8 -13 -21 -9 -49 4 -20 11 -37 15 -37 5 0 9 5 9 10 0 12 20 13 40 0
12 -7 11 -12 -5 -31 l-20 -22 140 7 c77 4 148 7 157 7 10 0 20 4 23 9 3 4 13
7 23 5 9 -1 12 0 6 2 -17 6 -23 37 -17 83 6 41 23 56 23 19 0 -12 8 -23 20
-26 11 -3 20 -12 20 -19 0 -8 5 -14 10 -14 15 0 12 19 -5 36 -8 9 -15 24 -15
35 0 10 -4 19 -9 19 -6 0 -4 15 4 34 8 18 12 36 9 39 -8 8 6 47 17 47 5 0 9
-6 9 -14 0 -7 7 -20 16 -27 14 -11 18 -10 33 9 16 22 51 23 51 2 0 -4 20 -5
44 -3 26 3 53 0 67 -8 13 -7 32 -12 42 -10 10 1 27 -8 38 -20 35 -40 18 -72
-25 -44 -28 19 -44 5 -21 -18 8 -9 12 -23 9 -31 -10 -26 14 -19 134 39 383
185 674 526 787 924 44 155 56 254 62 502 l6 236 -34 27 c-19 15 -61 39 -94
54 -33 14 -62 29 -65 33 -7 9 -161 77 -193 84 -15 4 -30 11 -33 16 -3 5 -12 9
-21 9 -8 0 -27 8 -41 19 -15 10 -70 33 -122 51 -52 18 -111 40 -131 50 -20 9
-43 16 -52 14 -10 -1 -17 4 -17 12 0 13 7 16 27 13 15 -2 28 40 28 94 l0 59
45 3 c25 1 51 -2 57 -7 9 -7 16 -3 23 17 5 14 10 30 10 35 0 5 14 7 30 4 23
-5 30 -3 30 9 0 29 36 26 54 -5 30 -50 66 -79 88 -73 12 4 27 0 39 -11 10 -9
22 -14 26 -10 4 4 -2 15 -14 24 -29 24 -41 97 -17 110 15 8 11 13 -24 33 -36
20 -42 29 -42 57 0 27 4 32 23 32 12 0 32 3 45 6 16 5 22 2 22 -9 0 -9 9 -19
21 -22 13 -4 18 -12 15 -22 -4 -9 -1 -13 6 -11 22 7 21 45 -1 60 -18 13 -19
19 -10 51 11 42 39 51 39 12 0 -14 8 -29 21 -35 17 -10 21 -8 26 9 3 12 14 21
24 21 14 0 19 7 19 25 0 24 3 25 53 25 57 0 73 -9 100 -52 10 -16 22 -28 27
-28 15 0 13 157 -2 164 -10 5 -10 7 0 12 6 3 12 19 12 36 0 28 -2 29 -39 27
-27 -2 -46 3 -59 14 -17 16 -21 16 -32 2 -10 -12 -28 -14 -89 -10 -42 3 -87 7
-101 10 -14 3 -38 1 -54 -3 l-30 -8 32 -22 c29 -21 33 -22 56 -7 22 15 27 14
65 -6 22 -11 41 -27 41 -35 0 -27 -48 -33 -213 -28 -181 6 -207 1 -207 -42 0
-16 -5 -24 -12 -21 -7 2 -12 11 -10 19 1 9 -5 21 -13 28 -10 9 -15 9 -15 1 0
-6 -7 -11 -15 -11 -8 0 -15 -9 -15 -19 0 -11 -7 -26 -15 -35 -8 -8 -15 -26
-15 -40 0 -16 -7 -27 -19 -31 -36 -11 -70 -46 -90 -90 -11 -24 -28 -46 -40
-50 -29 -9 -26 -22 9 -40 17 -9 30 -20 30 -25 0 -6 6 -10 13 -10 7 0 18 -9 25
-20 11 -18 9 -24 -15 -48 -16 -15 -28 -36 -28 -47 0 -11 -3 -21 -7 -22 -8 -2
-65 22 -186 78 -35 16 -68 29 -74 29 -18 0 -78 32 -78 42 0 14 -49 70 -74 85
-32 19 -37 20 -100 38 -40 11 -60 22 -63 35 -3 10 -13 20 -24 23 -12 3 -17 11
-13 20 4 11 -5 18 -30 27 -39 13 -50 31 -13 23 34 -7 -118 132 -178 164 -27
14 -63 34 -78 45 -47 33 -92 29 -187 -19z m1828 -46 c7 -5 10 -13 7 -18 -10
-15 15 -10 32 6 17 18 35 11 27 -10 -12 -31 -134 -14 -134 20 0 12 49 13 68 2z
m-1558 -53 c0 -2 -9 -4 -21 -4 -11 0 -18 4 -14 10 5 8 35 3 35 -6z m1250 -294
c0 -5 -2 -10 -4 -10 -3 0 -8 5 -11 10 -3 6 -1 10 4 10 6 0 11 -4 11 -10z
m-470 -272 c0 -12 -25 -9 -38 4 -20 20 -14 27 13 15 14 -7 25 -15 25 -19z
m-1150 -138 c-10 -6 -11 -12 -2 -22 7 -9 8 -19 2 -28 -14 -22 -12 -33 4 -27 8
3 18 -5 25 -20 10 -21 9 -28 -6 -39 -15 -12 -16 -15 -3 -23 8 -6 13 -23 12
-43 -2 -18 -5 -71 -7 -116 -5 -110 -36 -153 -50 -71 -7 39 -8 40 -26 23 -17
-15 -19 -15 -25 0 -7 19 -44 21 -64 4 -7 -7 -4 0 8 16 12 16 22 42 22 57 0 16
5 29 10 29 6 0 10 -8 10 -17 0 -16 1 -16 18 0 16 17 16 19 0 28 -12 6 -18 22
-18 42 0 42 11 81 19 69 3 -5 17 2 31 16 20 19 21 23 6 18 -16 -5 -17 -3 -10
16 4 13 7 51 5 85 l-1 63 27 -26 c22 -20 24 -27 13 -34z m90 -210 c-8 -5 -19
-10 -25 -10 -5 0 -3 5 5 10 8 5 20 10 25 10 6 0 3 -5 -5 -10z m-623 -106 c-3
-3 -12 -4 -19 -1 -8 3 -5 6 6 6 11 1 17 -2 13 -5z m1390 -86 c-3 -7 -5 -2 -5
12 0 14 2 19 5 13 2 -7 2 -19 0 -25z m-1507 -146 c0 -21 -46 -69 -57 -58 -4 3
3 13 15 22 12 8 22 24 22 35 0 10 5 19 10 19 6 0 10 -8 10 -18z m1506 -37 c-4
-14 -11 -25 -16 -25 -15 0 -12 58 3 63 16 5 20 -8 13 -38z m-1736 -12 c0 -9
-109 -113 -119 -113 -5 0 -11 -15 -15 -32 -5 -26 -9 -30 -16 -18 -5 8 -10 23
-10 32 0 19 79 105 114 124 24 14 46 17 46 7z m88 -76 c2 -10 -3 -17 -12 -17
-10 0 -16 9 -16 21 0 24 23 21 28 -4z m-284 -81 c-6 -16 -24 -23 -24 -8 0 10
22 33 27 28 2 -2 1 -11 -3 -20z m316 -44 c0 -11 -9 -27 -20 -37 -23 -21 -24
-19 -9 24 12 34 29 42 29 13z m-172 -53 c2 -14 -6 -17 -47 -17 -56 0 -66 11
-23 27 37 13 66 9 70 -10z m2369 -3 c-5 -14 -49 -15 -54 -1 -1 6 11 10 27 11
19 1 29 -3 27 -10z m-2607 -6 c0 -5 -2 -10 -4 -10 -3 0 -8 5 -11 10 -3 6 -1
10 4 10 6 0 11 -4 11 -10z m2062 -25 c-4 -5 -9 -30 -12 -55 -3 -25 -9 -44 -15
-43 -15 3 -18 41 -7 71 6 15 13 36 17 47 5 16 8 17 15 5 5 -8 6 -19 2 -25z
m560 -40 c-9 -14 -22 -23 -29 -20 -6 2 -17 -8 -22 -23 -10 -25 -11 -25 -7 -3
3 14 0 31 -5 38 -8 9 -5 14 14 18 13 4 30 19 37 33 l12 27 9 -23 c6 -17 4 -30
-9 -47z m-2724 -7 c-2 -14 -11 -24 -23 -25 -11 -2 -14 0 -7 3 6 3 12 14 12 25
0 10 5 19 11 19 6 0 9 -10 7 -22z m1224 -21 c2 -12 0 -26 -5 -32 -4 -5 -17
-25 -30 -44 -20 -31 -61 -61 -43 -32 4 6 12 26 17 43 7 24 6 29 -3 20 -7 -7
-16 -12 -20 -12 -8 0 -11 73 -4 81 3 3 23 3 45 1 32 -3 41 -8 43 -25z m1394 1
c3 -5 4 -12 1 -14 -7 -7 -47 15 -47 25 0 11 38 2 46 -11z m-141 -45 c-8 -56
-5 -50 -30 -55 -29 -4 -34 37 -6 45 15 3 21 13 21 31 0 14 5 26 11 26 8 0 9
-15 4 -47z m100 25 c5 4 5 1 1 -5 -8 -14 -46 -18 -46 -5 0 16 13 22 25 12 7
-5 16 -6 20 -2z m-2065 -2 c0 -3 -4 -8 -10 -11 -5 -3 -10 -1 -10 4 0 6 5 11
10 11 6 0 10 -2 10 -4z m84 -47 c-6 -10 -67 5 -71 18 -2 6 9 15 24 21 24 8 30
6 40 -12 6 -11 9 -24 7 -27z m931 19 c-4 -13 -9 -31 -11 -40 -3 -10 -13 -18
-22 -18 -13 0 -14 2 -4 9 12 7 19 27 21 59 1 6 6 12 12 12 6 0 8 -9 4 -22z
m1013 -21 c3 -25 22 -39 22 -17 0 6 4 10 8 10 4 0 6 -16 4 -35 -4 -37 -32 -50
-32 -15 0 13 -5 18 -15 14 -12 -5 -15 3 -15 36 0 47 23 53 28 7z m117 10 c12
-10 14 -16 7 -21 -16 -10 -15 -43 1 -49 6 -2 8 -8 4 -13 -5 -5 -14 -1 -22 9
-8 12 -15 14 -20 8 -11 -18 -28 -12 -22 8 2 10 0 26 -5 36 -18 30 23 46 57 22z
m-625 -29 c0 -13 -23 -5 -28 10 -2 7 2 10 12 6 9 -3 16 -11 16 -16z m1095 -8
c3 -5 -1 -10 -9 -10 -9 0 -16 5 -16 10 0 6 4 10 9 10 6 0 13 -4 16 -10z
m-2518 -32 c-3 -8 -6 -5 -6 6 -1 11 2 17 5 13 3 -3 4 -12 1 -19z m1068 12 c3
-5 1 -10 -4 -10 -6 0 -11 5 -11 10 0 6 2 10 4 10 3 0 8 -4 11 -10z m-677 -102
c7 -23 12 -56 12 -73 -1 -16 3 -46 8 -65 14 -56 -3 -86 -45 -81 -7 1 -26 -5
-41 -13 -34 -18 -42 -13 -42 25 0 15 -7 29 -15 33 -8 3 -15 11 -15 18 0 7 -11
36 -25 63 -13 28 -25 57 -25 65 0 9 -9 23 -20 33 -26 22 -28 52 -2 39 41 -22
98 -24 133 -4 43 25 61 16 77 -40z m472 -14 c0 -10 -35 -69 -42 -72 -5 -2 -8
-12 -8 -22 0 -25 -19 -35 -26 -15 -4 10 7 36 27 65 30 45 49 61 49 44z m560
-33 c0 -11 -4 -23 -10 -26 -5 -3 -10 1 -10 9 0 9 -6 16 -12 16 -9 0 -8 4 2 10
22 14 30 12 30 -9z m260 -6 c0 -8 -9 -15 -20 -15 -25 0 -26 17 -2 23 9 3 18 5
20 6 1 0 2 -6 2 -14z m191 -2 c1 -10 1 -21 1 -24 -1 -4 9 -5 21 -2 18 5 20 3
10 -8 -18 -19 -16 -29 6 -29 11 0 21 -9 25 -22 11 -43 8 -50 -27 -47 -18 2
-38 0 -44 -4 -6 -4 -15 -2 -19 4 -3 6 -22 18 -41 25 -27 12 -34 20 -31 37 2
12 9 21 17 19 7 -1 19 2 26 8 14 12 48 3 39 -11 -3 -5 0 -9 5 -9 17 0 13 18
-6 29 -11 6 -13 11 -5 11 7 0 11 4 7 10 -3 5 -12 7 -20 3 -11 -4 -13 -1 -9 11
8 22 44 21 45 -1z m-1184 -40 c-3 -10 -5 -4 -5 12 0 17 2 24 5 18 2 -7 2 -21
0 -30z m1273 5 c-1 -31 -1 -32 -15 -14 -19 25 -19 46 0 46 10 0 15 -10 15 -32z
m-613 6 c7 -18 -17 -38 -31 -24 -11 11 -1 40 14 40 6 0 13 -7 17 -16z m338
-14 c3 -5 1 -10 -4 -10 -6 0 -11 5 -11 10 0 6 2 10 4 10 3 0 8 -4 11 -10z m50
-20 c16 -17 16 -20 2 -26 -22 -8 -37 3 -37 27 0 24 12 24 35 -1z m-755 -17 c0
-13 -3 -13 -15 -3 -8 7 -12 16 -9 21 8 13 24 1 24 -18z m-248 -167 c4 -6 2
-19 -4 -29 -9 -17 -11 -18 -25 -4 -9 9 -13 23 -10 31 7 17 27 18 39 2z m446
-18 c15 4 42 7 61 7 30 0 34 -3 35 -27 1 -17 -4 -28 -11 -28 -7 0 -13 3 -13 8
0 4 -20 12 -45 18 -48 11 -69 2 -41 -19 20 -16 1 -43 -37 -52 -27 -7 -38 7
-16 21 6 3 9 17 6 31 -4 24 24 66 31 45 2 -6 14 -8 30 -4z m451 3 c9 -6 10
-11 2 -15 -13 -8 -14 -16 -2 -35 7 -11 13 -10 35 4 31 20 35 39 6 30 -24 -8
-27 10 -4 19 20 8 44 -11 44 -34 0 -14 9 -17 53 -16 80 2 117 -20 85 -52 -9
-9 -9 -15 0 -24 7 -7 12 -23 12 -36 0 -22 -3 -24 -27 -17 -16 4 -43 7 -60 8
-25 2 -33 7 -33 20 0 14 -5 17 -22 11 -13 -4 -26 -11 -30 -17 -4 -6 -12 -4
-22 6 -9 9 -23 14 -31 10 -9 -3 -21 0 -29 6 -16 13 -19 78 -5 87 18 11 8 25
-16 22 -31 -4 -34 15 -3 24 32 9 32 9 47 -1z m-279 -27 c0 -3 -7 -12 -15 -20
-13 -14 -15 -13 -15 5 0 12 6 21 15 21 8 0 15 -3 15 -6z m-990 -25 c0 -5 5 -7
11 -3 6 3 15 0 20 -7 4 -7 18 -14 31 -14 22 0 23 -4 23 -68 l0 -68 -40 3 c-39
3 -40 4 -43 43 -2 22 -7 44 -12 50 -7 9 -14 49 -11 68 2 11 21 8 21 -4z m349
-30 c-20 -12 -22 -4 -8 23 12 21 13 21 17 4 2 -10 -2 -22 -9 -27z m520 -32 c1
-5 -3 -5 -9 -2 -5 3 -10 16 -9 28 0 21 1 21 9 2 5 -11 9 -24 9 -28z m-1499
-39 c0 -17 -3 -28 -7 -24 -11 10 -11 56 -1 56 4 0 8 -14 8 -32z m924 -97 c3
-5 -2 -19 -12 -32 l-19 -22 -1 31 c-1 31 19 45 32 23z m786 -15 c0 -3 -4 -8
-10 -11 -5 -3 -10 -1 -10 4 0 6 5 11 10 11 6 0 10 -2 10 -4z m-269 -51 c0 -13
-41 -19 -41 -7 0 11 20 22 33 18 5 -1 8 -6 8 -11z m-551 -17 c0 -16 -3 -19
-11 -11 -6 6 -8 16 -5 22 11 17 16 13 16 -11z m800 2 c0 -5 -7 -10 -16 -10 -8
0 -12 5 -9 10 3 6 10 10 16 10 5 0 9 -4 9 -10z m-1760 -29 c0 -10 -7 -22 -16
-25 -8 -3 -13 -2 -11 2 2 4 7 15 10 25 8 23 17 22 17 -2z m767 -83 c-6 -65
-15 -82 -35 -69 -11 7 -11 23 -2 90 12 77 13 81 28 60 11 -15 13 -37 9 -81z
m169 60 c-3 -7 -9 -21 -12 -30 -4 -10 -11 -18 -16 -18 -6 0 -7 7 -4 16 3 9 6
22 6 30 0 8 7 14 16 14 9 0 13 -5 10 -12z m671 -104 c5 -15 -28 -27 -40 -15
-5 5 -6 14 -2 21 8 13 37 9 42 -6z m-707 -36 c0 -13 -43 -6 -47 8 -2 7 6 10
22 7 14 -3 25 -10 25 -15z"/>
<path d="M7311 724 c0 -11 3 -14 6 -6 3 7 2 16 -1 19 -3 4 -6 -2 -5 -13z"/>
<path d="M7229 463 c0 -5 -2 -16 -4 -25 -2 -13 3 -18 21 -18 19 0 24 5 24 25
0 18 -5 25 -20 25 -11 0 -20 -3 -21 -7z"/>
<path d="M2737 2834 c-4 -4 -7 -14 -7 -23 0 -11 3 -12 11 -4 6 6 10 16 7 23
-2 6 -7 8 -11 4z"/>
<path d="M6911 2810 c-1 -22 -41 -44 -54 -31 -18 18 -49 14 -43 -6 3 -10 -1
-27 -9 -37 -13 -18 -16 -18 -46 -3 -27 13 -34 13 -46 2 -18 -19 -17 -21 21
-68 18 -23 37 -52 40 -65 8 -24 35 -42 70 -47 11 -1 29 -6 39 -10 13 -6 20 0
32 26 19 43 40 67 90 101 33 23 41 25 48 13 4 -8 12 -15 18 -15 17 0 46 34 53
63 8 32 31 35 116 12 68 -18 93 -19 88 -2 -8 22 -253 42 -253 20 0 -24 -16
-26 -39 -4 l-25 23 -27 -21 c-37 -29 -48 -27 -40 9 4 22 2 30 -8 30 -8 0 -17
6 -19 13 -4 8 -6 7 -6 -3z"/>
<path d="M6635 2781 c-3 -5 -1 -12 5 -16 5 -3 10 1 10 9 0 18 -6 21 -15 7z"/>
<path d="M7375 2740 c-8 -13 20 -24 41 -16 20 8 9 26 -16 26 -10 0 -22 -5 -25
-10z"/>
<path d="M66 2732 c-2 -4 4 -8 15 -8 10 0 19 4 19 8 0 4 -6 8 -14 8 -8 0 -17
-4 -20 -8z"/>
<path d="M6677 2719 c4 -13 8 -18 11 -10 2 7 -1 18 -6 23 -8 8 -9 4 -5 -13z"/>
<path d="M22 2707 c-25 -27 -28 -37 -9 -37 14 0 44 46 35 55 -2 3 -14 -5 -26
-18z"/>
<path d="M7231 2684 c-16 -11 -21 -23 -17 -38 3 -12 1 -28 -4 -36 -8 -13 -10
-12 -10 3 0 22 -52 24 -74 2 -14 -14 -16 -13 -22 10 -8 31 -20 32 -49 3 -13
-13 -34 -31 -49 -41 -14 -10 -34 -30 -43 -44 -16 -24 -16 -26 3 -42 25 -22 44
-56 44 -81 0 -29 27 -25 47 8 27 42 38 48 63 32 12 -7 12 -12 2 -22 -33 -33 1
-71 55 -60 34 8 87 70 99 117 4 15 16 37 28 50 31 33 62 93 53 102 -5 4 -17 2
-27 -5 -27 -17 -28 -16 -36 23 -7 39 -25 45 -63 19z m69 -89 c0 -16 -9 -19
-35 -9 -13 5 -14 8 -3 15 20 13 38 11 38 -6z"/>
<path d="M260 2670 c0 -5 4 -10 9 -10 6 0 13 5 16 10 3 6 -1 10 -9 10 -9 0
-16 -4 -16 -10z"/>
<path d="M2827 2673 c-4 -3 -7 -11 -7 -17 0 -6 5 -5 12 2 6 6 9 14 7 17 -3 3
-9 2 -12 -2z"/>
<path d="M2846 2644 c-3 -8 1 -14 9 -14 7 0 17 -4 20 -10 4 -6 -1 -7 -12 -4
-10 3 -4 -3 14 -14 34 -22 124 -52 157 -52 21 0 145 -35 181 -51 11 -5 45 -15
75 -23 91 -23 166 -55 227 -96 52 -34 63 -38 105 -33 31 4 53 1 63 -7 12 -10
18 -10 30 0 20 16 4 36 -34 45 -16 3 -39 17 -51 30 -13 14 -27 22 -33 18 -5
-3 -7 0 -5 8 5 15 -42 49 -67 49 -7 0 -22 11 -33 25 -11 14 -30 25 -41 25 -12
0 -32 9 -44 20 -23 22 -74 50 -89 50 -5 0 -7 -10 -3 -22 5 -20 5 -21 -7 -7 -8
10 -35 19 -68 22 -30 3 -62 8 -71 12 -10 3 -20 2 -24 -4 -9 -16 -25 -13 -25 5
0 8 -4 12 -10 9 -5 -3 -22 0 -37 8 -32 16 -78 8 -78 -13 0 -28 -53 -23 -99 8
-35 24 -46 27 -50 16z"/>
<path d="M2217 2573 c-14 -14 -35 -18 -90 -18 -40 0 -77 -4 -83 -7 -18 -12
-47 -15 -328 -44 -87 -8 -168 -20 -180 -25 -15 -6 -3 -8 39 -4 33 3 89 7 124
10 35 3 100 9 145 14 44 6 116 13 158 17 42 3 92 7 110 9 18 1 71 8 117 14 46
6 87 9 90 6 4 -2 13 0 21 6 11 6 4 9 -22 9 -20 0 -43 7 -52 15 -19 19 -28 19
-49 -2z"/>
<path d="M2598 2583 c7 -3 16 -2 19 1 4 3 -2 6 -13 5 -11 0 -14 -3 -6 -6z"/>
<path d="M8140 2574 c0 -3 4 -13 9 -23 6 -10 6 -33 1 -55 -5 -21 -6 -54 -3
-72 5 -33 7 -34 25 -18 10 10 16 25 13 34 -3 9 -6 44 -7 78 -1 53 -4 62 -20
62 -10 0 -18 -3 -18 -6z"/>
<path d="M2408 2563 c7 -3 16 -2 19 1 4 3 -2 6 -13 5 -11 0 -14 -3 -6 -6z"/>
<path d="M8040 2560 c0 -5 5 -10 10 -10 6 0 10 5 10 10 0 6 -4 10 -10 10 -5 0
-10 -4 -10 -10z"/>
<path d="M7918 2504 c-5 -4 -8 -16 -8 -28 0 -14 3 -17 11 -9 6 6 9 19 7 28 -1
9 -6 13 -10 9z"/>
<path d="M1320 2464 c-88 -10 -120 -11 -138 -2 -19 10 -26 8 -45 -11 l-22 -23
85 6 c127 8 238 24 258 35 16 10 15 10 -3 10 -11 -1 -72 -7 -135 -15z"/>
<path d="M985 2429 c-16 -4 -25 -8 -20 -9 18 -4 79 1 115 9 33 8 32 8 -15 8
-27 -1 -63 -4 -80 -8z"/>
<path d="M715 2416 c-11 -7 -52 -17 -90 -21 -39 -3 -86 -10 -105 -15 l-35 -8
45 -1 c25 0 86 6 135 14 50 8 106 15 125 16 34 2 34 2 5 6 -16 3 -34 9 -39 14
-13 12 -18 11 -41 -5z"/>
<path d="M898 2413 c12 -2 30 -2 40 0 9 3 -1 5 -23 4 -22 0 -30 -2 -17 -4z"/>
<path d="M2862 2378 c-8 -8 -41 -13 -86 -13 -41 0 -78 -3 -82 -7 -4 -4 1 -18
9 -32 19 -28 44 -31 147 -15 53 8 68 15 76 32 5 12 15 21 22 20 7 -2 12 2 12
7 0 6 -13 10 -29 10 -16 0 -35 2 -43 5 -7 3 -19 0 -26 -7z"/>
<path d="M193 2355 c-18 -16 -23 -24 -13 -25 34 0 60 13 60 31 0 26 -13 24
-47 -6z"/>
<path d="M1588 2372 c7 -5 10 -17 6 -28 -5 -16 -4 -16 5 -4 16 22 13 40 -6 40
-13 0 -15 -2 -5 -8z"/>
<path d="M3190 2323 c0 -31 -5 -45 -19 -52 -17 -9 -272 -24 -381 -22 -330 7
-717 -4 -736 -20 -9 -7 -19 -7 -32 0 -28 15 -130 17 -144 3 -7 -7 -31 -12 -54
-12 -24 0 -46 -5 -49 -11 -4 -6 -14 -8 -22 -4 -9 3 -27 -2 -41 -11 -16 -10
-46 -16 -82 -16 -67 0 -80 5 -73 31 3 10 0 22 -6 25 -11 7 -13 -162 -3 -232 7
-43 7 -43 28 -24 28 26 54 40 84 42 44 4 56 1 79 -21 21 -20 21 -22 6 -39 -16
-18 -15 -19 36 -33 58 -16 169 -42 262 -62 50 -11 59 -11 64 2 9 22 52 36 69
22 11 -9 14 -7 14 11 0 13 5 20 13 17 6 -2 10 -11 8 -18 -14 -51 -13 -58 10
-63 89 -18 349 -23 609 -12 96 5 216 7 265 5 189 -5 256 -4 263 6 4 6 16 17
26 25 19 15 19 14 3 -17 -10 -18 -28 -43 -41 -56 -13 -13 -26 -32 -30 -43 -3
-10 -16 -30 -28 -44 -13 -14 -35 -43 -49 -65 -20 -31 -46 -50 -110 -83 -76
-38 -184 -103 -249 -149 -44 -32 -103 -86 -211 -193 -99 -99 -109 -113 -178
-246 -40 -77 -92 -165 -117 -195 -24 -30 -72 -90 -106 -134 -34 -44 -69 -88
-78 -97 -22 -25 -163 -312 -200 -408 -8 -19 -31 -56 -53 -83 l-39 -47 851 0
c804 0 851 1 851 18 0 9 5 80 10 157 11 151 29 265 42 265 4 0 8 10 8 23 0 18
-2 19 -10 7 -14 -21 -13 3 1 34 7 14 17 27 24 30 13 4 12 -61 -1 -169 -15
-127 -16 -228 -3 -237 11 -7 11 -11 2 -15 -8 -3 -13 -25 -13 -59 l0 -54 64 0
c63 0 64 0 70 31 11 57 7 101 -11 114 -16 12 -16 15 -2 32 11 13 15 35 13 78
-1 33 2 80 8 105 5 25 10 96 12 158 2 80 7 116 16 122 7 5 9 13 4 21 -10 16
-6 91 6 103 5 5 6 14 4 21 -3 7 -1 16 5 20 6 3 11 24 11 45 0 21 5 42 10 45 6
3 10 21 10 38 0 36 25 64 52 59 10 -2 28 8 40 22 l23 26 70 -19 c39 -11 75
-20 80 -22 15 -5 55 11 55 22 0 5 -13 7 -30 4 -17 -3 -30 -1 -30 5 0 5 -9 10
-20 10 -12 0 -20 7 -21 18 0 9 -3 12 -5 5 -4 -9 -11 -9 -30 -1 -19 9 -24 17
-20 34 4 13 -2 31 -14 47 -11 14 -20 34 -20 45 0 34 -11 51 -27 45 -12 -5 -14
-3 -8 6 6 10 2 11 -15 6 -19 -6 -21 -4 -15 15 4 12 16 31 27 42 19 19 19 21 4
37 -14 13 -18 14 -25 2 -12 -19 -27 -7 -35 30 -3 19 -13 33 -25 36 -11 3 -25
19 -32 36 -7 18 -21 44 -31 59 -22 32 -22 38 -3 38 8 0 23 -12 32 -27 34 -53
64 -80 106 -98 23 -9 50 -21 59 -26 23 -12 48 -11 48 1 0 6 -5 10 -10 10 -11
0 -25 10 -65 48 -13 12 -28 22 -33 22 -9 0 -82 72 -82 82 0 6 -62 104 -80 125
-10 12 -48 110 -101 263 -55 157 -61 170 -74 170 -7 0 -48 -42 -90 -92 -96
-116 -112 -130 -132 -119 -9 5 -23 6 -32 4 -10 -2 -28 7 -41 20 -34 34 -83 57
-120 57 -24 0 -30 4 -30 22 0 19 1 20 18 5 15 -14 24 -14 82 -2 35 7 66 19 68
25 3 9 7 9 14 -1 8 -11 9 -11 5 1 -2 8 -12 15 -23 15 -35 0 -21 29 15 32 38 3
48 9 37 20 -4 5 -146 7 -314 6 -300 -1 -387 -8 -557 -43 -27 -6 -81 -12 -120
-15 -155 -9 -245 -17 -355 -31 -167 -21 -201 -19 -249 13 -46 30 -50 44 -21
71 18 16 38 19 168 20 81 0 176 6 212 11 36 6 97 11 137 11 39 0 75 5 78 11 4
6 19 7 37 4 19 -5 44 -1 67 8 60 25 146 40 196 35 25 -3 81 -2 123 3 42 5 109
11 147 15 39 3 78 8 88 10 9 3 42 0 73 -7 48 -11 62 -10 104 5 31 11 63 15 93
12 48 -6 73 9 58 33 -7 10 -13 10 -29 2 -16 -8 -24 -8 -36 4 -8 8 -22 15 -30
15 -17 0 -47 26 -65 56 -9 16 -10 12 -11 -23z m-1590 -258 c0 -8 -4 -15 -9
-15 -13 0 -22 16 -14 24 11 11 23 6 23 -9z m1545 -36 c6 -2 3 -12 -7 -21 -17
-17 -19 -16 -35 8 -14 21 -14 27 -3 34 9 5 18 3 24 -5 6 -7 16 -14 21 -16z
m-571 -85 c9 -3 16 -12 16 -19 0 -7 8 -16 18 -20 14 -6 12 -9 -11 -16 -16 -4
-39 -4 -50 0 -12 5 -35 7 -52 4 -31 -4 -65 11 -52 23 6 6 88 31 109 33 3 1 13
-2 22 -5z m-156 -26 c-3 -9 -29 -14 -74 -15 -38 -1 -70 -7 -72 -13 -2 -5 -7
-10 -12 -10 -4 0 -3 11 3 25 11 23 17 25 85 25 55 0 73 -3 70 -12z m1492 -803
c0 -8 9 -15 19 -15 31 0 34 -18 9 -50 -34 -43 -45 -37 -44 25 0 30 4 55 8 55
4 0 8 -7 8 -15z m-1083 -692 c2 -6 -5 -13 -15 -15 -15 -4 -18 -1 -14 14 5 19
23 20 29 1z"/>
<path d="M2325 2339 c-44 -4 -131 -9 -193 -11 -63 -1 -116 -6 -118 -10 -3 -4
-28 -5 -57 -3 -29 2 -43 2 -32 -1 11 -4 25 -10 30 -14 11 -8 280 -5 305 4 8 3
58 7 110 10 116 5 119 6 113 23 -6 14 -33 15 -158 2z"/>
<path d="M1553 2323 c-18 -7 -16 -43 2 -43 9 0 15 9 15 25 0 14 -1 25 -2 24
-2 0 -9 -3 -15 -6z"/>
<path d="M3068 2323 c7 -3 16 -2 19 1 4 3 -2 6 -13 5 -11 0 -14 -3 -6 -6z"/>
<path d="M1158 2280 c13 -6 38 -6 60 -1 35 8 33 9 -23 9 -46 1 -55 -1 -37 -8z"/>
<path d="M7600 2282 c0 -12 19 -26 26 -19 2 2 -2 10 -11 17 -9 8 -15 8 -15 2z"/>
<path d="M3436 2264 c-9 -24 8 -32 51 -25 35 6 58 27 31 28 -7 1 -27 4 -44 8
-25 5 -33 3 -38 -11z"/>
<path d="M1070 2260 c-9 -6 -10 -10 -3 -10 6 0 15 5 18 10 8 12 4 12 -15 0z"/>
<path d="M1385 2220 c-29 -7 -29 -8 -4 -9 21 -1 29 -9 43 -44 18 -49 20 -67 6
-67 -5 0 -10 5 -10 11 0 5 -4 8 -8 5 -12 -7 -2 -74 14 -87 8 -6 14 -19 14 -28
1 -9 6 0 13 19 8 22 10 66 7 120 -6 93 -9 97 -75 80z"/>
<path d="M1615 2221 c-6 -11 33 -26 43 -16 4 3 0 10 -8 15 -19 12 -27 12 -35
1z"/>
<path d="M865 2170 c-4 -6 7 -10 25 -10 18 0 29 4 25 10 -3 6 -15 10 -25 10
-10 0 -22 -4 -25 -10z"/>
<path d="M3406 2105 c4 -8 10 -12 15 -9 11 6 2 24 -11 24 -5 0 -7 -7 -4 -15z"/>
<path d="M8120 2040 c0 -5 5 -10 11 -10 5 0 7 5 4 10 -3 6 -8 10 -11 10 -2 0
-4 -4 -4 -10z"/>
<path d="M1592 1745 c0 -16 2 -22 5 -12 2 9 2 23 0 30 -3 6 -5 -1 -5 -18z"/>
<path d="M2307 1764 c-8 -8 1 -24 14 -24 5 0 9 7 9 15 0 15 -12 20 -23 9z"/>
<path d="M2746 1732 c-10 -17 19 -32 72 -36 28 -3 61 -10 74 -17 31 -17 254
-21 304 -6 40 13 57 37 27 37 -10 1 -56 3 -103 6 -47 3 -137 6 -200 8 -63 2
-127 6 -141 10 -15 4 -29 3 -33 -2z"/>
<path d="M4070 1211 c0 -6 5 -13 10 -16 6 -3 10 1 10 9 0 9 -4 16 -10 16 -5 0
-10 -4 -10 -9z"/>
<path d="M5128 1013 c6 -2 18 -2 25 0 6 3 1 5 -13 5 -14 0 -19 -2 -12 -5z"/>
<path d="M4882 975 c0 -16 2 -22 5 -12 2 9 2 23 0 30 -3 6 -5 -1 -5 -18z"/>
<path d="M5100 985 c-16 -20 -11 -24 34 -32 24 -4 36 -2 36 6 0 6 -9 11 -20
11 -10 0 -23 7 -28 16 -8 14 -10 14 -22 -1z"/>
<path d="M5012 948 c-7 -7 -20 -13 -29 -13 -34 0 -23 -23 14 -27 42 -6 63 5
63 33 0 22 -29 26 -48 7z"/>
<path d="M5265 950 c4 -6 11 -8 16 -5 14 9 11 15 -7 15 -8 0 -12 -5 -9 -10z"/>
<path d="M5190 920 c0 -10 -8 -24 -17 -30 -17 -9 -17 -11 2 -22 23 -15 95 -28
95 -17 0 3 -16 17 -35 30 -24 17 -33 29 -29 42 3 9 1 17 -5 17 -6 0 -11 -9
-11 -20z"/>
<path d="M3920 916 c0 -9 5 -16 10 -16 6 0 10 4 10 9 0 6 -4 13 -10 16 -5 3
-10 -1 -10 -9z"/>
<path d="M5080 912 c-16 -13 -21 -24 -16 -40 7 -22 7 -22 32 5 41 44 28 71
-16 35z"/>
<path d="M5365 900 c3 -5 8 -10 11 -10 2 0 4 5 4 10 0 6 -5 10 -11 10 -5 0 -7
-4 -4 -10z"/>
<path d="M4949 850 c-5 -35 -2 -45 11 -48 19 -3 21 45 3 53 -7 2 -14 0 -14 -5z"/>
<path d="M5130 794 c-13 -45 -13 -45 -54 -42 -40 3 -41 4 -44 41 -3 39 -12 46
-31 23 -9 -11 -10 -20 -1 -36 8 -15 8 -25 1 -34 -7 -9 -6 -19 6 -35 17 -24 24
-25 145 -5 l38 6 -20 26 c-15 18 -19 34 -14 57 9 51 -12 50 -26 -1z"/>
<path d="M5281 731 c-7 -5 -9 -11 -4 -14 5 -3 15 -2 22 2 7 5 9 11 4 14 -5 3
-15 2 -22 -2z"/>
<path d="M3911 694 c0 -11 3 -14 6 -6 3 7 2 16 -1 19 -3 4 -6 -2 -5 -13z"/>
<path d="M5094 626 c-7 -20 2 -46 16 -46 13 0 13 47 0 55 -6 3 -13 -1 -16 -9z"/>
<path d="M707 621 c-10 -4 -18 -10 -18 -14 3 -20 -32 -67 -49 -67 -10 0 -22
-5 -26 -12 -5 -8 3 -10 27 -6 l35 6 -1 -41 c-1 -39 -4 -43 -43 -61 -23 -11
-42 -23 -42 -28 0 -9 116 0 133 9 11 6 -1 73 -16 91 -6 7 -11 25 -12 39 -1 23
2 24 31 20 38 -6 49 9 34 48 -10 26 -21 29 -53 16z"/>
<path d="M812 545 c-12 -5 -20 -15 -18 -21 3 -7 -2 -20 -9 -31 -20 -26 -18
-33 9 -33 32 0 48 22 44 62 -3 30 -5 32 -26 23z"/>
<path d="M795 400 c-16 -4 -28 -9 -25 -10 12 -4 38 -11 68 -16 24 -5 32 -3 32
9 0 8 -7 18 -16 21 -17 7 -17 7 -59 -4z"/>
<path d="M1010 337 c-32 -16 -37 -43 -11 -56 11 -6 55 -14 98 -17 76 -7 79 -8
120 -50 47 -49 62 -53 87 -25 15 16 15 19 1 31 -9 7 -31 13 -50 12 -25 -1 -39
5 -50 21 -9 13 -11 23 -5 25 6 2 8 8 5 12 -3 5 -18 4 -34 -1 -32 -11 -61 -2
-106 35 -27 22 -34 24 -55 13z"/>
<path d="M660 271 c0 -17 25 -30 40 -20 13 8 13 10 0 19 -19 12 -40 13 -40 1z"/>
<path d="M6502 212 c-15 -33 -15 -55 1 -49 6 2 12 12 12 23 0 10 3 24 8 31 4
6 4 14 -1 16 -4 3 -13 -6 -20 -21z"/>
<path d="M6985 180 c-3 -5 -1 -10 4 -10 6 0 11 5 11 10 0 6 -2 10 -4 10 -3 0
-8 -4 -11 -10z"/>
<path d="M1450 170 c0 -5 -9 -10 -20 -10 -11 0 -20 -4 -20 -9 0 -12 29 -23 41
-15 14 8 42 -25 35 -43 -9 -24 12 -44 40 -37 13 4 30 2 37 -4 20 -16 76 -20
88 -5 17 20 31 16 72 -18 21 -17 39 -30 41 -28 2 2 6 19 9 36 6 29 3 34 -18
39 -14 3 -31 4 -39 1 -18 -7 -84 13 -118 36 -15 10 -32 16 -39 12 -6 -4 -14
-3 -18 2 -10 14 -68 53 -80 53 -6 0 -11 -4 -11 -10z m100 -90 c0 -5 -4 -10
-10 -10 -5 0 -10 5 -10 10 0 6 5 10 10 10 6 0 10 -4 10 -10z"/>
<path d="M7165 90 c-3 -5 1 -10 9 -10 8 0 18 5 21 10 3 6 -1 10 -9 10 -8 0
-18 -4 -21 -10z"/>
<path d="M6471 54 c0 -11 3 -14 6 -6 3 7 2 16 -1 19 -3 4 -6 -2 -5 -13z"/>
<path d="M1180 40 c36 -12 70 -12 70 0 0 6 -21 10 -47 9 -39 -1 -43 -2 -23 -9z"/>
<path d="M1318 18 c5 -5 16 -8 23 -6 8 3 3 7 -10 11 -17 4 -21 3 -13 -5z"/>
<path d="M6461 22 c-24 -8 -9 -22 24 -22 26 0 33 4 29 14 -5 14 -26 17 -53 8z"/>
</g>
</svg>
